<svg xmlns="http://www.w3.org/2000/svg" xmlns:xlink="http://www.w3.org/1999/xlink" width="140" height="140" viewBox="0 0 140 140">
  <defs>
    <clipPath id="clip-path">
      <path id="path499" d="M0-682.665H81v81H0Z" transform="translate(0 682.665)" fill="#084a93"/>
    </clipPath>
  </defs>
  <g id="Grupo_148147" data-name="Grupo 148147" transform="translate(-1085.034 -6157.405)">
    <circle id="Elipse_5378" data-name="Elipse 5378" cx="70" cy="70" r="70" transform="translate(1085.034 6157.405)" fill="#ffb30b"/>
    <circle id="Elipse_5379" data-name="Elipse 5379" cx="60" cy="60" r="60" transform="translate(1095.034 6167.405)" fill="#fff"/>
    <g id="g489" transform="translate(1114.534 6869.57)">
      <g id="g491" transform="translate(34.057 -614.74)">
        <path id="path493" d="M-121.968-7.627H-137.2a1.187,1.187,0,0,1-1.187-1.187A1.187,1.187,0,0,1-137.2-10h15.234a1.187,1.187,0,0,1,1.187,1.187A1.187,1.187,0,0,1-121.968-7.627Z" transform="translate(138.388 10)" fill="#084a93"/>
      </g>
      <g id="g495" transform="translate(0 -682.665)">
        <g id="g497" clip-path="url(#clip-path)">
          <g id="g503" transform="translate(13.605 0)">
            <path id="path505" d="M-413.513-201.965a3.679,3.679,0,0,1,2.622,1.088,3.618,3.618,0,0,1,1.066,2.531,24.03,24.03,0,0,1,5.3,2.175,3.643,3.643,0,0,1,2.578-1.06,3.641,3.641,0,0,1,2.582,1.064l4.044,4.016a3.7,3.7,0,0,1,.063,5.182,24.036,24.036,0,0,1,2.213,5.288,3.7,3.7,0,0,1,3.645,3.675l.02,5.682a3.678,3.678,0,0,1-1.08,2.627,3.619,3.619,0,0,1-2.58,1.075,21.978,21.978,0,0,1-2.135,5.3,3.667,3.667,0,0,1,1.053,2.559,3.656,3.656,0,0,1-1.069,2.612l-4.009,4.037a3.663,3.663,0,0,1-2.617,1.09,3.666,3.666,0,0,1-2.6-1.071,21.359,21.359,0,0,1-5.316,2.271,3.247,3.247,0,0,1-.985,2.524,3.678,3.678,0,0,1-2.622,1.1l-5.682.02a3.685,3.685,0,0,1-2.634-1.087,3.621,3.621,0,0,1-1.068-2.532,24.044,24.044,0,0,1-5.3-2.176,3.712,3.712,0,0,1-2.577,1.04,3.691,3.691,0,0,1-2.617-1.079L-437.24-158a3.656,3.656,0,0,1-1.087-2.6,3.654,3.654,0,0,1,1.036-2.566,24.04,24.04,0,0,1-2.213-5.288,3.7,3.7,0,0,1-3.645-3.675l-.02-5.682a3.679,3.679,0,0,1,1.08-2.627,3.618,3.618,0,0,1,2.578-1.074,22.031,22.031,0,0,1,2.136-5.3,3.7,3.7,0,0,1,.021-5.177l4-4.027a3.672,3.672,0,0,1,2.623-1.092,3.675,3.675,0,0,1,2.6,1.065,21.592,21.592,0,0,1,5.318-2.268,3.247,3.247,0,0,1,.985-2.524,3.678,3.678,0,0,1,2.622-1.1l5.682-.02Zm9.011,8.191a2.294,2.294,0,0,1-1.121-.293,21.654,21.654,0,0,0-4.9-2.009,2.247,2.247,0,0,1-1.674-2.074c0-.016,0-.134,0-.15a1.263,1.263,0,0,0-.374-.9,1.321,1.321,0,0,0-.942-.391v-1.187l0,1.187-5.682.02a1.321,1.321,0,0,0-.942.4,1.262,1.262,0,0,0-.369.9,2.307,2.307,0,0,1-1.663,2.238,21.664,21.664,0,0,0-4.851,2.025,2.359,2.359,0,0,1-1.164.308,2.269,2.269,0,0,1-1.6-.652,1.323,1.323,0,0,0-.938-.389,1.315,1.315,0,0,0-.939.391l-4,4.026a1.317,1.317,0,0,0,.007,1.861,2.307,2.307,0,0,1,.391,2.745,21.66,21.66,0,0,0-2.008,4.895,2.292,2.292,0,0,1-2.177,1.679,1.3,1.3,0,0,0-.952.377,1.322,1.322,0,0,0-.388.944l.02,5.682a1.3,1.3,0,0,0,1.286,1.311l.165,0a2.246,2.246,0,0,1,2.086,1.66,21.663,21.663,0,0,0,2.043,4.883,2.286,2.286,0,0,1-.322,2.7,1.355,1.355,0,0,0-.436.981,1.3,1.3,0,0,0,.386.925l4.021,3.992a1.333,1.333,0,0,0,.945.389,1.333,1.333,0,0,0,.942-.387,2.284,2.284,0,0,1,1.616-.676,2.3,2.3,0,0,1,1.122.293,21.668,21.668,0,0,0,4.895,2.008,2.248,2.248,0,0,1,1.676,2.076c0,.015,0,.131,0,.147a1.266,1.266,0,0,0,.375.9,1.32,1.32,0,0,0,.941.39l5.687-.02a1.321,1.321,0,0,0,.942-.4,1.262,1.262,0,0,0,.369-.9,2.306,2.306,0,0,1,1.663-2.238,21.668,21.668,0,0,0,4.882-2.043,2.292,2.292,0,0,1,1.135-.3,2.25,2.25,0,0,1,1.562.624,1.36,1.36,0,0,0,.978.432,1.306,1.306,0,0,0,.933-.389l4.01-4.038a1.3,1.3,0,0,0,.38-.928,1.3,1.3,0,0,0-.389-.924,2.308,2.308,0,0,1-.394-2.747,21.661,21.661,0,0,0,2.009-4.9,2.291,2.291,0,0,1,2.176-1.678,1.3,1.3,0,0,0,.953-.377,1.321,1.321,0,0,0,.388-.944l-.02-5.682a1.3,1.3,0,0,0-1.286-1.311l-.127-1.188-.038,1.186a2.247,2.247,0,0,1-2.086-1.66,21.656,21.656,0,0,0-2.043-4.882,2.286,2.286,0,0,1,.323-2.7,1.343,1.343,0,0,0,.037-1.917l-4.044-4.016a1.283,1.283,0,0,0-.91-.375,1.281,1.281,0,0,0-.926.391A2.3,2.3,0,0,1-404.5-193.774Z" transform="translate(443.168 201.965)" fill="#084a93"/>
          </g>
          <g id="g507" transform="translate(23.854 10.249)">
            <path id="path509" d="M-252.279-127.856a16.665,16.665,0,0,1-16.645-16.588,16.537,16.537,0,0,1,4.834-11.788,16.537,16.537,0,0,1,11.754-4.917,16.668,16.668,0,0,1,16.385,13.385,1.187,1.187,0,0,1-.933,1.4,1.187,1.187,0,0,1-1.395-.933,14.289,14.289,0,0,0-14.049-11.475,14.18,14.18,0,0,0-10.078,4.216,14.179,14.179,0,0,0-4.145,10.107,14.29,14.29,0,0,0,14.323,14.223,14.213,14.213,0,0,0,14.041-11.987,1.187,1.187,0,0,1,1.36-.983,1.187,1.187,0,0,1,.983,1.36,16.578,16.578,0,0,1-16.376,13.983Z" transform="translate(268.924 161.148)" fill="#084a93"/>
          </g>
          <g id="g511" transform="translate(25.943 16.466)">
            <path id="path513" d="M-50.459-175.59a1.183,1.183,0,0,1-.839-.348,1.187,1.187,0,0,1,0-1.678l1.546-1.546a11.7,11.7,0,0,1,7.677-3.4,7.844,7.844,0,0,0,5.146-2.282,7.848,7.848,0,0,0,2.17-6.911l-4.211,4.211a3.225,3.225,0,0,1-4.555,0l-1.769-1.769a3.225,3.225,0,0,1,0-4.555l4.212-4.211a7.848,7.848,0,0,0-6.911,2.17,7.808,7.808,0,0,0-2.279,5.091,11.738,11.738,0,0,1-3.406,7.732l-1.547,1.547a1.187,1.187,0,0,1-1.678,0,1.187,1.187,0,0,1,0-1.678l1.547-1.547a9.331,9.331,0,0,0,2.712-6.124,10.219,10.219,0,0,1,2.974-6.7,10.224,10.224,0,0,1,9.926-2.62,1.946,1.946,0,0,1,1.379,1.392,1.94,1.94,0,0,1-.509,1.885l-4.74,4.74a.849.849,0,0,0,0,1.2l1.769,1.769a.849.849,0,0,0,1.2,0l4.74-4.74a1.94,1.94,0,0,1,1.885-.509,1.946,1.946,0,0,1,1.392,1.378,10.224,10.224,0,0,1-2.62,9.926,10.179,10.179,0,0,1-6.637,2.97,9.373,9.373,0,0,0-6.186,2.715l-1.546,1.546A1.183,1.183,0,0,1-50.459-175.59Z" transform="translate(57.252 200.576)" fill="#084a93"/>
          </g>
          <g id="g515" transform="translate(2.937 47.896)">
            <path id="path517" d="M-81.629-100.525h-5.2a3.346,3.346,0,0,1-3.342-3.342V-128.82a3.346,3.346,0,0,1,3.342-3.342h5.2a3.346,3.346,0,0,1,3.342,3.342v6.839a1.187,1.187,0,0,1-1.187,1.187,1.187,1.187,0,0,1-1.187-1.187v-6.839a.97.97,0,0,0-.969-.969h-5.2a.97.97,0,0,0-.969.969v24.953a.97.97,0,0,0,.969.969h5.2a.97.97,0,0,0,.969-.969v-12.613a1.187,1.187,0,0,1,1.187-1.187,1.187,1.187,0,0,1,1.187,1.187v12.613A3.346,3.346,0,0,1-81.629-100.525Z" transform="translate(90.173 132.162)" fill="#084a93"/>
          </g>
          <g id="g519" transform="translate(12.449 51.867)">
            <path id="path521" d="M25.324-159.4H8.415a13.626,13.626,0,0,1-4.769-.859L-9.23-165.05a1.187,1.187,0,0,1-.7-1.526,1.187,1.187,0,0,1,1.526-.7l12.876,4.793a11.261,11.261,0,0,0,3.941.71H25.324a11.282,11.282,0,0,0,6.047-1.755l21.1-11.938A2.536,2.536,0,0,0,52.8-178.7c-.986-1.449-2.533-1.12-3.656-.588L28.5-170.2a1.187,1.187,0,0,1-1.13-.095,1.187,1.187,0,0,1-.535-1l.024-3.277a4.787,4.787,0,0,0-4.1-4.217l-12.521-1.441a16.2,16.2,0,0,1-6.723-2.655l-.607-.357a21.331,21.331,0,0,0-10.76-2.916h-.97A1.187,1.187,0,0,1-10-187.345a1.187,1.187,0,0,1,1.187-1.187h.97a23.706,23.706,0,0,1,11.958,3.241l.613.36a13.947,13.947,0,0,0,5.821,2.346l12.521,1.441a7.163,7.163,0,0,1,6.162,6.4,1.187,1.187,0,0,1,.006.126l-.011,1.511,18.934-8.337c2.662-1.259,5.142-.736,6.6,1.412a4.914,4.914,0,0,1-.8,6.424,1.186,1.186,0,0,1-.2.145L32.59-161.491A13.588,13.588,0,0,1,25.324-159.4Z" transform="translate(10.003 188.532)" fill="#084a93"/>
          </g>
        </g>
      </g>
    </g>
  </g>
</svg>
