<svg xmlns="http://www.w3.org/2000/svg" xmlns:xlink="http://www.w3.org/1999/xlink" width="100.244" height="81.082" viewBox="0 0 100.244 81.082">
  <defs>
    <linearGradient id="linear-gradient" x1="0.887" y1="0.679" x2="0.043" y2="0.289" gradientUnits="objectBoundingBox">
      <stop offset="0" stop-color="#ffb30b"/>
      <stop offset="1" stop-color="#996b07"/>
    </linearGradient>
    <linearGradient id="linear-gradient-2" x1="1.109" y1="0.823" x2="-0.261" y2="0.186" xlink:href="#linear-gradient"/>
    <linearGradient id="linear-gradient-3" x1="1.052" y1="0.704" x2="-0.157" y2="0.258" gradientUnits="objectBoundingBox">
      <stop offset="0" stop-color="#4ca8c1"/>
      <stop offset="1" stop-color="#b3c9ff"/>
    </linearGradient>
    <linearGradient id="linear-gradient-4" x1="0" y1="0.5" x2="1" y2="0.5" xlink:href="#linear-gradient-3"/>
    <linearGradient id="linear-gradient-5" x1="0" y1="0.5" x2="1" y2="0.5" xlink:href="#linear-gradient-3"/>
    <clipPath id="clip-path">
      <path id="Trazado_193917" data-name="Trazado 193917" d="M1140.756,400.112l.028-13.852a15.516,15.516,0,0,0,1.788,7.169l-.028,13.851A15.514,15.514,0,0,1,1140.756,400.112Z" fill="none"/>
    </clipPath>
    <linearGradient id="linear-gradient-6" y1="0.5" x2="1" y2="0.5" gradientUnits="objectBoundingBox">
      <stop offset="0" stop-color="#008597"/>
      <stop offset="1" stop-color="#00b2ca"/>
    </linearGradient>
    <linearGradient id="linear-gradient-7" x1="1.034" y1="0.192" x2="0.064" y2="0.751" xlink:href="#linear-gradient-6"/>
    <linearGradient id="linear-gradient-9" y1="0.5" x2="1" y2="0.5" gradientUnits="objectBoundingBox">
      <stop offset="0" stop-color="#fff"/>
      <stop offset="1" stop-color="#dcdcdb"/>
    </linearGradient>
    <linearGradient id="linear-gradient-10" y1="0.5" x2="1" y2="0.5" gradientUnits="objectBoundingBox">
      <stop offset="0" stop-color="#ebebeb"/>
      <stop offset="1" stop-color="#d1d0cf"/>
    </linearGradient>
  </defs>
  <g id="Grupo_132874" data-name="Grupo 132874" transform="translate(-1140.756 -352.334)">
    <g id="Grupo_132862" data-name="Grupo 132862">
      <path id="Trazado_193910" data-name="Trazado 193910" d="M1183.739,377.216V385.1l-.028,9.868,30.275-17.594.028-9.868v-7.88Z" fill="url(#linear-gradient)"/>
      <g id="Grupo_132861" data-name="Grupo 132861">
        <path id="Trazado_193911" data-name="Trazado 193911" d="M1214.014,359.622l-30.275,17.594-30.474-17.594C1169.987,349.9,1197.183,349.9,1214.014,359.622Z" fill="#ffb30b"/>
      </g>
      <path id="Trazado_193912" data-name="Trazado 193912" d="M1153.265,359.622v21.731l30.474,13.611V377.216Z" fill="url(#linear-gradient-2)"/>
    </g>
    <g id="Grupo_132865" data-name="Grupo 132865">
      <g id="Grupo_132863" data-name="Grupo 132863">
        <path id="Trazado_193913" data-name="Trazado 193913" d="M1239.588,395.225l-.028,9.868-41.545-6.423.028-9.868Z" fill="url(#linear-gradient-3)"/>
      </g>
      <path id="Trazado_193914" data-name="Trazado 193914" d="M1240.98,389.577c0,.076-.006.151-.011.227-.014.216-.032.431-.055.647,0,.025,0,.049-.007.074-.027.24-.062.479-.1.718-.011.07-.025.14-.038.211-.03.173-.064.346-.1.519-.017.078-.034.156-.052.233q-.063.275-.138.547c-.015.058-.029.115-.045.173q-.1.354-.219.707c-.018.054-.038.107-.056.16-.057.166-.118.331-.182.5-.119.312-.246.625-.387.935l-.028,9.868c.141-.31.268-.622.387-.935.014-.035.031-.07.044-.1.048-.13.092-.26.137-.39.019-.054.039-.108.058-.162q.117-.353.218-.707c.016-.057.03-.115.045-.173q.075-.273.138-.547c.018-.077.035-.155.052-.232s.031-.136.045-.205c.021-.1.038-.21.056-.315.013-.071.027-.141.038-.211.039-.239.074-.478.1-.717,0-.026,0-.052.007-.078.023-.214.041-.429.055-.644.005-.076.008-.151.011-.227s.011-.18.014-.271c0-.126.006-.253.006-.38l.028-9.868C1241,389.143,1240.991,389.36,1240.98,389.577Z" fill="url(#linear-gradient-4)"/>
      <g id="Grupo_132864" data-name="Grupo 132864">
        <path id="Trazado_193915" data-name="Trazado 193915" d="M1228.318,371.208c11.271,6.508,15.034,15.723,11.27,24.017l-41.546-6.423Z" fill="url(#linear-gradient-5)"/>
      </g>
    </g>
    <g id="Grupo_132871" data-name="Grupo 132871">
      <g id="Grupo_132868" data-name="Grupo 132868" style="isolation: isolate">
        <g id="Grupo_132867" data-name="Grupo 132867" clip-path="url(#clip-path)">
          <g id="Grupo_132866" data-name="Grupo 132866" style="isolation: isolate">
            <path id="Trazado_193916" data-name="Trazado 193916" d="M1142.572,393.429l-.028,13.851a15.514,15.514,0,0,1-1.788-7.168l.028-13.852a15.516,15.516,0,0,0,1.788,7.169" fill="url(#linear-gradient-6)"/>
          </g>
        </g>
      </g>
      <g id="Grupo_132869" data-name="Grupo 132869">
        <path id="Trazado_193918" data-name="Trazado 193918" d="M1183.739,386.384l-.028,13.851-41.167,7.045.028-13.851Z" fill="url(#linear-gradient-7)"/>
      </g>
      <g id="Grupo_132870" data-name="Grupo 132870">
        <path id="Trazado_193919" data-name="Trazado 193919" d="M1183.739,386.384l-41.167,7.045c-4.339-8.457-.784-17.969,10.693-24.639Z" fill="url(#linear-gradient-6)"/>
      </g>
    </g>
    <g id="Grupo_132873" data-name="Grupo 132873">
      <g id="Grupo_132872" data-name="Grupo 132872">
        <path id="Trazado_193920" data-name="Trazado 193920" d="M1225.109,405.093c-1.86,4.092-5.549,7.961-11.072,11.171-16.717,9.715-43.918,9.715-60.747,0-5.279-3.048-8.91-6.686-10.893-10.548l41.166-7.045Z" fill="url(#linear-gradient-9)"/>
      </g>
      <path id="Trazado_193921" data-name="Trazado 193921" d="M1225.079,414.966l0-.005.028-9.868q-.168.368-.355.733c-.041.081-.087.161-.13.242-.086.163-.173.326-.265.488-.047.082-.1.163-.145.244q-.136.232-.28.463c-.057.09-.116.18-.174.27q-.142.219-.292.436c-.063.091-.126.182-.191.272q-.156.219-.32.436c-.065.086-.129.172-.2.258-.1.125-.2.248-.3.372s-.2.246-.3.368-.206.238-.311.356-.213.243-.324.364-.22.235-.332.351-.228.24-.346.359-.235.232-.354.347-.242.236-.367.353c-.188.176-.381.352-.578.526l-.088.079c-.234.206-.475.409-.72.611l-.213.172q-.275.222-.56.442l-.25.191c-.207.156-.418.312-.633.466l-.175.127q-.41.291-.836.575c-.071.048-.144.094-.215.141q-.33.217-.672.431c-.095.06-.191.12-.288.179-.283.175-.569.348-.863.519-.466.271-.942.531-1.423.786-.126.067-.253.133-.38.2q-.648.336-1.314.655c-.058.028-.115.058-.174.085-.5.235-1,.46-1.51.679-.131.057-.263.112-.4.167q-.652.275-1.318.534l-.285.112q-.785.3-1.588.576l-.39.131c-.361.122-.726.238-1.092.353q-.519.165-1.045.319-.443.131-.89.255-.531.147-1.069.285-.45.117-.9.228c-.363.088-.728.171-1.094.252-.3.068-.607.136-.912.2-.372.077-.746.149-1.12.22-.335.064-.67.13-1.007.189l-.452.076q-.773.131-1.552.243c-.086.013-.171.027-.258.039q-.886.125-1.781.225l-.446.049c-.368.04-.739.074-1.109.109q-.688.063-1.379.114c-.291.022-.582.043-.873.061-.48.029-.961.052-1.442.072-.273.012-.545.026-.818.034-.416.013-.834.019-1.251.025-.294,0-.588.011-.882.012-.446,0-.891-.007-1.337-.014-.266,0-.533,0-.8-.011-.409-.01-.818-.03-1.227-.048-.287-.012-.574-.02-.861-.036-.441-.024-.881-.057-1.321-.089-.254-.019-.508-.032-.761-.053-.53-.044-1.057-.1-1.584-.154-.161-.017-.323-.029-.484-.047q-1.029-.115-2.051-.26c-.115-.016-.228-.036-.342-.053-.581-.085-1.16-.174-1.735-.274-.243-.042-.484-.091-.726-.135-.443-.082-.887-.163-1.326-.253-.231-.047-.459-.1-.688-.15-.484-.1-.966-.211-1.444-.326-.268-.064-.533-.133-.8-.2q-.654-.166-1.3-.344c-.371-.1-.741-.207-1.107-.317-.137-.041-.275-.08-.412-.122q-.828-.254-1.642-.53l-.307-.107q-.675-.234-1.338-.484l-.448-.17c-.351-.136-.7-.278-1.043-.42-.238-.1-.477-.2-.713-.3-.336-.144-.667-.295-1-.447-.218-.1-.438-.2-.652-.3-.362-.172-.716-.351-1.069-.53-.177-.09-.357-.176-.532-.268q-.788-.411-1.548-.849c-5.279-3.048-8.91-6.686-10.893-10.548l-.028,9.869c1.983,3.861,5.614,7.5,10.893,10.547.507.293,1.023.575,1.548.85.174.091.354.177.53.266.355.18.709.359,1.071.531.214.1.434.2.651.3.332.151.663.3,1,.447.235.1.474.2.711.295s.454.193.685.284c.119.047.24.09.359.136.149.058.3.114.449.171q.662.248,1.335.482l.31.109c.541.184,1.089.36,1.64.529.138.042.276.082.414.123.236.07.471.143.71.211.13.037.265.069.4.1.431.12.866.234,1.3.345.265.067.529.136.8.2.478.115.961.222,1.446.327.181.039.358.084.54.121.048.011.1.018.147.028.441.091.885.172,1.33.254.241.044.479.093.721.134.581.1,1.165.191,1.751.276.1.016.206.035.31.049l.016,0q1.022.145,2.053.26c.153.017.307.029.459.045.535.057,1.071.112,1.608.156l.041,0c.239.02.48.032.72.049.44.032.88.066,1.321.09.286.015.572.023.858.035.41.018.82.038,1.231.048.034,0,.068,0,.1,0,.23.006.461,0,.691.007.448.007.9.015,1.344.014.293,0,.585-.008.878-.012.419-.006.837-.011,1.254-.024.078,0,.156,0,.234-.005.195-.007.389-.021.583-.029.482-.021.964-.043,1.444-.073.291-.018.58-.039.87-.06q.693-.051,1.383-.115c.161-.015.323-.024.484-.04.208-.021.414-.046.621-.068.15-.017.3-.032.45-.05q.893-.1,1.778-.225c.088-.012.175-.026.262-.039q.777-.112,1.548-.242l.455-.077c.121-.022.244-.041.365-.063.214-.038.424-.084.637-.125.376-.071.751-.143,1.124-.221.3-.064.607-.132.91-.2.366-.082.732-.165,1.1-.253.3-.073.6-.15.9-.228.358-.092.715-.186,1.069-.285q.447-.125.89-.255.527-.154,1.045-.318c.152-.048.308-.091.459-.14.213-.069.422-.142.633-.214.13-.043.261-.086.39-.131q.8-.277,1.588-.576l.287-.113q.664-.258,1.316-.532c.132-.056.265-.111.4-.168.509-.219,1.013-.444,1.508-.678.06-.028.118-.058.178-.087q.664-.316,1.311-.654l.38-.2c.481-.255.958-.515,1.423-.786q.312-.182.617-.366c.083-.05.164-.1.246-.152l.288-.179q.342-.215.673-.433c.071-.046.143-.092.213-.139q.428-.285.837-.575c.059-.043.116-.086.175-.128q.322-.231.633-.466l.251-.192q.283-.219.558-.441c.072-.057.144-.114.214-.172q.369-.3.72-.61l.088-.079c.161-.143.322-.286.477-.43.035-.032.067-.065.1-.1.125-.117.246-.234.367-.352s.239-.231.355-.348.23-.237.343-.356.226-.236.335-.354.216-.241.322-.362.211-.238.312-.358.2-.245.3-.368c.072-.088.149-.177.219-.266l.08-.106c.066-.085.13-.172.195-.258.109-.144.216-.29.32-.436.065-.09.128-.181.191-.272.1-.145.2-.29.292-.436.058-.09.117-.179.174-.269q.144-.231.28-.464c.048-.081.1-.162.145-.244.013-.024.028-.047.042-.071.078-.138.149-.277.223-.416.043-.081.089-.162.13-.243Q1224.912,415.331,1225.079,414.966Z" fill="url(#linear-gradient-10)"/>
    </g>
  </g>
</svg>
