<svg xmlns="http://www.w3.org/2000/svg" xmlns:xlink="http://www.w3.org/1999/xlink" width="53.723" height="110.561" viewBox="0 0 53.723 110.561">
  <defs>
    <linearGradient id="linear-gradient" x1="0.155" y1="0.13" x2="0.655" y2="0.63" gradientUnits="objectBoundingBox">
      <stop offset="0" stop-color="#7e84a0"/>
      <stop offset="1" stop-color="#c9c9ce"/>
    </linearGradient>
    <linearGradient id="linear-gradient-2" x1="-0.088" y1="-0.041" x2="0.917" y2="0.884" gradientUnits="objectBoundingBox">
      <stop offset="0" stop-color="#fff"/>
      <stop offset="1" stop-color="#d1d0cf"/>
    </linearGradient>
    <linearGradient id="linear-gradient-3" x1="-3.986" y1="0.205" x2="2.076" y2="0.604" xlink:href="#linear-gradient"/>
    <linearGradient id="linear-gradient-4" x1="-65.809" y1="0.895" x2="-65.346" y2="0.203" gradientUnits="objectBoundingBox">
      <stop offset="0" stop-color="#008597"/>
      <stop offset="1" stop-color="#00b2ca"/>
    </linearGradient>
    <linearGradient id="linear-gradient-5" x1="-63.405" y1="0.131" x2="-63.129" y2="0.835" xlink:href="#linear-gradient-4"/>
    <linearGradient id="linear-gradient-6" x1="-64.927" y1="0.619" x2="-64.238" y2="0.252" gradientUnits="objectBoundingBox">
      <stop offset="0" stop-color="#fff"/>
      <stop offset="1" stop-color="#dcdcdb"/>
    </linearGradient>
    <linearGradient id="linear-gradient-7" x1="-66.367" y1="0.151" x2="-67.146" y2="0.816" xlink:href="#linear-gradient-6"/>
    <linearGradient id="linear-gradient-8" x1="-582.125" y1="0.13" x2="-583.786" y2="4.299" gradientUnits="objectBoundingBox">
      <stop offset="0" stop-color="#d33f11"/>
      <stop offset="1" stop-color="#ff800a"/>
    </linearGradient>
    <linearGradient id="linear-gradient-9" x1="-308.416" y1="0.5" x2="-307.416" y2="0.5" gradientUnits="objectBoundingBox">
      <stop offset="0" stop-color="#4c6fbf"/>
      <stop offset="1" stop-color="#8ca3d8"/>
    </linearGradient>
    <linearGradient id="linear-gradient-10" x1="-436.363" y1="0.5" x2="-435.363" y2="0.5" gradientUnits="objectBoundingBox">
      <stop offset="0" stop-color="#4c6fbf"/>
      <stop offset="1" stop-color="#2c519b"/>
    </linearGradient>
    <linearGradient id="linear-gradient-11" x1="-658.855" y1="0.207" x2="-659.117" y2="0.968" xlink:href="#linear-gradient-8"/>
    <clipPath id="clip-path">
      <path id="Trazado_193894" data-name="Trazado 193894" d="M1297.566,689.668l2.392-1.39a1.57,1.57,0,0,1-1.433-.013l-2.391,1.39A1.568,1.568,0,0,0,1297.566,689.668Z" fill="none"/>
    </clipPath>
    <clipPath id="clip-path-2">
      <path id="Trazado_193896" data-name="Trazado 193896" d="M1296.478,682.288l-2.392,1.39a1.3,1.3,0,0,0-.515.58l2.391-1.389A1.3,1.3,0,0,1,1296.478,682.288Z" fill="none"/>
    </clipPath>
    <linearGradient id="linear-gradient-12" x1="-739.011" y1="-4.205" x2="-741.11" y2="1.999" xlink:href="#linear-gradient-8"/>
    <linearGradient id="linear-gradient-13" x1="-265.522" y1="0.5" x2="-264.522" y2="0.5" gradientUnits="objectBoundingBox">
      <stop offset="0" stop-color="#4ca8c1"/>
      <stop offset="1" stop-color="#b3c9ff"/>
    </linearGradient>
    <linearGradient id="linear-gradient-14" x1="-278.058" y1="0.5" x2="-277.058" y2="0.5" xlink:href="#linear-gradient-13"/>
    <linearGradient id="linear-gradient-15" x1="0" y1="0.5" x2="1" y2="0.5" xlink:href="#linear-gradient"/>
    <linearGradient id="linear-gradient-16" x1="-270.936" y1="0.5" x2="-269.936" y2="0.5" gradientUnits="objectBoundingBox">
      <stop offset="0" stop-color="#ffac06"/>
      <stop offset="1" stop-color="#ff7c0a"/>
    </linearGradient>
    <linearGradient id="linear-gradient-17" x1="-289.194" y1="-0.078" x2="-290.02" y2="1.362" xlink:href="#linear-gradient-8"/>
    <linearGradient id="linear-gradient-18" x1="0.5" y1="-77.125" x2="0.5" y2="-77.252" xlink:href="#linear-gradient-2"/>
    <linearGradient id="linear-gradient-19" x1="0.5" y1="-66.146" x2="0.5" y2="-66.255" xlink:href="#linear-gradient-2"/>
    <linearGradient id="linear-gradient-20" x1="0.5" y1="-66.146" x2="0.5" y2="-66.255" xlink:href="#linear-gradient-2"/>
    <linearGradient id="linear-gradient-21" x1="0.5" y1="-66.147" x2="0.5" y2="-66.256" xlink:href="#linear-gradient-2"/>
    <linearGradient id="linear-gradient-22" x1="0.5" y1="-66.145" x2="0.5" y2="-66.254" xlink:href="#linear-gradient-2"/>
    <linearGradient id="linear-gradient-23" x1="0.5" y1="-80.157" x2="0.5" y2="-80.29" xlink:href="#linear-gradient-2"/>
  </defs>
  <g id="Grupo_132860" data-name="Grupo 132860" transform="translate(-1283.682 -615.816)">
    <g id="Grupo_132835" data-name="Grupo 132835">
      <g id="Grupo_132834" data-name="Grupo 132834">
        <path id="Trazado_193867" data-name="Trazado 193867" d="M1337.406,644.676l-51.068-28.861-2.655,1.71,2.655,78.28,51.068,28.861Z" fill="url(#linear-gradient)"/>
        <path id="Trazado_193868" data-name="Trazado 193868" d="M1334.75,646.387l-51.068-28.861v79.99l51.068,28.861Z" fill="url(#linear-gradient-2)"/>
        <path id="Trazado_193869" data-name="Trazado 193869" d="M1337.406,644.676l-2.655,1.71v79.99l2.655-1.71Z" fill="url(#linear-gradient-3)"/>
      </g>
    </g>
    <g id="Grupo_132859" data-name="Grupo 132859">
      <g id="Grupo_132839" data-name="Grupo 132839">
        <g id="Grupo_132836" data-name="Grupo 132836">
          <path id="Trazado_193870" data-name="Trazado 193870" d="M1329.141,678.331s-.562-18.877-4.108-19.988-6.41,4.164-8.9.036-4.418-17.716-6.562-18.582a1.887,1.887,0,0,0-2.77,1.379c-.815,2.955,1.127,9.429-1.887,10.588-4.128,1.588-4.833-7.045-7.056-7.045s-3.3,6.92-3.3,6.92l33.512,27.432Z" fill="url(#linear-gradient-4)"/>
          <path id="Trazado_193871" data-name="Trazado 193871" d="M1328.069,679.071s-.562-18.877-4.108-19.988-6.41,4.164-8.9.036-4.356-17.713-6.562-18.582c-4.19-1.653-.529,10.38-4.657,11.967s-4.745-7.168-6.968-7.168-4.607,10.175-4.607,10.175Z" fill="url(#linear-gradient-5)"/>
        </g>
        <g id="Grupo_132837" data-name="Grupo 132837">
          <path id="Trazado_193872" data-name="Trazado 193872" d="M1326.589,676.089s-.621-13.774-4.035-14.589-3.646,2.177-8.229-.663-5.625-18.627-9.155-18.976a2.4,2.4,0,0,0-2.386,1.44c-1.422,3.506-.816,11.656-3.7,12.34-3.764.893-3.764-8.07-6.325-9.273l-1.2.705,1.2,13.28,32.638,19.855,1.2-.7Z" fill="url(#linear-gradient-6)"/>
          <path id="Trazado_193873" data-name="Trazado 193873" d="M1325.393,676.794s-.62-13.774-4.035-14.589-3.646,2.177-8.228-.664-5.625-18.627-9.156-18.976-2.326,12.889-6.09,13.781-3.764-8.07-6.325-9.273v13.985l33.834,19.15Z" fill="url(#linear-gradient-7)"/>
        </g>
        <g id="Grupo_132838" data-name="Grupo 132838">
          <path id="Trazado_193874" data-name="Trazado 193874" d="M1324.443,680.858a15.028,15.028,0,0,0-1.026-5.466c-1.26-3.229-3.453-8.1-5.273-8.27-2.73-.252-5.04,2.478-7.35,1.3s-2.239-15.5-4.969-16.428-1.876,9.8-4.754,9.269-3.338-11.487-9.427-13.083l-1.155.618,1.155,13.369,31.645,19.583,1.154-.619Z" fill="#ffb30b"/>
          <path id="Trazado_193875" data-name="Trazado 193875" d="M1323.289,681.476a15.033,15.033,0,0,0-1.027-5.466c-1.26-3.229-3.453-8.1-5.273-8.269-2.73-.252-5.04,2.478-7.349,1.3s-2.239-15.5-4.969-16.428-1.877,9.8-4.755,9.269-3.338-11.488-9.427-13.084v13.987l32.8,18.965Z" fill="#ffb30b"/>
        </g>
      </g>
      <g id="Grupo_132857" data-name="Grupo 132857">
        <g id="Grupo_132840" data-name="Grupo 132840">
          <path id="Trazado_193876" data-name="Trazado 193876" d="M1288.153,689.888l2.391-1.39,1.025-.622-2.391,1.39Z" fill="#76807e"/>
        </g>
        <g id="Grupo_132841" data-name="Grupo 132841">
          <path id="Trazado_193877" data-name="Trazado 193877" d="M1288.107,677.692l2.391-1.39-1.283-1.542-2.391,1.39Z" fill="url(#linear-gradient-8)"/>
        </g>
        <g id="Grupo_132842" data-name="Grupo 132842">
          <path id="Trazado_193878" data-name="Trazado 193878" d="M1289.178,689.267l2.391-1.39,4.419-2.68-2.391,1.39Z" fill="#76807e"/>
        </g>
        <g id="Grupo_132843" data-name="Grupo 132843">
          <path id="Trazado_193879" data-name="Trazado 193879" d="M1293.6,686.586l-4.419,2.681a18.979,18.979,0,0,0,5.564,6.686l1.406-6.28c-.118-.061-.224-.114-.331-.176A5.421,5.421,0,0,1,1293.6,686.586Z" fill="url(#linear-gradient-9)"/>
        </g>
        <g id="Grupo_132844" data-name="Grupo 132844">
          <path id="Trazado_193880" data-name="Trazado 193880" d="M1294.742,695.953l2.391-1.39,1.406-6.279-2.391,1.39Z" fill="#77807f"/>
        </g>
        <path id="Trazado_193881" data-name="Trazado 193881" d="M1293.606,686.612l-.009-.026,2.391-1.39.039.111c.016.043.03.086.047.129s.029.074.044.111.029.073.045.109l.052.116c.015.033.03.067.046.1s.039.079.059.119l.047.093c.021.039.042.076.063.114l.053.1.06.1.066.109c.018.027.036.053.053.08s.056.085.085.127l.051.07c.034.047.068.094.1.14.018.024.036.047.055.07.042.053.084.1.128.156l.053.062c.075.085.152.168.231.247l.062.06c.038.037.077.073.117.109l.072.063.12.1.073.057q.064.05.132.1c.021.015.042.031.064.045.066.044.132.087.2.126.106.061.213.114.33.175l-2.391,1.39c-.118-.061-.224-.114-.331-.176-.067-.039-.134-.081-.2-.125l-.064-.045-.132-.1-.073-.058c-.04-.032-.08-.065-.119-.1l-.073-.063-.117-.11-.045-.042-.016-.017c-.079-.079-.157-.162-.232-.248l-.019-.02c-.012-.013-.022-.028-.034-.041-.043-.051-.086-.1-.128-.156l-.034-.042-.021-.028c-.035-.046-.069-.093-.1-.14-.014-.019-.028-.036-.041-.055l-.01-.016c-.029-.042-.057-.084-.085-.127-.015-.023-.032-.045-.046-.069l-.007-.01c-.023-.036-.045-.073-.067-.11l-.054-.088-.005-.01c-.018-.031-.036-.064-.054-.1s-.038-.067-.056-.1l-.006-.012c-.016-.031-.032-.062-.047-.093s-.036-.069-.053-.1l-.007-.015-.045-.1-.046-.1-.007-.017c-.015-.036-.029-.073-.044-.109l-.039-.094-.006-.017c-.016-.043-.031-.086-.046-.129S1293.615,686.64,1293.606,686.612Z" fill="url(#linear-gradient-10)"/>
        <path id="Trazado_193882" data-name="Trazado 193882" d="M1292.755,686.114c-.005-.034-.007-.068-.011-.1s-.006-.058-.008-.086c-.008-.1-.013-.2-.013-.292a2.3,2.3,0,0,1,.2-1l3.037-1.768a2.294,2.294,0,0,0-.2,1c0,.1.005.194.013.293,0,.028.005.057.008.085.007.063.016.127.026.19s.018.118.03.177.025.122.039.183c.009.038.018.076.028.113.025.1.053.194.084.29l-3.037,1.768c-.025-.075-.048-.151-.069-.227l-.015-.063c-.01-.037-.019-.075-.028-.113s-.018-.068-.025-.1-.009-.053-.014-.08q-.018-.089-.03-.177C1292.765,686.172,1292.758,686.143,1292.755,686.114Z" fill="url(#linear-gradient-11)"/>
        <g id="Grupo_132845" data-name="Grupo 132845">
          <path id="Trazado_193883" data-name="Trazado 193883" d="M1293.571,684.258l2.391-1.39L1290.5,676.3l-2.391,1.39Z" fill="#bfcecc"/>
        </g>
        <g id="Grupo_132848" data-name="Grupo 132848" style="isolation: isolate">
          <g id="Grupo_132847" data-name="Grupo 132847" clip-path="url(#clip-path)">
            <g id="Grupo_132846" data-name="Grupo 132846" style="isolation: isolate">
              <path id="Trazado_193884" data-name="Trazado 193884" d="M1297.566,689.668l2.392-1.39-.014.008-2.391,1.389.013-.007" fill="#929e9c"/>
              <path id="Trazado_193885" data-name="Trazado 193885" d="M1297.553,689.675l2.391-1.389a1.273,1.273,0,0,1-.123.06l-2.391,1.39a1.174,1.174,0,0,0,.123-.061" fill="#97a3a1"/>
              <path id="Trazado_193886" data-name="Trazado 193886" d="M1297.43,689.736l2.391-1.39a1.345,1.345,0,0,1-.13.046l-2.391,1.389c.044-.013.087-.028.13-.045" fill="#9ca8a6"/>
              <path id="Trazado_193887" data-name="Trazado 193887" d="M1297.3,689.781l2.391-1.389a1.192,1.192,0,0,1-.137.031l-2.392,1.39a1.26,1.26,0,0,0,.138-.032" fill="#a0adab"/>
              <path id="Trazado_193888" data-name="Trazado 193888" d="M1297.162,689.813l2.392-1.39a1.435,1.435,0,0,1-.148.018l-2.392,1.389a1.394,1.394,0,0,0,.148-.017" fill="#a5b3b0"/>
              <path id="Trazado_193889" data-name="Trazado 193889" d="M1297.014,689.83l2.392-1.389c-.053,0-.107,0-.162,0l-2.392,1.39a1.458,1.458,0,0,0,.162,0" fill="#aab8b5"/>
              <path id="Trazado_193890" data-name="Trazado 193890" d="M1296.852,689.832l2.392-1.39c-.06,0-.121-.009-.182-.018l-2.392,1.39c.062.009.123.015.182.018" fill="#afbdba"/>
              <path id="Trazado_193891" data-name="Trazado 193891" d="M1296.67,689.814l2.392-1.39a2.011,2.011,0,0,1-.218-.046l-2.391,1.389a2.033,2.033,0,0,0,.217.047" fill="#b3c2c0"/>
              <path id="Trazado_193892" data-name="Trazado 193892" d="M1296.453,689.767l2.391-1.389a2.583,2.583,0,0,1-.287-.1l-2.391,1.39a2.323,2.323,0,0,0,.287.1" fill="#b8c7c5"/>
              <path id="Trazado_193893" data-name="Trazado 193893" d="M1296.166,689.669l2.391-1.39-.032-.014-2.391,1.39.032.014" fill="#bdccca"/>
            </g>
          </g>
        </g>
        <g id="Grupo_132851" data-name="Grupo 132851" style="isolation: isolate">
          <g id="Grupo_132850" data-name="Grupo 132850" clip-path="url(#clip-path-2)">
            <g id="Grupo_132849" data-name="Grupo 132849" style="isolation: isolate">
              <path id="Trazado_193895" data-name="Trazado 193895" d="M1293.571,684.258l2.391-1.389a1.3,1.3,0,0,1,.516-.581l-2.392,1.39a1.3,1.3,0,0,0-.515.58" fill="url(#linear-gradient-12)"/>
            </g>
          </g>
        </g>
        <path id="Trazado_193897" data-name="Trazado 193897" d="M1294.863,676.2c-.091-.04-.181-.081-.27-.117l-.066-.027c-.106-.042-.212-.082-.317-.12l-.061-.022c-.116-.04-.232-.077-.346-.111l-.077-.022c-.077-.023-.153-.042-.23-.061s-.127-.032-.19-.046-.129-.028-.193-.04l-.187-.035-.209-.03c-.046-.006-.092-.013-.137-.017-.077-.009-.153-.015-.228-.02l-.118-.008c-.11-.006-.219-.008-.326-.007l-.051,0c-.091,0-.181.005-.271.012-.032,0-.063.006-.1.009-.074.006-.147.015-.22.025l-.1.014c-.084.013-.167.029-.248.047l-.048.009c-.1.022-.192.048-.286.076-.025.007-.05.016-.075.024q-.1.033-.207.072l-.084.032c-.075.03-.148.062-.221.1-.015.008-.031.014-.047.021-.093.046-.184.094-.274.146l2.392-1.39.047-.027c.074-.042.15-.081.227-.118.015-.008.031-.014.046-.021.054-.026.108-.051.163-.074l.058-.023.084-.032c.068-.026.138-.05.208-.072l.075-.024.033-.011c.083-.024.167-.045.252-.065l.047-.009c.062-.014.124-.027.187-.038l.062-.009.1-.014c.073-.01.146-.018.22-.025.032,0,.064-.007.1-.009l.048,0c.073-.005.148-.007.223-.008l.05,0c.1,0,.2,0,.3.005l.028,0,.118.008c.076.006.151.011.228.02l.137.017c.045.006.09.01.135.017l.074.014c.062.01.125.022.187.034s.128.025.193.04.127.03.191.046l.117.028.113.033.076.022c.115.034.23.071.347.112l.06.021c.105.038.211.078.318.121l.065.026.038.015c.077.032.156.068.234.1l.13.057c.133.062.267.127.4.2h0l-2.391,1.389c-.135-.069-.268-.134-.4-.2Z" fill="url(#linear-gradient-13)"/>
        <g id="Grupo_132852" data-name="Grupo 132852">
          <path id="Trazado_193898" data-name="Trazado 193898" d="M1295.833,683.85l2.391-1.39-.437-7.391-2.391,1.39Z" fill="#828c8b"/>
        </g>
        <g id="Grupo_132853" data-name="Grupo 132853">
          <path id="Trazado_193899" data-name="Trazado 193899" d="M1295.4,676.458c-3.179-1.644-5.911-1.061-7.289,1.234l5.464,6.566c.376-.791,1.249-.993,2.262-.408Z" fill="url(#linear-gradient-14)"/>
        </g>
        <path id="Trazado_193900" data-name="Trazado 193900" d="M1304.481,691.053c-.006-.112-.012-.223-.021-.335,0-.058-.009-.115-.014-.172-.009-.111-.021-.222-.034-.334-.006-.053-.011-.106-.018-.159-.009-.078-.021-.157-.033-.235-.016-.116-.033-.233-.052-.349-.013-.079-.028-.157-.042-.236-.021-.113-.042-.226-.065-.339-.019-.091-.038-.181-.058-.272-.017-.076-.034-.151-.052-.227-.024-.1-.049-.2-.075-.3-.019-.075-.038-.149-.058-.224-.033-.12-.067-.239-.1-.359l-.039-.134c-.051-.166-.1-.332-.159-.5l-.028-.082q-.07-.205-.144-.409l-.057-.151c-.046-.124-.093-.246-.142-.369l-.047-.12q-.1-.234-.2-.466c-.1-.223-.2-.445-.305-.666-.028-.058-.056-.115-.085-.173q-.128-.262-.264-.522c-.028-.053-.055-.107-.084-.16q-.174-.325-.359-.645c-.023-.04-.048-.079-.071-.119-.109-.185-.222-.369-.336-.551l-.1-.16c-.142-.221-.288-.44-.439-.655-.1-.139-.195-.277-.3-.413l-.009-.012q-.159-.215-.323-.425c-.051-.066-.1-.131-.156-.2-.066-.083-.132-.165-.2-.247-.054-.065-.109-.129-.164-.193s-.129-.153-.195-.228c-.133-.152-.268-.3-.405-.448l-.025-.028c-.145-.154-.293-.3-.442-.453-.1-.1-.192-.188-.289-.28l-.078-.074c-.126-.118-.254-.234-.383-.346-.034-.031-.07-.06-.1-.09-.095-.082-.191-.162-.287-.241l-.143-.116c-.085-.067-.171-.135-.257-.2l-.154-.116c-.085-.064-.171-.125-.257-.186l-.153-.108c-.093-.063-.186-.125-.279-.185l-.133-.087c-.138-.087-.277-.172-.417-.252s-.307-.172-.457-.252l2.391-1.389c.151.079.3.162.458.251.139.08.278.165.416.252.045.028.089.058.133.087.093.061.187.122.279.186.052.035.1.071.154.107.086.061.171.123.256.186l.155.116c.086.066.171.133.256.2l.144.115c.1.079.191.159.285.241.035.03.071.059.106.09.129.113.256.228.383.346l.078.075c.085.08.169.16.252.242l.036.037c.15.148.3.3.443.454l.023.026c.138.147.273.3.407.449l.039.044c.052.06.1.122.155.183l.165.2.2.245c.052.066.1.131.156.2l.03.037q.148.192.293.388l.01.014c.093.126.184.252.274.38l.021.031c.15.216.3.434.439.656.013.021.028.042.042.063l.059.1c.115.182.227.365.336.551.018.028.036.056.053.085l.018.033c.124.213.243.428.36.645.009.018.02.035.029.053.019.035.036.072.055.108q.135.258.264.521l.055.108c.01.022.019.044.029.065q.159.332.305.666l.01.022c.064.147.126.3.186.444l.048.12c.028.071.057.142.084.214.02.051.038.1.058.154s.038.1.056.153c.05.136.1.272.144.409.01.027.019.054.028.081l.008.021q.079.238.151.477c.014.045.026.089.039.133.027.091.054.182.08.274.008.029.014.058.022.087.02.074.039.148.059.223.025.1.05.2.074.3.018.076.035.152.052.227.012.053.025.107.036.159s.014.075.022.113c.023.113.045.226.065.339.015.079.029.158.042.236.02.117.036.233.053.35.008.055.018.11.025.165,0,.023.005.046.008.069l.018.159c.013.112.024.223.034.334.005.057.01.115.014.171.008.113.015.225.02.336,0,.051.006.1.008.151q.009.24.009.477c-.008,2.733-.973,4.655-2.529,5.56l-2.392,1.39c1.556-.905,2.522-2.828,2.529-5.561,0-.157,0-.316-.009-.476C1304.486,691.154,1304.483,691.1,1304.481,691.053Z" fill="url(#linear-gradient-15)"/>
        <g id="Grupo_132855" data-name="Grupo 132855">
          <g id="Grupo_132854" data-name="Grupo 132854">
            <path id="Trazado_193901" data-name="Trazado 193901" d="M1295.853,676.71c-.153-.089-.307-.172-.457-.252l.437,7.392a5.4,5.4,0,0,1,2.45,4.242c0,1.435-.94,2.083-2.149,1.563l-1.392,6.3a12.516,12.516,0,0,0,1.055.683c4.789,2.765,8.685.547,8.7-4.956S1300.642,679.474,1295.853,676.71Z" fill="#fff"/>
          </g>
        </g>
        <g id="Grupo_132856" data-name="Grupo 132856">
          <path id="Trazado_193902" data-name="Trazado 193902" d="M1286.178,676.527a8.979,8.979,0,0,0-1.134,4.671,20,20,0,0,0,2.464,9.067l1.024-.622,4.419-2.68a4.3,4.3,0,0,1-.228-1.331,2.3,2.3,0,0,1,.2-1l-5.464-6.566Z" fill="url(#linear-gradient-16)"/>
        </g>
        <path id="Trazado_193903" data-name="Trazado 193903" d="M1286.823,676.15l6.747,8.108-.646.377-6.747-8.108Z" fill="url(#linear-gradient-17)"/>
      </g>
      <g id="Grupo_132858" data-name="Grupo 132858">
        <path id="Trazado_193904" data-name="Trazado 193904" d="M1327.107,694.013l-15.7-8.538a1.226,1.226,0,0,1-.619-.952h0c0-.34.279-.469.619-.287l15.7,8.539a1.226,1.226,0,0,1,.619.952h0C1327.726,694.067,1327.447,694.2,1327.107,694.013Z" fill="url(#linear-gradient-18)"/>
        <path id="Trazado_193905" data-name="Trazado 193905" d="M1327.107,697.312l-18.724-10.164a1.226,1.226,0,0,1-.619-.952h0c0-.34.279-.469.619-.286l18.724,10.164a1.226,1.226,0,0,1,.619.952h0C1327.726,697.366,1327.447,697.495,1327.107,697.312Z" fill="url(#linear-gradient-19)"/>
        <path id="Trazado_193906" data-name="Trazado 193906" d="M1327.107,700.611l-18.724-10.164a1.226,1.226,0,0,1-.619-.952h0c0-.34.279-.469.619-.286l18.724,10.164a1.226,1.226,0,0,1,.619.952h0C1327.726,700.665,1327.447,700.794,1327.107,700.611Z" fill="url(#linear-gradient-20)"/>
        <path id="Trazado_193907" data-name="Trazado 193907" d="M1327.107,703.91l-18.724-10.164a1.226,1.226,0,0,1-.619-.952h0c0-.34.279-.469.619-.286l18.724,10.164a1.226,1.226,0,0,1,.619.952h0C1327.726,703.964,1327.447,704.093,1327.107,703.91Z" fill="url(#linear-gradient-21)"/>
        <path id="Trazado_193908" data-name="Trazado 193908" d="M1327.107,707.209l-18.724-10.164a1.226,1.226,0,0,1-.619-.952h0c0-.34.279-.469.619-.287l18.724,10.165a1.226,1.226,0,0,1,.619.951h0C1327.726,707.263,1327.447,707.392,1327.107,707.209Z" fill="url(#linear-gradient-22)"/>
        <path id="Trazado_193909" data-name="Trazado 193909" d="M1323.339,708.607l-14.956-8.142a1.225,1.225,0,0,1-.619-.951h0c0-.341.279-.47.619-.287l14.956,8.142a1.226,1.226,0,0,1,.619.951h0C1323.958,708.661,1323.679,708.79,1323.339,708.607Z" fill="url(#linear-gradient-23)"/>
      </g>
    </g>
  </g>
</svg>
