<svg xmlns="http://www.w3.org/2000/svg" width="140" height="140" viewBox="0 0 140 140">
  <g id="Grupo_148145" data-name="Grupo 148145" transform="translate(5293 10783.964)">
    <circle id="Elipse_5267" data-name="Elipse 5267" cx="70" cy="70" r="70" transform="translate(-5293 -10783.964)" fill="#ffb30b"/>
    <circle id="Elipse_5268" data-name="Elipse 5268" cx="60" cy="60" r="60" transform="translate(-5283 -10773.964)" fill="#fff"/>
    <path id="Trazado_194297" data-name="Trazado 194297" d="M-113.075,24.754v2.711h6.088a2.26,2.26,0,0,0,2.143-1.54l1.207-3.587a2.261,2.261,0,0,1,2.144-1.54h19.315a2.261,2.261,0,0,1,2.261,2.261v1.055a2.261,2.261,0,0,1-2.261,2.26H-96.684a2.261,2.261,0,0,0-2.26,2.26v.945a2.261,2.261,0,0,1-2.26,2.26h-11.87V33.5h-18.878V24.754Z" transform="translate(-5122.169 -10761.234)" fill="#1a1a1a"/>
    <path id="Trazado_194298" data-name="Trazado 194298" d="M-113.075,82.264v1.663h11.87a2.261,2.261,0,0,1,2.26,2.261v.944a2.261,2.261,0,0,0,2.26,2.261h14.505a2.26,2.26,0,0,1,2.261,2.26v1.055a2.261,2.261,0,0,1-2.261,2.26h-19.315a2.262,2.262,0,0,1-2.144-1.539l-1.207-3.588a2.26,2.26,0,0,0-2.143-1.539h-6.088v2.711h-18.878V82.264Z" transform="translate(-5122.169 -10765.665)" fill="#1a1a1a"/>
    <path id="Trazado_194299" data-name="Trazado 194299" d="M-116.818,44.39a2.245,2.245,0,0,0,2.122-1.518,2.243,2.243,0,0,0-1.4-2.849l-13.159-4.5a2.243,2.243,0,0,0-2.849,1.4,2.243,2.243,0,0,0,1.4,2.849l13.16,4.5A2.232,2.232,0,0,0-116.818,44.39Z" transform="translate(-5122.15 -10762.287)" fill="#1a1a1a"/>
    <path id="Trazado_194300" data-name="Trazado 194300" d="M-116.818,51.653a2.244,2.244,0,0,0,2.122-1.517,2.244,2.244,0,0,0-1.4-2.85l-13.159-4.5a2.243,2.243,0,0,0-2.849,1.4,2.243,2.243,0,0,0,1.4,2.849l13.16,4.5A2.232,2.232,0,0,0-116.818,51.653Z" transform="translate(-5122.15 -10762.811)" fill="#1a1a1a"/>
    <path id="Trazado_194301" data-name="Trazado 194301" d="M-116.818,58.916A2.244,2.244,0,0,0-114.7,57.4a2.244,2.244,0,0,0-1.4-2.85l-13.159-4.5a2.243,2.243,0,0,0-2.849,1.4,2.243,2.243,0,0,0,1.4,2.849l13.16,4.5A2.232,2.232,0,0,0-116.818,58.916Z" transform="translate(-5122.15 -10763.334)" fill="#1a1a1a"/>
    <path id="Trazado_194302" data-name="Trazado 194302" d="M-116.818,66.179a2.244,2.244,0,0,0,2.122-1.517,2.243,2.243,0,0,0-1.4-2.849l-13.159-4.5a2.243,2.243,0,0,0-2.849,1.4,2.244,2.244,0,0,0,1.4,2.85l13.16,4.5A2.232,2.232,0,0,0-116.818,66.179Z" transform="translate(-5122.15 -10763.857)" fill="#1a1a1a"/>
    <path id="Trazado_194303" data-name="Trazado 194303" d="M-116.818,73.442a2.245,2.245,0,0,0,2.122-1.518,2.243,2.243,0,0,0-1.4-2.849l-13.159-4.5a2.243,2.243,0,0,0-2.849,1.4,2.244,2.244,0,0,0,1.4,2.85l13.16,4.5A2.257,2.257,0,0,0-116.818,73.442Z" transform="translate(-5122.15 -10764.381)" fill="#1a1a1a"/>
    <path id="Trazado_194304" data-name="Trazado 194304" d="M-116.714,45.512v.648l-12.129-4.151a2.936,2.936,0,0,0-.879-.159V41.2l12.128,4.151A2.947,2.947,0,0,0-116.714,45.512Z" transform="translate(-5122.33 -10762.706)" fill="#1a1a1a"/>
    <path id="Trazado_194305" data-name="Trazado 194305" d="M-129.722,63.641v-.649l12.128,4.152a2.947,2.947,0,0,0,.88.158v.649L-128.843,63.8A2.935,2.935,0,0,0-129.722,63.641Z" transform="translate(-5122.33 -10764.276)" fill="#1a1a1a"/>
    <path id="Trazado_194306" data-name="Trazado 194306" d="M-116.714,52.775v.649l-12.129-4.152a2.935,2.935,0,0,0-.879-.158v-.649l12.128,4.152A2.946,2.946,0,0,0-116.714,52.775Z" transform="translate(-5122.33 -10763.229)" fill="#1a1a1a"/>
    <path id="Trazado_194307" data-name="Trazado 194307" d="M-129.722,56.378v-.649l12.128,4.152a2.946,2.946,0,0,0,.88.158v.649l-12.129-4.152A2.935,2.935,0,0,0-129.722,56.378Z" transform="translate(-5122.33 -10763.753)" fill="#1a1a1a"/>
    <path id="Trazado_194308" data-name="Trazado 194308" d="M-129.722,70.9v-.648l12.128,4.151a2.946,2.946,0,0,0,.88.158v.649l-12.129-4.151A2.936,2.936,0,0,0-129.722,70.9Z" transform="translate(-5122.33 -10764.8)" fill="#1a1a1a"/>
    <path id="Trazado_194309" data-name="Trazado 194309" d="M-119.19,81.124h-10.533V77.519Z" transform="translate(-5122.33 -10765.323)" fill="#1a1a1a"/>
    <path id="Trazado_194310" data-name="Trazado 194310" d="M-127.055,35.4h10.533V39Z" transform="translate(-5122.522 -10762.287)" fill="#1a1a1a"/>
    <path id="Trazado_194311" data-name="Trazado 194311" d="M-116.818,80.706a2.245,2.245,0,0,0,2.122-1.518,2.243,2.243,0,0,0-1.4-2.849l-13.159-4.5a2.243,2.243,0,0,0-2.849,1.4,2.243,2.243,0,0,0,1.4,2.849l13.16,4.5A2.232,2.232,0,0,0-116.818,80.706Z" transform="translate(-5122.15 -10764.904)" fill="#1a1a1a"/>
    <rect id="Rectángulo_296843" data-name="Rectángulo 296843" width="9.284" height="13.288" transform="translate(-5240.906 -10737.37) rotate(180)" fill="#1a1a1a"/>
    <path id="Trazado_194312" data-name="Trazado 194312" d="M-140.008,8.167h31.724a2.59,2.59,0,0,0,2.59-2.59h0a2.59,2.59,0,0,0-2.59-2.59h-31.724a2.59,2.59,0,0,0-2.59,2.59h0A2.59,2.59,0,0,0-140.008,8.167Z" transform="translate(-5121.402 -10759.951)" fill="#1a1a1a"/>
    <path id="Trazado_194314" data-name="Trazado 194314" d="M-68.647,44.943V33.688a2.267,2.267,0,0,0-2.57-2.219h-6.158v.816h-.613a.022.022,0,0,1-.019-.019.38.38,0,0,0-.07-.163.249.249,0,0,0-.2-.1.216.216,0,0,0-.118.033c-.07.044-.135.084-.212.041a.246.246,0,0,1-.111-.215v-.018a.243.243,0,0,1,.111-.214c.078-.044.143,0,.212.041a.225.225,0,0,0,.118.033.249.249,0,0,0,.2-.1.387.387,0,0,0,.06-.124h-.1a.209.209,0,0,1-.082.088c-.078.044-.143,0-.213-.041a.219.219,0,0,0-.118-.033.249.249,0,0,0-.2.1.38.38,0,0,0-.07.163.022.022,0,0,1-.019.019h-.613v-.3H-82.56v.786h-.613a.021.021,0,0,1-.019-.019.384.384,0,0,0-.07-.164.247.247,0,0,0-.2-.1.227.227,0,0,0-.118.033c-.07.044-.135.084-.213.041a.243.243,0,0,1-.111-.214V31.81a.246.246,0,0,1,.111-.215c.078-.044.143,0,.213.041a.219.219,0,0,0,.118.033.247.247,0,0,0,.2-.1.342.342,0,0,0,.05-.095h-.112a.209.209,0,0,1-.063.058c-.079.044-.144,0-.213-.041a.171.171,0,0,0-.037-.018H-83.8a.265.265,0,0,0-.119.089.374.374,0,0,0-.071.164.021.021,0,0,1-.019.019h-.613v-.272h-7.429V81.45h35.412V44.943Zm-9.361-12.5a.021.021,0,0,1,.019-.019h.613V33.3h-.613a.022.022,0,0,1-.019-.019.385.385,0,0,0-.07-.163.249.249,0,0,0-.2-.1.225.225,0,0,0-.118.033c-.07.044-.135.084-.212.041a.244.244,0,0,1-.111-.215v-.017a.244.244,0,0,1,.111-.215c.078-.044.143,0,.212.041a.216.216,0,0,0,.118.033.249.249,0,0,0,.2-.1A.385.385,0,0,0-78.007,32.443Zm.019,18.062a.021.021,0,0,1-.019-.019.384.384,0,0,0-.07-.164.249.249,0,0,0-.2-.1.225.225,0,0,0-.118.033c-.07.045-.135.084-.212.041a.243.243,0,0,1-.111-.214V50.06a.246.246,0,0,1,.111-.215c.078-.044.143,0,.212.041a.216.216,0,0,0,.118.033.249.249,0,0,0,.2-.1.38.38,0,0,0,.07-.163.022.022,0,0,1,.019-.019h.613v.874Zm.613.14v.417l-.438-.212a1.406,1.406,0,0,0-.226-.087.381.381,0,0,0,.032-.1.021.021,0,0,1,.019-.019Zm-.613-1.153a.021.021,0,0,1-.019-.019.385.385,0,0,0-.07-.163.249.249,0,0,0-.2-.1.225.225,0,0,0-.118.033c-.07.044-.135.084-.212.041a.244.244,0,0,1-.111-.215v-.017a.244.244,0,0,1,.111-.215c.078-.044.143,0,.212.041a.216.216,0,0,0,.118.033.249.249,0,0,0,.2-.1.385.385,0,0,0,.07-.163.022.022,0,0,1,.019-.019h.613v.874Zm0-1.013a.022.022,0,0,1-.019-.019.38.38,0,0,0-.07-.163.249.249,0,0,0-.2-.1.216.216,0,0,0-.118.033c-.07.044-.135.084-.212.041a.246.246,0,0,1-.111-.215v-.018a.243.243,0,0,1,.111-.214c.078-.044.143,0,.212.041a.225.225,0,0,0,.118.033.249.249,0,0,0,.2-.1.384.384,0,0,0,.07-.164.021.021,0,0,1,.019-.019h.613v.874Zm0-1.013a.022.022,0,0,1-.019-.019.375.375,0,0,0-.07-.163.25.25,0,0,0-.2-.106.217.217,0,0,0-.118.034c-.07.044-.135.084-.212.041a.246.246,0,0,1-.111-.215v-.018A.243.243,0,0,1-78.6,46.8c.078-.045.143,0,.212.04a.217.217,0,0,0,.118.034.25.25,0,0,0,.2-.106.375.375,0,0,0,.07-.163.022.022,0,0,1,.019-.019h.613v.875Zm0-1.014a.021.021,0,0,1-.019-.019.384.384,0,0,0-.07-.164.249.249,0,0,0-.2-.1.225.225,0,0,0-.118.033c-.07.044-.135.084-.212.041a.243.243,0,0,1-.111-.214v-.018a.246.246,0,0,1,.111-.215c.078-.044.143,0,.212.041a.216.216,0,0,0,.118.033.249.249,0,0,0,.2-.1.38.38,0,0,0,.07-.163.022.022,0,0,1,.019-.019h.613v.874Zm0-1.013a.022.022,0,0,1-.019-.019.38.38,0,0,0-.07-.163.249.249,0,0,0-.2-.1.216.216,0,0,0-.118.033c-.07.044-.135.084-.212.041a.244.244,0,0,1-.111-.215v-.017a.244.244,0,0,1,.111-.215c.078-.044.143,0,.212.041a.225.225,0,0,0,.118.033.249.249,0,0,0,.2-.1.385.385,0,0,0,.07-.163.021.021,0,0,1,.019-.019h.613v.874Zm0-1.013a.022.022,0,0,1-.019-.019.38.38,0,0,0-.07-.163.249.249,0,0,0-.2-.1.216.216,0,0,0-.118.033c-.07.044-.135.084-.212.041A.246.246,0,0,1-78.715,44v-.018a.243.243,0,0,1,.111-.214c.078-.044.143,0,.212.04a.217.217,0,0,0,.118.034.249.249,0,0,0,.2-.1.384.384,0,0,0,.07-.164.021.021,0,0,1,.019-.019h.613v.874Zm0-1.014a.021.021,0,0,1-.019-.019.384.384,0,0,0-.07-.164.249.249,0,0,0-.2-.1.217.217,0,0,0-.118.034c-.07.044-.135.084-.212.04a.243.243,0,0,1-.111-.214v-.018a.246.246,0,0,1,.111-.215c.078-.044.143,0,.212.041a.216.216,0,0,0,.118.033.249.249,0,0,0,.2-.1.38.38,0,0,0,.07-.163.022.022,0,0,1,.019-.019h.613v.874Zm0-1.013a.021.021,0,0,1-.019-.019.385.385,0,0,0-.07-.163.249.249,0,0,0-.2-.1.225.225,0,0,0-.118.033c-.07.044-.135.084-.212.041a.244.244,0,0,1-.111-.215v-.017a.245.245,0,0,1,.111-.215c.078-.044.143,0,.212.041a.216.216,0,0,0,.118.033.249.249,0,0,0,.2-.1.38.38,0,0,0,.07-.163.022.022,0,0,1,.019-.019h.613V42.4Zm0-1.013a.022.022,0,0,1-.019-.019.38.38,0,0,0-.07-.163.249.249,0,0,0-.2-.1.216.216,0,0,0-.118.033c-.07.044-.135.084-.212.041a.246.246,0,0,1-.111-.215v-.018a.243.243,0,0,1,.111-.214c.078-.044.143,0,.212.041a.225.225,0,0,0,.118.033.249.249,0,0,0,.2-.1.384.384,0,0,0,.07-.164.021.021,0,0,1,.019-.019h.613v.874Zm0-1.013a.022.022,0,0,1-.019-.019.375.375,0,0,0-.07-.163.25.25,0,0,0-.2-.106.217.217,0,0,0-.118.034c-.07.044-.135.084-.212.04a.243.243,0,0,1-.111-.214v-.018a.243.243,0,0,1,.111-.214c.078-.045.143,0,.212.04a.217.217,0,0,0,.118.034.25.25,0,0,0,.2-.106.375.375,0,0,0,.07-.163.021.021,0,0,1,.019-.019h.613v.874Zm0-1.014a.021.021,0,0,1-.019-.019.384.384,0,0,0-.07-.164.249.249,0,0,0-.2-.1.225.225,0,0,0-.118.033c-.07.044-.135.084-.212.041a.243.243,0,0,1-.111-.214v-.018A.246.246,0,0,1-78.6,38.7c.078-.044.143,0,.212.041a.216.216,0,0,0,.118.033.249.249,0,0,0,.2-.1.38.38,0,0,0,.07-.163.022.022,0,0,1,.019-.019h.613v.874Zm0-1.013a.022.022,0,0,1-.019-.019.385.385,0,0,0-.07-.163.249.249,0,0,0-.2-.1.216.216,0,0,0-.118.033c-.07.044-.135.084-.212.041a.244.244,0,0,1-.111-.215V37.9a.244.244,0,0,1,.111-.215c.078-.044.143,0,.212.041a.225.225,0,0,0,.118.033.249.249,0,0,0,.2-.1.385.385,0,0,0,.07-.163.021.021,0,0,1,.019-.019h.613v.874Zm0-1.013a.022.022,0,0,1-.019-.019.38.38,0,0,0-.07-.163.249.249,0,0,0-.2-.1.216.216,0,0,0-.118.033c-.07.044-.135.084-.212.041a.246.246,0,0,1-.111-.215v-.018a.243.243,0,0,1,.111-.214c.078-.044.143,0,.212.041a.225.225,0,0,0,.118.033.249.249,0,0,0,.2-.1.384.384,0,0,0,.07-.164.021.021,0,0,1,.019-.019h.613v.874Zm0-1.014a.021.021,0,0,1-.019-.019.384.384,0,0,0-.07-.164.251.251,0,0,0-.2-.1.217.217,0,0,0-.118.034c-.07.044-.135.084-.212.04a.243.243,0,0,1-.111-.214V35.87a.246.246,0,0,1,.111-.215c.078-.044.143,0,.212.041a.216.216,0,0,0,.118.033.249.249,0,0,0,.2-.1.38.38,0,0,0,.07-.163.022.022,0,0,1,.019-.019h.613v.874Zm0-1.013a.021.021,0,0,1-.019-.019.385.385,0,0,0-.07-.163.249.249,0,0,0-.2-.1.225.225,0,0,0-.118.033c-.07.044-.135.084-.212.041a.243.243,0,0,1-.111-.214v-.018a.245.245,0,0,1,.111-.215c.078-.044.143,0,.212.041a.216.216,0,0,0,.118.033.249.249,0,0,0,.2-.1.38.38,0,0,0,.07-.163.022.022,0,0,1,.019-.019h.613V35.3Zm0-.991a.021.021,0,0,1-.019-.019.384.384,0,0,0-.07-.164.249.249,0,0,0-.2-.1.225.225,0,0,0-.118.033c-.07.045-.135.084-.212.041a.243.243,0,0,1-.111-.214v-.018a.246.246,0,0,1,.111-.215c.078-.044.143,0,.212.041a.216.216,0,0,0,.118.033.249.249,0,0,0,.2-.1.38.38,0,0,0,.07-.163.022.022,0,0,1,.019-.019h.613v.874Zm-1.445-2.4h.613a.022.022,0,0,1,.019.019.385.385,0,0,0,.07.163.249.249,0,0,0,.2.1.219.219,0,0,0,.118-.033c.07-.044.135-.084.213-.041a.245.245,0,0,1,.111.215v.017a.244.244,0,0,1-.111.215c-.078.044-.143,0-.213-.041a.227.227,0,0,0-.118-.033.249.249,0,0,0-.2.1.385.385,0,0,0-.07.163.021.021,0,0,1-.019.019h-.613Zm0,1.013h.613a.022.022,0,0,1,.019.019.38.38,0,0,0,.07.163.249.249,0,0,0,.2.1.219.219,0,0,0,.118-.033c.07-.044.135-.084.213-.041a.246.246,0,0,1,.111.215v.018a.243.243,0,0,1-.111.214c-.078.044-.143,0-.213-.041a.227.227,0,0,0-.118-.033.249.249,0,0,0-.2.1.384.384,0,0,0-.07.164.021.021,0,0,1-.019.019h-.613Zm0,1.014h.613a.021.021,0,0,1,.019.019.384.384,0,0,0,.07.164.251.251,0,0,0,.2.1.227.227,0,0,0,.118-.033c.07-.045.135-.084.213-.041a.243.243,0,0,1,.111.214v.018a.246.246,0,0,1-.111.215c-.078.044-.143,0-.213-.041a.219.219,0,0,0-.118-.033.249.249,0,0,0-.2.1.38.38,0,0,0-.07.163.022.022,0,0,1-.019.019h-.613Zm0,.99h.613a.022.022,0,0,1,.019.019.375.375,0,0,0,.07.163.249.249,0,0,0,.2.1.219.219,0,0,0,.118-.033c.07-.044.135-.084.213-.041a.246.246,0,0,1,.111.215v.018a.243.243,0,0,1-.111.214c-.078.044-.143,0-.213-.04a.22.22,0,0,0-.118-.034.251.251,0,0,0-.2.1.384.384,0,0,0-.07.164.021.021,0,0,1-.019.019h-.613Zm0,1.014h.613a.021.021,0,0,1,.019.019.384.384,0,0,0,.07.164.249.249,0,0,0,.2.1.227.227,0,0,0,.118-.033c.07-.045.135-.084.213-.041a.243.243,0,0,1,.111.214v.018a.246.246,0,0,1-.111.215c-.078.044-.143,0-.213-.041a.219.219,0,0,0-.118-.033.249.249,0,0,0-.2.1.38.38,0,0,0-.07.163.022.022,0,0,1-.019.019h-.613Zm0,1.013h.613a.022.022,0,0,1,.019.019.385.385,0,0,0,.07.163.249.249,0,0,0,.2.1.227.227,0,0,0,.118-.033c.07-.044.135-.084.213-.041a.244.244,0,0,1,.111.215V37.4a.244.244,0,0,1-.111.215c-.078.044-.143,0-.213-.041a.219.219,0,0,0-.118-.033.249.249,0,0,0-.2.1.385.385,0,0,0-.07.163.021.021,0,0,1-.019.019h-.613Zm0,1.013h.613a.022.022,0,0,1,.019.019.38.38,0,0,0,.07.163.249.249,0,0,0,.2.1.219.219,0,0,0,.118-.033c.07-.044.135-.084.213-.041a.246.246,0,0,1,.111.215v.018a.243.243,0,0,1-.111.214c-.078.044-.143,0-.213-.041a.227.227,0,0,0-.118-.033.249.249,0,0,0-.2.1.384.384,0,0,0-.07.164.021.021,0,0,1-.019.019h-.613Zm0,1.014h.613A.021.021,0,0,1-78.8,39a.384.384,0,0,0,.07.164.251.251,0,0,0,.2.1.22.22,0,0,0,.118-.034c.07-.044.135-.084.213-.04a.243.243,0,0,1,.111.214v.018a.246.246,0,0,1-.111.215c-.078.044-.143,0-.213-.041a.219.219,0,0,0-.118-.033.249.249,0,0,0-.2.1.38.38,0,0,0-.07.163.022.022,0,0,1-.019.019h-.613Zm0,1.013h.613a.021.021,0,0,1,.019.019.384.384,0,0,0,.07.164.249.249,0,0,0,.2.1.227.227,0,0,0,.118-.033c.07-.044.135-.084.213-.041a.243.243,0,0,1,.111.214v.018a.245.245,0,0,1-.111.215c-.078.044-.143,0-.213-.041a.219.219,0,0,0-.118-.033.249.249,0,0,0-.2.1.38.38,0,0,0-.07.163.022.022,0,0,1-.019.019h-.613Zm0,1.013h.613a.022.022,0,0,1,.019.019.38.38,0,0,0,.07.163.249.249,0,0,0,.2.1.219.219,0,0,0,.118-.033c.07-.044.135-.084.213-.041a.245.245,0,0,1,.111.215v.018a.243.243,0,0,1-.111.214c-.078.044-.143,0-.213-.041a.227.227,0,0,0-.118-.033.249.249,0,0,0-.2.1.385.385,0,0,0-.07.163.021.021,0,0,1-.019.019h-.613Zm0,1.013h.613a.022.022,0,0,1,.019.019.38.38,0,0,0,.07.163.249.249,0,0,0,.2.1.219.219,0,0,0,.118-.033c.07-.044.135-.084.213-.041a.246.246,0,0,1,.111.215v.018a.243.243,0,0,1-.111.214c-.078.044-.143,0-.213-.04a.22.22,0,0,0-.118-.034.251.251,0,0,0-.2.1.384.384,0,0,0-.07.164.021.021,0,0,1-.019.019h-.613Zm0,1.014h.613a.021.021,0,0,1,.019.019.384.384,0,0,0,.07.164.249.249,0,0,0,.2.1.227.227,0,0,0,.118-.033c.07-.045.135-.084.213-.041a.243.243,0,0,1,.111.214v.018a.246.246,0,0,1-.111.215c-.078.044-.143,0-.213-.041a.219.219,0,0,0-.118-.033.249.249,0,0,0-.2.1.38.38,0,0,0-.07.163.022.022,0,0,1-.019.019h-.613Zm0,1.013h.613a.022.022,0,0,1,.019.019.385.385,0,0,0,.07.163.249.249,0,0,0,.2.1.227.227,0,0,0,.118-.033c.07-.044.135-.084.213-.041a.244.244,0,0,1,.111.215V44.5a.244.244,0,0,1-.111.215c-.078.044-.143,0-.213-.041a.219.219,0,0,0-.118-.033.249.249,0,0,0-.2.1.385.385,0,0,0-.07.163.022.022,0,0,1-.019.019h-.613Zm0,1.013h.613a.022.022,0,0,1,.019.019.38.38,0,0,0,.07.163.249.249,0,0,0,.2.1.219.219,0,0,0,.118-.033c.07-.044.135-.084.213-.041a.246.246,0,0,1,.111.215v.018a.243.243,0,0,1-.111.214c-.078.044-.143,0-.213-.041a.227.227,0,0,0-.118-.033.249.249,0,0,0-.2.1.384.384,0,0,0-.07.164.021.021,0,0,1-.019.019h-.613Zm0,1.014h.613a.021.021,0,0,1,.019.019.375.375,0,0,0,.07.163.25.25,0,0,0,.2.106.22.22,0,0,0,.118-.034c.07-.044.135-.084.213-.04a.243.243,0,0,1,.111.214v.018a.246.246,0,0,1-.111.215c-.078.044-.143,0-.213-.041a.22.22,0,0,0-.118-.034.25.25,0,0,0-.2.106.375.375,0,0,0-.07.163.022.022,0,0,1-.019.019h-.613Zm0,1.013h.613a.021.021,0,0,1,.019.019.385.385,0,0,0,.07.163.249.249,0,0,0,.2.1.227.227,0,0,0,.118-.033c.07-.044.135-.084.213-.041a.243.243,0,0,1,.111.214v.018a.245.245,0,0,1-.111.215c-.078.044-.143,0-.213-.041a.219.219,0,0,0-.118-.033.249.249,0,0,0-.2.1.38.38,0,0,0-.07.163.022.022,0,0,1-.019.019h-.613Zm0,1.013h.613a.022.022,0,0,1,.019.019.38.38,0,0,0,.07.163.249.249,0,0,0,.2.1.219.219,0,0,0,.118-.033c.07-.044.135-.084.213-.041a.245.245,0,0,1,.111.215v.018a.243.243,0,0,1-.111.214c-.078.044-.143,0-.213-.041a.227.227,0,0,0-.118-.033.249.249,0,0,0-.2.1.385.385,0,0,0-.07.163.021.021,0,0,1-.019.019h-.613Zm0,1.013h.613a.022.022,0,0,1,.019.019.375.375,0,0,0,.07.163.249.249,0,0,0,.2.1.219.219,0,0,0,.118-.033c.07-.044.135-.084.213-.041a.246.246,0,0,1,.111.215v.018a.243.243,0,0,1-.111.214c-.078.044-.143,0-.213-.04a.22.22,0,0,0-.118-.034.251.251,0,0,0-.2.1.384.384,0,0,0-.07.164.021.021,0,0,1-.019.019h-.613Zm0,1.014h.613a.021.021,0,0,1,.019.019.384.384,0,0,0,.07.164.249.249,0,0,0,.2.1.227.227,0,0,0,.118-.033c.07-.045.135-.084.213-.041a.243.243,0,0,1,.111.214v.018a.273.273,0,0,1-.051.161,1.365,1.365,0,0,0-.261-.026,1.155,1.155,0,0,0-.127.006h0a.223.223,0,0,0-.056.006,1.386,1.386,0,0,0-.406.125l-.32.156h-.118Zm-3.76-17.718a.021.021,0,0,1,.019-.019h.613v.874h-.613a.022.022,0,0,1-.019-.019.375.375,0,0,0-.07-.163.248.248,0,0,0-.2-.106.22.22,0,0,0-.118.034c-.07.044-.135.084-.213.041a.246.246,0,0,1-.111-.215v-.018a.243.243,0,0,1,.111-.214c.078-.045.143,0,.213.04a.22.22,0,0,0,.118.034.25.25,0,0,0,.2-.1A.384.384,0,0,0-83.193,32.414Zm.019,18.063a.022.022,0,0,1-.019-.019.38.38,0,0,0-.07-.163.247.247,0,0,0-.2-.1.219.219,0,0,0-.118.033c-.07.044-.135.084-.213.041a.245.245,0,0,1-.111-.215V50.03a.243.243,0,0,1,.111-.214c.078-.044.143,0,.213.041a.227.227,0,0,0,.118.033.247.247,0,0,0,.2-.1.385.385,0,0,0,.07-.163.021.021,0,0,1,.019-.019h.613v.874Zm.613.139v.418L-83,50.82a1.493,1.493,0,0,0-.226-.086.393.393,0,0,0,.032-.1.022.022,0,0,1,.019-.019Zm-.613-1.152a.022.022,0,0,1-.019-.019.375.375,0,0,0-.07-.163.248.248,0,0,0-.2-.106.22.22,0,0,0-.118.034c-.07.044-.135.084-.213.041a.246.246,0,0,1-.111-.215v-.018a.243.243,0,0,1,.111-.214c.078-.044.143,0,.213.04a.22.22,0,0,0,.118.034.25.25,0,0,0,.2-.1.384.384,0,0,0,.07-.164.021.021,0,0,1,.019-.019h.613v.874Zm0-1.014a.021.021,0,0,1-.019-.019.384.384,0,0,0-.07-.164.247.247,0,0,0-.2-.1.227.227,0,0,0-.118.033c-.07.045-.135.084-.213.041a.243.243,0,0,1-.111-.214V48a.246.246,0,0,1,.111-.215c.078-.044.143,0,.213.041a.219.219,0,0,0,.118.033.247.247,0,0,0,.2-.1.38.38,0,0,0,.07-.163.022.022,0,0,1,.019-.019h.613v.874Zm0-1.013a.022.022,0,0,1-.019-.019.385.385,0,0,0-.07-.163.247.247,0,0,0-.2-.1.219.219,0,0,0-.118.033c-.07.044-.135.084-.213.041a.244.244,0,0,1-.111-.215V46.99a.244.244,0,0,1,.111-.215c.078-.044.143,0,.213.041a.227.227,0,0,0,.118.033.247.247,0,0,0,.2-.1.385.385,0,0,0,.07-.163.021.021,0,0,1,.019-.019h.613v.874Zm0-1.013a.022.022,0,0,1-.019-.019.38.38,0,0,0-.07-.163.247.247,0,0,0-.2-.1.219.219,0,0,0-.118.033c-.07.044-.135.084-.213.041a.246.246,0,0,1-.111-.215v-.018a.243.243,0,0,1,.111-.214c.078-.044.143,0,.213.041a.227.227,0,0,0,.118.033.247.247,0,0,0,.2-.1.384.384,0,0,0,.07-.164.021.021,0,0,1,.019-.019h.613v.874Zm0-1.014a.021.021,0,0,1-.019-.019.384.384,0,0,0-.07-.164.25.25,0,0,0-.2-.1.22.22,0,0,0-.118.034c-.07.044-.135.084-.213.04a.243.243,0,0,1-.111-.214v-.018a.243.243,0,0,1,.111-.214c.078-.045.143,0,.213.04a.219.219,0,0,0,.118.033.247.247,0,0,0,.2-.1.375.375,0,0,0,.07-.163.022.022,0,0,1,.019-.019h.613v.874Zm0-1.013a.021.021,0,0,1-.019-.019.385.385,0,0,0-.07-.163.247.247,0,0,0-.2-.1.227.227,0,0,0-.118.033c-.07.044-.135.084-.213.041a.243.243,0,0,1-.111-.214V43.95a.245.245,0,0,1,.111-.215c.078-.044.143,0,.213.041a.219.219,0,0,0,.118.033.247.247,0,0,0,.2-.1.38.38,0,0,0,.07-.163.022.022,0,0,1,.019-.019h.613v.874Zm0-1.013a.022.022,0,0,1-.019-.019.38.38,0,0,0-.07-.163.247.247,0,0,0-.2-.1.219.219,0,0,0-.118.033c-.07.044-.135.084-.213.041a.245.245,0,0,1-.111-.215v-.018a.243.243,0,0,1,.111-.214c.078-.044.143,0,.213.041a.227.227,0,0,0,.118.033.247.247,0,0,0,.2-.1.385.385,0,0,0,.07-.163.021.021,0,0,1,.019-.019h.613v.874Zm0-1.013a.022.022,0,0,1-.019-.019.375.375,0,0,0-.07-.163.247.247,0,0,0-.2-.1.219.219,0,0,0-.118.033c-.07.044-.135.084-.213.041a.246.246,0,0,1-.111-.215v-.018a.243.243,0,0,1,.111-.214c.078-.044.143,0,.213.04a.22.22,0,0,0,.118.034.247.247,0,0,0,.2-.1.384.384,0,0,0,.07-.164.021.021,0,0,1,.019-.019h.613v.874Zm0-1.014a.021.021,0,0,1-.019-.019.384.384,0,0,0-.07-.164.247.247,0,0,0-.2-.1.227.227,0,0,0-.118.033c-.07.045-.135.084-.213.041a.243.243,0,0,1-.111-.214v-.018a.246.246,0,0,1,.111-.215c.078-.044.143,0,.213.041a.219.219,0,0,0,.118.033.247.247,0,0,0,.2-.1.38.38,0,0,0,.07-.163.022.022,0,0,1,.019-.019h.613v.874Zm0-1.013a.022.022,0,0,1-.019-.019.385.385,0,0,0-.07-.163.247.247,0,0,0-.2-.1.227.227,0,0,0-.118.033c-.07.044-.135.084-.213.041a.244.244,0,0,1-.111-.215V39.9a.244.244,0,0,1,.111-.215c.078-.044.143,0,.213.041a.219.219,0,0,0,.118.033.247.247,0,0,0,.2-.1.385.385,0,0,0,.07-.163.022.022,0,0,1,.019-.019h.613v.874Zm0-1.013a.022.022,0,0,1-.019-.019.38.38,0,0,0-.07-.163.247.247,0,0,0-.2-.1.219.219,0,0,0-.118.033c-.07.044-.135.084-.213.041A.246.246,0,0,1-83.9,38.9v-.018a.243.243,0,0,1,.111-.214c.078-.044.143,0,.213.041a.227.227,0,0,0,.118.033.247.247,0,0,0,.2-.1.384.384,0,0,0,.07-.164.021.021,0,0,1,.019-.019h.613v.874Zm0-1.014a.021.021,0,0,1-.019-.019.375.375,0,0,0-.07-.163.248.248,0,0,0-.2-.106.22.22,0,0,0-.118.034c-.07.044-.135.084-.213.04a.243.243,0,0,1-.111-.214v-.018a.246.246,0,0,1,.111-.215c.078-.044.143,0,.213.041a.22.22,0,0,0,.118.034.248.248,0,0,0,.2-.106.375.375,0,0,0,.07-.163.022.022,0,0,1,.019-.019h.613v.874Zm0-1.013a.021.021,0,0,1-.019-.019.384.384,0,0,0-.07-.164.247.247,0,0,0-.2-.1.227.227,0,0,0-.118.033c-.07.044-.135.084-.213.041a.243.243,0,0,1-.111-.214v-.018a.245.245,0,0,1,.111-.215c.078-.044.143,0,.213.041a.219.219,0,0,0,.118.033.247.247,0,0,0,.2-.1.38.38,0,0,0,.07-.163.022.022,0,0,1,.019-.019h.613V37.3Zm0-1.013a.022.022,0,0,1-.019-.019.38.38,0,0,0-.07-.163.247.247,0,0,0-.2-.1.219.219,0,0,0-.118.033c-.07.044-.135.084-.213.041a.244.244,0,0,1-.111-.215v-.017a.244.244,0,0,1,.111-.215c.078-.044.143,0,.213.041a.227.227,0,0,0,.118.033.247.247,0,0,0,.2-.1.385.385,0,0,0,.07-.163.021.021,0,0,1,.019-.019h.613v.874Zm0-1.013a.022.022,0,0,1-.019-.019.38.38,0,0,0-.07-.163.248.248,0,0,0-.2-.106.22.22,0,0,0-.118.034c-.07.044-.135.084-.213.041a.246.246,0,0,1-.111-.215v-.018a.243.243,0,0,1,.111-.214c.078-.044.143,0,.213.04a.22.22,0,0,0,.118.034.25.25,0,0,0,.2-.1.384.384,0,0,0,.07-.164.021.021,0,0,1,.019-.019h.613v.874Zm0-.991a.022.022,0,0,1-.019-.019.38.38,0,0,0-.07-.163.247.247,0,0,0-.2-.1.219.219,0,0,0-.118.033c-.07.044-.135.084-.213.041a.245.245,0,0,1-.111-.215v-.018a.243.243,0,0,1,.111-.214c.078-.044.143,0,.213.041a.227.227,0,0,0,.118.033.247.247,0,0,0,.2-.1.385.385,0,0,0,.07-.163.021.021,0,0,1,.019-.019h.613v.874Zm-1.444-2.4H-84a.021.021,0,0,1,.019.019.374.374,0,0,0,.071.164.248.248,0,0,0,.2.1.217.217,0,0,0,.118-.034c.07-.044.135-.084.213-.04a.245.245,0,0,1,.11.214v.018a.247.247,0,0,1-.11.215c-.079.044-.144,0-.213-.041a.216.216,0,0,0-.118-.033.246.246,0,0,0-.2.1.366.366,0,0,0-.071.163.022.022,0,0,1-.019.019h-.613Zm0,1.013H-84a.021.021,0,0,1,.019.019.375.375,0,0,0,.071.163.246.246,0,0,0,.2.1.225.225,0,0,0,.118-.033c.07-.044.135-.084.213-.041a.245.245,0,0,1,.11.214v.018a.246.246,0,0,1-.11.215c-.079.044-.144,0-.213-.041a.216.216,0,0,0-.118-.033.246.246,0,0,0-.2.1.37.37,0,0,0-.071.163.022.022,0,0,1-.019.019h-.613Zm0,1.013H-84a.022.022,0,0,1,.019.019.37.37,0,0,0,.071.163.246.246,0,0,0,.2.1.216.216,0,0,0,.118-.033c.07-.044.135-.084.213-.041a.246.246,0,0,1,.11.215v.018a.245.245,0,0,1-.11.214c-.079.044-.144,0-.213-.041a.225.225,0,0,0-.118-.033.246.246,0,0,0-.2.1.375.375,0,0,0-.071.163.021.021,0,0,1-.019.019h-.613Zm0,.991H-84a.021.021,0,0,1,.019.019.375.375,0,0,0,.071.163.246.246,0,0,0,.2.1.225.225,0,0,0,.118-.033c.07-.044.135-.084.213-.041a.245.245,0,0,1,.11.215v.017a.245.245,0,0,1-.11.215c-.079.044-.144,0-.213-.041a.216.216,0,0,0-.118-.033.246.246,0,0,0-.2.1.375.375,0,0,0-.071.163.022.022,0,0,1-.019.019h-.613Zm0,1.013H-84a.022.022,0,0,1,.019.019.37.37,0,0,0,.071.163.246.246,0,0,0,.2.1.216.216,0,0,0,.118-.033c.07-.044.135-.084.213-.041a.247.247,0,0,1,.11.215v.018a.245.245,0,0,1-.11.214c-.079.044-.144,0-.213-.041a.225.225,0,0,0-.118-.033.246.246,0,0,0-.2.1.374.374,0,0,0-.071.164.021.021,0,0,1-.019.019h-.613Zm0,1.013H-84a.022.022,0,0,1,.019.019.366.366,0,0,0,.071.163.247.247,0,0,0,.2.106.217.217,0,0,0,.118-.034c.07-.044.135-.084.213-.04a.245.245,0,0,1,.11.214v.018a.245.245,0,0,1-.11.214c-.079.045-.144,0-.213-.04a.217.217,0,0,0-.118-.034.247.247,0,0,0-.2.106.366.366,0,0,0-.071.163A.022.022,0,0,1-84,37.8h-.613Zm0,1.014H-84a.021.021,0,0,1,.019.019.374.374,0,0,0,.071.164.246.246,0,0,0,.2.1.225.225,0,0,0,.118-.033c.07-.044.135-.084.213-.041a.245.245,0,0,1,.11.214v.018a.247.247,0,0,1-.11.215c-.079.044-.144,0-.213-.041a.216.216,0,0,0-.118-.033.246.246,0,0,0-.2.1.37.37,0,0,0-.071.163.022.022,0,0,1-.019.019h-.613Zm0,1.013H-84a.022.022,0,0,1,.019.019.37.37,0,0,0,.071.163.246.246,0,0,0,.2.1.216.216,0,0,0,.118-.033c.07-.044.135-.084.213-.041a.246.246,0,0,1,.11.215V39.4a.245.245,0,0,1-.11.214c-.079.044-.144,0-.213-.041a.225.225,0,0,0-.118-.033.246.246,0,0,0-.2.1.375.375,0,0,0-.071.163.021.021,0,0,1-.019.019h-.613Zm0,1.013H-84a.022.022,0,0,1,.019.019.37.37,0,0,0,.071.163.246.246,0,0,0,.2.1.216.216,0,0,0,.118-.033c.07-.044.135-.084.213-.041a.247.247,0,0,1,.11.215v.018a.245.245,0,0,1-.11.214c-.079.044-.144,0-.213-.04a.217.217,0,0,0-.118-.034.246.246,0,0,0-.2.1.374.374,0,0,0-.071.164A.021.021,0,0,1-84,40.84h-.613Zm0,1.014H-84a.021.021,0,0,1,.019.019.374.374,0,0,0,.071.164.246.246,0,0,0,.2.1.225.225,0,0,0,.118-.033c.07-.045.135-.084.213-.041a.245.245,0,0,1,.11.214v.018a.247.247,0,0,1-.11.215c-.079.044-.144,0-.213-.041a.216.216,0,0,0-.118-.033.246.246,0,0,0-.2.1.37.37,0,0,0-.071.163.022.022,0,0,1-.019.019h-.613Zm0,1.013H-84a.021.021,0,0,1,.019.019.375.375,0,0,0,.071.163.246.246,0,0,0,.2.1.225.225,0,0,0,.118-.033c.07-.044.135-.084.213-.041a.245.245,0,0,1,.11.215v.017a.245.245,0,0,1-.11.215c-.079.044-.144,0-.213-.041a.216.216,0,0,0-.118-.033.246.246,0,0,0-.2.1.37.37,0,0,0-.071.163.022.022,0,0,1-.019.019h-.613Zm0,1.013H-84a.022.022,0,0,1,.019.019.37.37,0,0,0,.071.163.246.246,0,0,0,.2.1.216.216,0,0,0,.118-.033c.07-.044.135-.084.213-.041a.247.247,0,0,1,.11.215v.018a.245.245,0,0,1-.11.214c-.079.044-.144,0-.213-.041a.225.225,0,0,0-.118-.033.246.246,0,0,0-.2.1.374.374,0,0,0-.071.164.021.021,0,0,1-.019.019h-.613Zm0,1.014H-84a.021.021,0,0,1,.019.019.366.366,0,0,0,.071.163.247.247,0,0,0,.2.106.217.217,0,0,0,.118-.034c.07-.044.135-.084.213-.04a.245.245,0,0,1,.11.214v.018a.247.247,0,0,1-.11.215c-.079.044-.144,0-.213-.041a.217.217,0,0,0-.118-.034.247.247,0,0,0-.2.106.366.366,0,0,0-.071.163.021.021,0,0,1-.019.019h-.613Zm0,1.013H-84a.021.021,0,0,1,.019.019.374.374,0,0,0,.071.164.246.246,0,0,0,.2.1.225.225,0,0,0,.118-.033c.07-.044.135-.084.213-.041a.245.245,0,0,1,.11.214v.018a.246.246,0,0,1-.11.215c-.079.044-.144,0-.213-.041a.216.216,0,0,0-.118-.033.246.246,0,0,0-.2.1.37.37,0,0,0-.071.163.022.022,0,0,1-.019.019h-.613Zm0,1.013H-84a.022.022,0,0,1,.019.019.375.375,0,0,0,.071.163.246.246,0,0,0,.2.1A.216.216,0,0,0-83.6,46.3c.07-.044.135-.084.213-.041a.245.245,0,0,1,.11.215v.017a.245.245,0,0,1-.11.215c-.079.044-.144,0-.213-.041a.225.225,0,0,0-.118-.033.246.246,0,0,0-.2.1.375.375,0,0,0-.071.163.021.021,0,0,1-.019.019h-.613Zm0,1.013H-84a.022.022,0,0,1,.019.019.37.37,0,0,0,.071.163.246.246,0,0,0,.2.1.217.217,0,0,0,.118-.033c.07-.044.135-.084.213-.041a.247.247,0,0,1,.11.215v.018a.245.245,0,0,1-.11.214c-.079.044-.144,0-.213-.041a.225.225,0,0,0-.118-.033.246.246,0,0,0-.2.1.374.374,0,0,0-.071.164.021.021,0,0,1-.019.019h-.613Zm0,1.014H-84a.021.021,0,0,1,.019.019.374.374,0,0,0,.071.164.246.246,0,0,0,.2.1.225.225,0,0,0,.118-.033c.07-.045.135-.084.213-.041a.245.245,0,0,1,.11.214v.018a.247.247,0,0,1-.11.215c-.079.044-.144,0-.213-.041a.216.216,0,0,0-.118-.033.246.246,0,0,0-.2.1.37.37,0,0,0-.071.163.022.022,0,0,1-.019.019h-.613Zm0,1.013H-84a.021.021,0,0,1,.019.019.375.375,0,0,0,.071.163.246.246,0,0,0,.2.1.225.225,0,0,0,.118-.033c.07-.044.135-.084.213-.041a.245.245,0,0,1,.11.214v.018a.246.246,0,0,1-.11.215c-.079.044-.144,0-.213-.041a.216.216,0,0,0-.118-.033.246.246,0,0,0-.2.1.37.37,0,0,0-.071.163.022.022,0,0,1-.019.019h-.613Zm0,1.013H-84a.022.022,0,0,1,.019.019.37.37,0,0,0,.071.163.246.246,0,0,0,.2.1.217.217,0,0,0,.118-.033c.07-.044.135-.084.213-.041a.247.247,0,0,1,.11.215v.018a.269.269,0,0,1-.051.161,1.3,1.3,0,0,0-.261-.027c-.043,0-.085,0-.127.006h0a.224.224,0,0,0-.056.007,1.369,1.369,0,0,0-.4.124l-.321.156h-.117Zm1.028,12.72a1.565,1.565,0,0,1-1.322-1.831l.409-5.248a1.153,1.153,0,0,1,.565-.954v.64a.659.659,0,0,0-.1.363.519.519,0,0,0,.451.566.518.518,0,0,0,.451-.566.659.659,0,0,0-.1-.363v-.64a1.156,1.156,0,0,1,.566.954l.408,5.248A1.565,1.565,0,0,1-83.589,62.822Zm-.321-7.03a.488.488,0,0,1,.026-.157.338.338,0,0,0,.3.207.34.34,0,0,0,.3-.207.514.514,0,0,1,.025.157.369.369,0,0,1-.321.4A.369.369,0,0,1-83.91,55.792Zm2.274-3.188-.24,1.975a2.11,2.11,0,0,1-.4,1.026,1.281,1.281,0,0,0-.234.525l-.031-.4a1.321,1.321,0,0,0-.647-1.09l-.049-.025V52.64a.4.4,0,0,0-.348-.437.4.4,0,0,0-.348.437v1.972l-.049.025a1.318,1.318,0,0,0-.646,1.09l-.032.4A1.281,1.281,0,0,0-84.9,55.6a2.11,2.11,0,0,1-.4-1.026l-.24-1.975a.984.984,0,0,1,.466-1.011l.987-.48a1.128,1.128,0,0,1,1,0l.987.48A.984.984,0,0,1-81.636,52.6ZM-78.4,62.85a1.565,1.565,0,0,1-1.322-1.83l.408-5.248a1.157,1.157,0,0,1,.566-.955v.641a.658.658,0,0,0-.1.362.519.519,0,0,0,.451.567.519.519,0,0,0,.451-.567.658.658,0,0,0-.1-.362v-.641a1.157,1.157,0,0,1,.566.955l.408,5.248A1.565,1.565,0,0,1-78.4,62.85Zm-.321-7.03a.478.478,0,0,1,.026-.156.34.34,0,0,0,.3.207.34.34,0,0,0,.3-.207.478.478,0,0,1,.026.156.369.369,0,0,1-.321.4A.369.369,0,0,1-78.725,55.821Zm2.274-3.188-.24,1.975a2.113,2.113,0,0,1-.4,1.027,1.276,1.276,0,0,0-.234.525l-.032-.4a1.316,1.316,0,0,0-.646-1.089l-.049-.026V52.668a.4.4,0,0,0-.348-.436.4.4,0,0,0-.348.436V54.64l-.049.026a1.318,1.318,0,0,0-.647,1.089l-.031.4a1.276,1.276,0,0,0-.234-.525,2.113,2.113,0,0,1-.4-1.027l-.24-1.975a.983.983,0,0,1,.466-1.01l.987-.48a1.122,1.122,0,0,1,1,0l.987.48A.983.983,0,0,1-76.45,52.632Z" transform="translate(-5125.045 -10762.004)" fill="#d5d0cf"/>
  </g>
</svg>
