<svg xmlns="http://www.w3.org/2000/svg" width="140" height="140" viewBox="0 0 140 140">
  <g id="Grupo_148146" data-name="Grupo 148146" transform="translate(-734.034 -6157.405)">
    <circle id="Elipse_5376" data-name="Elipse 5376" cx="70" cy="70" r="70" transform="translate(734.034 6157.405)" fill="#ffb30b"/>
    <circle id="Elipse_5377" data-name="Elipse 5377" cx="60" cy="60" r="60" transform="translate(744.034 6167)" fill="#fff"/>
    <g id="_7-Backup_and_Recovery" data-name="7-Backup and Recovery" transform="translate(763.033 6186)">
      <path id="Trazado_197312" data-name="Trazado 197312" d="M44.364,65.631A1.367,1.367,0,0,1,43,64.387L40.264,34.323A5.507,5.507,0,0,0,34.8,28.733H10.2A5.466,5.466,0,0,0,4.733,34.2,1.367,1.367,0,0,1,2,34.2,8.208,8.208,0,0,1,10.2,26H34.8A8.208,8.208,0,0,1,43,34.2l2.733,29.942a1.367,1.367,0,0,1-1.244,1.49Z" transform="translate(0.733 9.531)" fill="#084a93"/>
      <path id="Trazado_197313" data-name="Trazado 197313" d="M38.264,70.632H8.2A8.2,8.2,0,0,1,.136,60.949l2.6-28.7a1.372,1.372,0,0,1,2.733.246L3.338,55.834a8.153,8.153,0,0,1,4.861-1.6H38.264a8.2,8.2,0,1,1,0,16.4ZM2.733,62.557A5.455,5.455,0,0,0,8.2,67.9H38.264a5.466,5.466,0,1,0,0-10.933H8.2a5.476,5.476,0,0,0-5.365,4.417l-.1,1.159Z" transform="translate(0 11.363)" fill="#084a93"/>
      <circle id="Elipse_5380" data-name="Elipse 5380" cx="1.367" cy="1.367" r="1.367" transform="translate(6.833 72.429)" fill="#084a93"/>
      <circle id="Elipse_5381" data-name="Elipse 5381" cx="1.367" cy="1.367" r="1.367" transform="translate(12.299 72.429)" fill="#084a93"/>
      <path id="Trazado_197314" data-name="Trazado 197314" d="M30.566,55.733h-8.2a1.367,1.367,0,0,1,0-2.733h8.2a1.367,1.367,0,0,1,0,2.733Z" transform="translate(7.698 19.429)" fill="#084a93"/>
      <path id="Trazado_197315" data-name="Trazado 197315" d="M70.364,39.631A1.367,1.367,0,0,1,69,38.387L66.264,8.323A5.507,5.507,0,0,0,60.8,2.733H36.2A5.466,5.466,0,0,0,30.733,8.2,1.367,1.367,0,1,1,28,8.2,8.208,8.208,0,0,1,36.2,0H60.8A8.208,8.208,0,0,1,69,8.2l2.733,29.942a1.367,1.367,0,0,1-1.244,1.49Z" transform="translate(10.264)" fill="#084a93"/>
      <path id="Trazado_197316" data-name="Trazado 197316" d="M64.228,38.4H34.163a1.367,1.367,0,0,1,0-2.733H64.228a5.466,5.466,0,1,0,0-10.933H34.163a5.481,5.481,0,0,0-5.357,4.373,1.367,1.367,0,1,1-2.679-.547A8.223,8.223,0,0,1,34.163,22H64.228a8.2,8.2,0,0,1,0,16.4Z" transform="translate(9.567 8.065)" fill="#084a93"/>
      <path id="Trazado_197317" data-name="Trazado 197317" d="M27.457,36.433h-.126a1.367,1.367,0,0,1-1.23-1.49l2.6-28.7a1.372,1.372,0,1,1,2.733.246l-2.609,28.7A1.367,1.367,0,0,1,27.457,36.433Z" transform="translate(9.566 1.831)" fill="#084a93"/>
      <circle id="Elipse_5382" data-name="Elipse 5382" cx="1.367" cy="1.367" r="1.367" transform="translate(45.097 36.898)" fill="#084a93"/>
      <circle id="Elipse_5383" data-name="Elipse 5383" cx="1.367" cy="1.367" r="1.367" transform="translate(50.563 36.898)" fill="#084a93"/>
      <path id="Trazado_197318" data-name="Trazado 197318" d="M56.566,29.733h-8.2a1.367,1.367,0,1,1,0-2.733h8.2a1.367,1.367,0,1,1,0,2.733Z" transform="translate(17.229 9.898)" fill="#084a93"/>
      <circle id="Elipse_5384" data-name="Elipse 5384" cx="1.367" cy="1.367" r="1.367" transform="translate(47.83 60.13)" fill="#084a93"/>
      <circle id="Elipse_5385" data-name="Elipse 5385" cx="1.367" cy="1.367" r="1.367" transform="translate(53.297 60.13)" fill="#084a93"/>
      <circle id="Elipse_5386" data-name="Elipse 5386" cx="1.367" cy="1.367" r="1.367" transform="translate(58.763 60.13)" fill="#084a93"/>
      <circle id="Elipse_5387" data-name="Elipse 5387" cx="1.367" cy="1.367" r="1.367" transform="translate(64.229 60.13)" fill="#084a93"/>
      <circle id="Elipse_5388" data-name="Elipse 5388" cx="1.367" cy="1.367" r="1.367" transform="translate(64.229 54.663)" fill="#084a93"/>
      <circle id="Elipse_5389" data-name="Elipse 5389" cx="1.367" cy="1.367" r="1.367" transform="translate(64.229 49.197)" fill="#084a93"/>
      <circle id="Elipse_5390" data-name="Elipse 5390" cx="1.367" cy="1.367" r="1.367" transform="translate(31.431 19.132)" fill="#084a93"/>
      <circle id="Elipse_5391" data-name="Elipse 5391" cx="1.367" cy="1.367" r="1.367" transform="translate(25.965 19.132)" fill="#084a93"/>
      <circle id="Elipse_5392" data-name="Elipse 5392" cx="1.367" cy="1.367" r="1.367" transform="translate(20.498 19.132)" fill="#084a93"/>
      <circle id="Elipse_5393" data-name="Elipse 5393" cx="1.367" cy="1.367" r="1.367" transform="translate(15.032 19.132)" fill="#084a93"/>
      <circle id="Elipse_5394" data-name="Elipse 5394" cx="1.367" cy="1.367" r="1.367" transform="translate(15.032 24.599)" fill="#084a93"/>
      <circle id="Elipse_5395" data-name="Elipse 5395" cx="1.367" cy="1.367" r="1.367" transform="translate(15.032 30.065)" fill="#084a93"/>
    </g>
  </g>
</svg>
