<svg xmlns="http://www.w3.org/2000/svg" width="140" height="140" viewBox="0 0 140 140">
  <g id="Grupo_148143" data-name="Grupo 148143" transform="translate(-1085.034 -916.036)">
    <circle id="Elipse_5265" data-name="Elipse 5265" cx="70" cy="70" r="70" transform="translate(1085.034 916.036)" fill="#ffb30b"/>
    <circle id="Elipse_5266" data-name="Elipse 5266" cx="60" cy="60" r="60" transform="translate(1095.034 926.036)" fill="#fff"/>
    <path id="Trazado_194317" data-name="Trazado 194317" d="M-31.576,139.077V132.5a5.238,5.238,0,0,0-5.239-5.239h-81.094a5.238,5.238,0,0,0-5.239,5.239v6.575a5.413,5.413,0,0,0-.092.965V186.9a5.334,5.334,0,0,0,5.335,5.334H-36.82a5.335,5.335,0,0,0,5.335-5.334V140.043A5.412,5.412,0,0,0-31.576,139.077Z" transform="translate(1232.272 826.772)" fill="#767676"/>
    <path id="Trazado_194318" data-name="Trazado 194318" d="M-36.789,133.389h-81.084a5.333,5.333,0,0,0-5.244,4.369,5.413,5.413,0,0,0-.092.965v46.861a5.335,5.335,0,0,0,5.335,5.334h81.084a5.334,5.334,0,0,0,5.335-5.334V138.723a5.3,5.3,0,0,0-.092-.965A5.332,5.332,0,0,0-36.789,133.389Zm-86.236,5.334a5.135,5.135,0,0,1,1.509-3.643,5.135,5.135,0,0,1,3.643-1.509h81.084a5.135,5.135,0,0,1,3.643,1.509,5.135,5.135,0,0,1,1.509,3.643v2.006a5.1,5.1,0,0,0-5.008-4.15h-81.371a5.1,5.1,0,0,0-5.008,4.15Zm7.6,41.174V144.032a4.2,4.2,0,0,1,4.2-4.2h67.778a4.2,4.2,0,0,1,4.2,4.2V179.9a4.2,4.2,0,0,1-4.2,4.2h-67.778A4.2,4.2,0,0,1-115.421,179.9Zm83.95-5.337H-35V151.935h3.526Z" transform="translate(1232.279 828.046)" fill="#0f0f11"/>
    <path id="Trazado_194319" data-name="Trazado 194319" d="M-44.782,182.99a4.2,4.2,0,0,0,4.2-4.2V142.923a4.2,4.2,0,0,0-4.2-4.2H-112.56a4.2,4.2,0,0,0-4.2,4.2v35.866a4.2,4.2,0,0,0,4.2,4.2Zm-44.194-10.7-.016-.278c0-.088-.011-.194-.01-.273h0c-.022.075-.048.153-.08.24l-.112.307h-.062l-.1-.3c-.03-.088-.056-.17-.074-.245h0c0,.079-.006.185-.012.279l-.017.272h-.077l.045-.632h.1l.107.306c.027.077.048.147.064.213h0c.016-.064.039-.133.066-.213l.112-.306h.1l.04.632Zm.669-.263c0,.193-.1.273-.238.273s-.227-.074-.227-.269v-.372h.082v.373c0,.141.063.2.147.2s.153-.062.153-.2v-.373h.082Zm.271.273a.321.321,0,0,1-.161-.041l.021-.069a.282.282,0,0,0,.146.042c.083,0,.132-.045.132-.109s-.033-.092-.118-.126c-.1-.036-.167-.089-.167-.179a.182.182,0,0,1,.2-.172.292.292,0,0,1,.14.031l-.023.066a.241.241,0,0,0-.12-.03c-.087,0-.12.052-.12.094,0,.059.039.088.126.122.106.041.161.093.161.186S-87.887,172.3-88.037,172.3Zm.414-.01H-87.7v-.632h.082Zm.434-.059a.329.329,0,0,0,.133-.027l.017.065a.406.406,0,0,1-.167.03.3.3,0,0,1-.312-.32.314.314,0,0,1,.33-.332.324.324,0,0,1,.15.029l-.019.066a.289.289,0,0,0-.128-.027.235.235,0,0,0-.246.261A.23.23,0,0,0-87.189,172.227Zm1,.059-.016-.278c0-.088-.011-.194-.01-.273h0c-.022.075-.048.153-.08.24l-.112.307h-.062l-.1-.3c-.03-.088-.056-.17-.074-.245h0c0,.079-.007.185-.013.279l-.016.272h-.079l.045-.632h.1l.107.306c.027.077.048.147.064.213h0c.016-.064.039-.133.066-.213l.112-.306h.1l.04.632Zm.669-.263c0,.193-.1.273-.238.273s-.227-.074-.227-.269v-.372h.082v.373c0,.141.063.2.147.2s.153-.062.153-.2v-.373h.082Zm.271.273a.321.321,0,0,1-.161-.041l.021-.069a.282.282,0,0,0,.146.042c.083,0,.132-.045.132-.109s-.033-.092-.118-.126c-.1-.036-.167-.089-.167-.179a.182.182,0,0,1,.2-.172.292.292,0,0,1,.14.031l-.023.066a.241.241,0,0,0-.12-.03c-.087,0-.12.052-.12.094,0,.059.039.088.126.122.107.041.161.093.161.186S-85.1,172.3-85.25,172.3Zm.414-.01h-.081v-.632h.081Zm.434-.059a.329.329,0,0,0,.133-.027l.017.065a.406.406,0,0,1-.167.03.3.3,0,0,1-.312-.32.314.314,0,0,1,.33-.332.324.324,0,0,1,.15.029l-.019.066a.289.289,0,0,0-.128-.027.235.235,0,0,0-.246.261A.23.23,0,0,0-84.4,172.227Zm1,.059-.016-.278c0-.088-.011-.194-.01-.273h0c-.022.075-.048.153-.08.24l-.112.307h-.062l-.1-.3c-.03-.088-.056-.17-.074-.245h0c0,.079-.007.185-.013.279l-.016.272h-.079l.045-.632h.1l.107.306c.027.077.048.147.064.213h0c.016-.064.039-.133.066-.213l.112-.306h.1l.04.632Zm.67-.263c0,.193-.1.273-.239.273s-.227-.074-.227-.269v-.372h.082v.373c0,.141.063.2.147.2s.153-.062.153-.2v-.373h.083Zm.269.273a.321.321,0,0,1-.161-.041l.021-.069a.282.282,0,0,0,.146.042c.083,0,.132-.045.132-.109s-.033-.092-.118-.126c-.1-.036-.167-.089-.167-.179a.182.182,0,0,1,.2-.172.3.3,0,0,1,.14.031l-.023.066a.241.241,0,0,0-.12-.03c-.087,0-.12.052-.12.094,0,.059.039.088.126.122.106.041.161.093.161.186S-82.314,172.3-82.463,172.3Zm.414-.01h-.081v-.632h.081Zm.434-.059a.329.329,0,0,0,.133-.027l.017.065a.411.411,0,0,1-.167.03.3.3,0,0,1-.312-.32.314.314,0,0,1,.33-.332.324.324,0,0,1,.15.029l-.019.066a.289.289,0,0,0-.128-.027.235.235,0,0,0-.246.261A.23.23,0,0,0-81.615,172.227Zm1,.059-.016-.278c0-.088-.011-.194-.01-.273h0c-.022.075-.048.153-.08.24l-.112.307H-80.9l-.1-.3c-.03-.088-.056-.17-.074-.245h0c0,.079-.007.185-.012.279l-.017.272h-.079l.045-.632h.1l.107.306c.027.077.048.147.064.213h0c.016-.064.039-.133.066-.213l.112-.306h.1l.04.632Zm.669-.263c0,.193-.1.273-.238.273s-.227-.074-.227-.269v-.372h.082v.373c0,.141.063.2.147.2s.153-.062.153-.2v-.373h.082Zm.271.273a.321.321,0,0,1-.161-.041l.021-.069a.282.282,0,0,0,.146.042c.083,0,.132-.045.132-.109s-.033-.092-.118-.126c-.1-.036-.167-.089-.167-.179a.182.182,0,0,1,.2-.172.3.3,0,0,1,.14.031l-.023.066a.241.241,0,0,0-.12-.03c-.087,0-.12.052-.12.094,0,.059.039.088.126.122.106.041.161.093.161.186S-79.527,172.3-79.677,172.3Zm.414-.01h-.081v-.632h.081Zm.434-.059a.329.329,0,0,0,.133-.027l.017.065a.406.406,0,0,1-.167.03.3.3,0,0,1-.312-.32.314.314,0,0,1,.33-.332.324.324,0,0,1,.15.029l-.019.066a.289.289,0,0,0-.128-.027.235.235,0,0,0-.246.261A.23.23,0,0,0-78.829,172.227Zm1,.059-.016-.278c0-.088-.011-.194-.01-.273h0c-.022.075-.048.153-.08.24l-.112.307h-.062l-.1-.3c-.03-.088-.056-.17-.074-.245h0c0,.079-.007.185-.012.279l-.017.272H-78.4l.045-.632h.1l.107.306c.027.077.048.147.064.213h0c.016-.064.039-.133.066-.213l.112-.306h.1l.04.632Zm.669-.263c0,.193-.1.273-.238.273s-.227-.074-.227-.269v-.372h.082v.373c0,.141.063.2.147.2s.153-.062.153-.2v-.373h.082Zm.271.273a.321.321,0,0,1-.161-.041l.021-.069a.282.282,0,0,0,.146.042c.083,0,.132-.045.132-.109s-.033-.092-.118-.126c-.1-.036-.167-.089-.167-.179a.182.182,0,0,1,.2-.172.3.3,0,0,1,.14.031l-.023.066a.241.241,0,0,0-.12-.03c-.087,0-.12.052-.12.094,0,.059.039.088.126.122.106.041.162.093.162.186S-76.74,172.3-76.89,172.3Zm.414-.01h-.081v-.632h.081Zm.434-.059a.329.329,0,0,0,.133-.027l.017.065a.406.406,0,0,1-.167.03.3.3,0,0,1-.312-.32.314.314,0,0,1,.33-.332.324.324,0,0,1,.15.029l-.019.066a.289.289,0,0,0-.128-.027.235.235,0,0,0-.246.261A.23.23,0,0,0-76.042,172.227Zm1,.059-.016-.278c0-.088-.011-.194-.01-.273h0c-.022.075-.048.153-.08.24l-.111.307h-.063l-.1-.3c-.03-.088-.056-.17-.074-.245h0c0,.079-.007.185-.012.279l-.017.272h-.079l.045-.632h.1l.107.306c.027.077.048.147.064.213h0c.016-.064.039-.133.066-.213l.112-.306h.1l.04.632Zm.669-.263c0,.193-.1.273-.238.273s-.227-.074-.227-.269v-.372h.082v.373c0,.141.063.2.147.2s.153-.062.153-.2v-.373h.082Zm.271.273a.321.321,0,0,1-.161-.041l.021-.069a.285.285,0,0,0,.146.042c.083,0,.132-.045.132-.109s-.033-.092-.118-.126c-.1-.036-.167-.089-.167-.179a.182.182,0,0,1,.2-.172.292.292,0,0,1,.14.031l-.023.066a.241.241,0,0,0-.12-.03c-.087,0-.12.052-.12.094,0,.059.039.088.126.122.106.041.162.093.162.186S-73.954,172.3-74.1,172.3Zm.414-.01h-.081v-.632h.081Zm.434-.059a.329.329,0,0,0,.133-.027l.017.065a.406.406,0,0,1-.167.03.3.3,0,0,1-.312-.32.314.314,0,0,1,.33-.332.324.324,0,0,1,.15.029l-.019.066a.289.289,0,0,0-.128-.027.235.235,0,0,0-.246.261A.23.23,0,0,0-73.255,172.227Zm1,.059-.016-.278c0-.088-.011-.194-.01-.273h0c-.022.075-.048.153-.08.24l-.112.307h-.062l-.1-.3c-.03-.088-.056-.17-.074-.245h0c0,.079-.007.185-.012.279l-.017.272h-.079l.045-.632h.1l.108.306c.027.077.048.147.064.213h0c.016-.064.039-.133.066-.213l.112-.306h.1l.04.632Zm.669-.263c0,.193-.1.273-.238.273s-.227-.074-.227-.269v-.372h.082v.373c0,.141.063.2.147.2s.153-.062.153-.2v-.373h.082Zm.271.273a.321.321,0,0,1-.161-.041l.021-.069a.285.285,0,0,0,.146.042c.083,0,.132-.045.132-.109s-.033-.092-.118-.126c-.1-.036-.167-.089-.167-.179a.182.182,0,0,1,.2-.172.292.292,0,0,1,.14.031l-.023.066a.241.241,0,0,0-.12-.03c-.087,0-.12.052-.12.094,0,.059.039.088.126.122.107.041.162.093.162.186S-71.167,172.3-71.317,172.3Zm.414-.01h-.081v-.632h.081Zm.434-.059a.329.329,0,0,0,.133-.027l.017.065a.406.406,0,0,1-.167.03.3.3,0,0,1-.312-.32.314.314,0,0,1,.33-.332.324.324,0,0,1,.15.029l-.019.066a.289.289,0,0,0-.128-.027.235.235,0,0,0-.246.261A.23.23,0,0,0-70.469,172.227Zm-38.822-20.186a2.664,2.664,0,0,1,2.665-2.665h55.516a2.665,2.665,0,0,1,2.665,2.665v15.982a2.665,2.665,0,0,1-2.665,2.666h-55.516a2.665,2.665,0,0,1-2.665-2.666Z" transform="translate(1233.62 829.155)" fill="#888c8f"/>
    <path id="Trazado_194321" data-name="Trazado 194321" d="M-103.149,164.3h43.272a1.685,1.685,0,0,0,1.685-1.685v-10.45a1.686,1.686,0,0,0-1.685-1.685h-43.272a1.685,1.685,0,0,0-1.684,1.685v10.45A1.684,1.684,0,0,0-103.149,164.3Zm37.338-11.777a4.867,4.867,0,0,1,4.868,4.868,4.867,4.867,0,0,1-4.868,4.868,4.868,4.868,0,0,1-4.869-4.868A4.868,4.868,0,0,1-65.811,152.522Zm-24,.994h16.6v7.746h-16.6Zm-7.872-.994a4.867,4.867,0,0,1,4.868,4.868,4.867,4.867,0,0,1-4.868,4.868,4.868,4.868,0,0,1-4.869-4.868A4.868,4.868,0,0,1-97.686,152.522Z" transform="translate(1236.099 831.6)" fill="#171514"/>
    <path id="Trazado_194322" data-name="Trazado 194322" d="M-81.46,156.794h.35v-.57h.144v.57h1.085v-1.046h.144v2.242h-.144v-1.052h-1.085v.576h-.144v-.576h-.348a27.676,27.676,0,0,0,.339,3.8h3.046v-7.746H-81.16a22.118,22.118,0,0,0-.256,2.207C-81.453,155.733-81.465,156.264-81.46,156.794Z" transform="translate(1240.959 832.122)" fill="#2e2020"/>
    <path id="Trazado_194323" data-name="Trazado 194323" d="M-83.539,156.938h-.348v2.689h-.144v-2.689h-1.5v.576h-.145v-.576h-1.074v.576h-.144v-.576H-87.97v.576h-.144v-.576h-1.075v.576h-.144v-.576h-1.1v1.052h-.145v-2.242h.145v1.046h1.1v-.57h.144v.57h1.075v-.57h.144v.57h1.075v-.57h.144v.57h1.074v-.57h.145v.57h1.5v-2.683h.144v2.683h.35c0-.53-.007-1.062-.043-1.594a22.12,22.12,0,0,0-.256-2.207H-92.4v7.746h8.521A27.675,27.675,0,0,0-83.539,156.938Z" transform="translate(1238.685 832.122)" fill="#2e2020"/>
    <path id="Trazado_194324" data-name="Trazado 194324" d="M-85.01,156.794h1.045v-.57h.144v.57h1.075v-.57h.144v.57h1.075v-.57h.144v.57h.725c0-.53.007-1.062.043-1.594a22.118,22.118,0,0,1,.256-2.207h-4.95a22.12,22.12,0,0,1,.256,2.207C-85.018,155.733-85.006,156.264-85.01,156.794Z" transform="translate(1240.159 832.122)" fill="#fff"/>
    <path id="Trazado_194327" data-name="Trazado 194327" d="M-98.179,161.222a4.272,4.272,0,0,0,3.029-1.255,4.272,4.272,0,0,0,1.255-3.029,4.269,4.269,0,0,0-1.255-3.029,4.272,4.272,0,0,0-3.029-1.255,4.269,4.269,0,0,0-3.029,1.255,4.264,4.264,0,0,0-1.255,3.029,4.267,4.267,0,0,0,1.255,3.029A4.269,4.269,0,0,0-98.179,161.222Zm0-.186a4.079,4.079,0,0,1-1.262-.2l.193-.6a3.468,3.468,0,0,0,1.069.167,3.471,3.471,0,0,0,1.075-.169h0l.194.6A4.09,4.09,0,0,1-98.179,161.036Zm4.1-4.115v.017a4.079,4.079,0,0,1-.782,2.407l-.51-.37a3.455,3.455,0,0,0,.661-2.038v-.014Zm-3.038-3.287h0l.193-.6a4.111,4.111,0,0,1,2.053,1.481l-.509.373a3.469,3.469,0,0,0-1.738-1.255Zm.6,3.3a1.656,1.656,0,0,1-1.656,1.656,1.657,1.657,0,0,1-1.657-1.656,1.657,1.657,0,0,1,1.657-1.657A1.657,1.657,0,0,1-96.522,156.938Zm-2.934-3.9.2.6a3.477,3.477,0,0,0-1.73,1.265h0l-.51-.37A4.1,4.1,0,0,1-99.456,153.042Zm-2.82,3.9h.629a3.449,3.449,0,0,0,.666,2.035h0l-.509.372A4.077,4.077,0,0,1-102.277,156.946Z" transform="translate(1236.592 832.052)" fill="#fff"/>
    <path id="Trazado_194328" data-name="Trazado 194328" d="M-100.288,156.485a1.657,1.657,0,0,0,1.657,1.656,1.656,1.656,0,0,0,1.656-1.656,1.657,1.657,0,0,0-1.656-1.657A1.657,1.657,0,0,0-100.288,156.485Z" transform="translate(1237.044 832.504)" fill="#f3f2f3"/>
    <path id="Trazado_194331" data-name="Trazado 194331" d="M-96.3,154.823l.509-.373a4.111,4.111,0,0,0-2.053-1.481l-.193.6A3.469,3.469,0,0,1-96.3,154.823Z" transform="translate(1237.512 832.117)" fill="#e7e6e6"/>
    <path id="Trazado_194332" data-name="Trazado 194332" d="M-97.624,158.931a3.471,3.471,0,0,1-1.075.169,3.468,3.468,0,0,1-1.069-.167l-.193.6a4.079,4.079,0,0,0,1.262.2,4.09,4.09,0,0,0,1.27-.2l-.194-.6Z" transform="translate(1237.112 833.356)" fill="#e7e6e6"/>
    <path id="Trazado_194333" data-name="Trazado 194333" d="M-101.156,154.839a3.477,3.477,0,0,1,1.73-1.265l-.2-.6a4.1,4.1,0,0,0-2.044,1.494l.51.37Z" transform="translate(1236.758 832.118)" fill="#e7e6e6"/>
    <path id="Trazado_194334" data-name="Trazado 194334" d="M-96.592,158.241l.51.37A4.079,4.079,0,0,0-95.3,156.2v-.017l-.631,0v.014A3.455,3.455,0,0,1-96.592,158.241Z" transform="translate(1237.813 832.786)" fill="#e7e6e6"/>
    <path id="Trazado_194336" data-name="Trazado 194336" d="M-101.68,156.206h-.629a4.076,4.076,0,0,0,.786,2.406l.509-.372A3.449,3.449,0,0,1-101.68,156.206Z" transform="translate(1236.624 832.79)" fill="#e7e6e6"/>
    <path id="Trazado_194337" data-name="Trazado 194337" d="M-71.791,161.222a4.272,4.272,0,0,0,3.029-1.255,4.272,4.272,0,0,0,1.255-3.029,4.269,4.269,0,0,0-1.255-3.029,4.272,4.272,0,0,0-3.029-1.255,4.269,4.269,0,0,0-3.029,1.255,4.269,4.269,0,0,0-1.255,3.029,4.272,4.272,0,0,0,1.255,3.029A4.269,4.269,0,0,0-71.791,161.222Zm0-.186a4.114,4.114,0,0,1-1.262-.2l.193-.6a3.474,3.474,0,0,0,1.069.167,3.471,3.471,0,0,0,1.075-.169h0l.194.6A4.09,4.09,0,0,1-71.791,161.036Zm4.1-4.115v.017a4.079,4.079,0,0,1-.782,2.407l-.51-.37a3.455,3.455,0,0,0,.661-2.038v-.014Zm-3.038-3.287h0l.192-.6a4.111,4.111,0,0,1,2.053,1.481l-.509.373a3.471,3.471,0,0,0-1.737-1.255Zm.6,3.3a1.656,1.656,0,0,1-1.656,1.656,1.657,1.657,0,0,1-1.657-1.656,1.657,1.657,0,0,1,1.657-1.657A1.657,1.657,0,0,1-70.134,156.938Zm-2.934-3.9.2.6a3.477,3.477,0,0,0-1.73,1.265h0l-.51-.37A4.1,4.1,0,0,1-73.068,153.042Zm-2.82,3.9h.629a3.441,3.441,0,0,0,.666,2.035l-.509.372A4.079,4.079,0,0,1-75.889,156.946Z" transform="translate(1242.079 832.052)" fill="#fff"/>
    <path id="Trazado_194339" data-name="Trazado 194339" d="M-73.9,156.485a1.657,1.657,0,0,0,1.657,1.656,1.656,1.656,0,0,0,1.656-1.656,1.657,1.657,0,0,0-1.656-1.657A1.657,1.657,0,0,0-73.9,156.485Z" transform="translate(1242.531 832.504)" fill="#f3f2f3"/>
    <path id="Trazado_194341" data-name="Trazado 194341" d="M-74.768,154.839a3.477,3.477,0,0,1,1.73-1.265l-.2-.6a4.1,4.1,0,0,0-2.044,1.494l.51.37Z" transform="translate(1242.245 832.118)" fill="#e7e6e6"/>
    <path id="Trazado_194342" data-name="Trazado 194342" d="M-69.912,154.823l.509-.373a4.111,4.111,0,0,0-2.053-1.481l-.192.6A3.471,3.471,0,0,1-69.912,154.823Z" transform="translate(1242.999 832.117)" fill="#e7e6e6"/>
    <path id="Trazado_194343" data-name="Trazado 194343" d="M-70.2,158.241l.51.37a4.079,4.079,0,0,0,.782-2.407v-.017l-.631,0v.014A3.455,3.455,0,0,1-70.2,158.241Z" transform="translate(1243.299 832.786)" fill="#e7e6e6"/>
    <path id="Trazado_194345" data-name="Trazado 194345" d="M-71.236,158.931a3.471,3.471,0,0,1-1.075.169,3.474,3.474,0,0,1-1.069-.167l-.193.6a4.115,4.115,0,0,0,1.262.2,4.09,4.09,0,0,0,1.27-.2l-.194-.6Z" transform="translate(1242.599 833.356)" fill="#e7e6e6"/>
    <path id="Trazado_194346" data-name="Trazado 194346" d="M-75.292,156.206h-.629a4.079,4.079,0,0,0,.786,2.406l.509-.372A3.441,3.441,0,0,1-75.292,156.206Z" transform="translate(1242.111 832.79)" fill="#e7e6e6"/>
    <path id="Trazado_194347" data-name="Trazado 194347" d="M-82.805,157.322h.144v-.576h1.075v.576h.144v-.576h1.075v.576h.144v-.576h1.075v.576h.144v-.576h1.084V157.8h.144v-2.242h-.144V156.6h-1.084v-.57h-.144v.57h-1.075v-.57h-.144v.57h-1.075v-.57h-.144v.57h-1.075v-.57h-.144v.57h-1.4v-2.683h-.144V156.6h-1.5v-.57h-.144v.57h-1.075v-.57h-.144v.57h-1.075v-.57h-.144v.57H-89.5v-.57h-.144v.57h-1.1v-1.046h-.144V157.8h.144v-1.052h1.1v.576h.144v-.576h1.075v.576h.144v-.576h1.075v.576h.144v-.576h1.075v.576h.144v-.576h1.5v2.688h.144v-2.688h1.4Z" transform="translate(1238.999 832.314)" fill="#e7e6e6"/>
    <rect id="Rectángulo_296851" data-name="Rectángulo 296851" width="76.181" height="2.188" transform="translate(1116.858 962.438)" fill="#585858"/>
    <path id="Trazado_194397" data-name="Trazado 194397" d="M-107.912,168.856H-52.4a2.665,2.665,0,0,0,2.665-2.666V150.208a2.665,2.665,0,0,0-2.665-2.665h-55.516a2.664,2.664,0,0,0-2.665,2.665V166.19A2.665,2.665,0,0,0-107.912,168.856Zm-2.482-18.648a2.472,2.472,0,0,1,.727-1.754,2.473,2.473,0,0,1,1.755-.727H-52.4a2.475,2.475,0,0,1,1.755.727,2.471,2.471,0,0,1,.726,1.754V166.19a2.472,2.472,0,0,1-.726,1.755,2.475,2.475,0,0,1-1.755.727h-55.516a2.473,2.473,0,0,1-1.755-.727,2.473,2.473,0,0,1-.727-1.755Z" transform="translate(1234.905 830.989)" fill="#0f0f11"/>
  </g>
</svg>
