<svg xmlns="http://www.w3.org/2000/svg" xmlns:xlink="http://www.w3.org/1999/xlink" width="387.999" height="386.39" viewBox="0 0 387.999 386.39">
  <defs>
    <linearGradient id="linear-gradient" y1="0.5" x2="1" y2="0.5" gradientUnits="objectBoundingBox">
      <stop offset="0" stop-color="#444b8c"/>
      <stop offset="0.996" stop-color="#26264f"/>
    </linearGradient>
    <linearGradient id="linear-gradient-3" x1="1.087" y1="-0.027" x2="0.798" y2="0.192" gradientUnits="objectBoundingBox">
      <stop offset="0" stop-color="#ffb30b"/>
      <stop offset="1" stop-color="#996b07"/>
    </linearGradient>
    <linearGradient id="linear-gradient-4" x1="0.272" y1="0.696" x2="-0.227" y2="1.347" xlink:href="#linear-gradient-3"/>
    <linearGradient id="linear-gradient-5" x1="0.73" y1="0.758" x2="-0.115" y2="-0.571" xlink:href="#linear-gradient-3"/>
    <linearGradient id="linear-gradient-6" x1="53.006" y1="0.5" x2="54.006" y2="0.5" gradientUnits="objectBoundingBox">
      <stop offset="0" stop-color="#444b8c"/>
      <stop offset="0.996" stop-color="#3e4177"/>
    </linearGradient>
    <linearGradient id="linear-gradient-7" x1="317.862" y1="-3.466" x2="317.085" y2="2.596" gradientUnits="objectBoundingBox">
      <stop offset="0" stop-color="#311944"/>
      <stop offset="1" stop-color="#a03976"/>
    </linearGradient>
    <linearGradient id="linear-gradient-8" x1="56.783" y1="0.5" x2="57.854" y2="0.5" xlink:href="#linear-gradient-6"/>
    <linearGradient id="linear-gradient-9" x1="63.118" y1="0.5" x2="64.118" y2="0.5" xlink:href="#linear-gradient-6"/>
    <linearGradient id="linear-gradient-10" x1="143.74" y1="0.353" x2="144.036" y2="1.391" gradientUnits="objectBoundingBox">
      <stop offset="0" stop-color="#ffc444"/>
      <stop offset="0.996" stop-color="#f36f56"/>
    </linearGradient>
    <linearGradient id="linear-gradient-11" x1="42.633" y1="-0.209" x2="42.154" y2="1.155" xlink:href="#linear-gradient-10"/>
    <linearGradient id="linear-gradient-12" x1="49.159" y1="0.118" x2="49.501" y2="1.205" gradientUnits="objectBoundingBox">
      <stop offset="0.494" stop-color="#ebeff2"/>
      <stop offset="1" stop-color="#fff"/>
    </linearGradient>
    <linearGradient id="linear-gradient-13" x1="63.556" y1="1.317" x2="63.049" y2="0.447" xlink:href="#linear-gradient-12"/>
    <linearGradient id="linear-gradient-14" x1="78.067" y1="149.182" x2="77.434" y2="147.244" gradientUnits="objectBoundingBox">
      <stop offset="0" stop-color="#311944"/>
      <stop offset="1" stop-color="#6b3976"/>
    </linearGradient>
  </defs>
  <g id="Grupo_132884" data-name="Grupo 132884" transform="translate(-490.483 -1303.99)">
    <path id="Trazado_193922" data-name="Trazado 193922" d="M583.754,1327.213c-13.03,18.655,2.249,48.9-17.087,62.93-18.822,13.657-41.945-8.729-59.683,3.028-26.314,17.439-21.509,97.239,16.963,146.819,11.571,14.911,21.238,20.713,25.52,37.576,9.194,36.209-23.118,57.75-16.97,75.659,13.846,40.323,226.779,74.16,312.217-47.027,39.9-56.6,45.875-138.33,10.221-200.4C790.513,1293.627,612.994,1285.356,583.754,1327.213Z" transform="translate(0)" fill="#ecf2f9"/>
    <g id="Grupo_132876" data-name="Grupo 132876" transform="translate(505.966 1324.841)">
      <path id="Trazado_193923" data-name="Trazado 193923" d="M810.92,1387.369c-18.281-7.633-38.272-4.777-54.378,5.855-5.886-29.631-24.585-55.175-52.43-66.8-45.627-19.051-98.529,6.481-118.159,57.024a107.442,107.442,0,0,0-7.337,39.5,45.3,45.3,0,0,0-7.538-4.021c-24.929-10.409-53.832,3.541-64.558,31.155s.422,59.448,25.719,68.848c13.51,5.021,34.888,5.83,34.888,5.83s207.937-8.449,214.352-8.179c25.614,1.081,50.859-15.592,61.577-43.188C856.457,1438.89,842.07,1400.375,810.92,1387.369Z" transform="translate(-502.454 -1320.112)" fill="#008597"/>
      <path id="Trazado_193924" data-name="Trazado 193924" d="M815.689,1387.55c-18.283-7.633-38.272-4.777-54.379,5.855-5.885-29.631-24.585-55.175-52.43-66.8-45.626-19.051-98.529,6.481-118.159,57.024a107.465,107.465,0,0,0-7.336,39.5,45.382,45.382,0,0,0-7.538-4.021c-24.929-10.409-53.832,3.541-64.558,31.155s.789,58.439,25.718,68.848c5.276,2.2,34.888,5.83,34.888,5.83s207.938-8.449,214.352-8.179c25.615,1.081,50.86-15.592,61.578-43.188C861.226,1439.071,846.838,1400.556,815.689,1387.55Z" transform="translate(-501.04 -1320.059)" fill="#00b2ca"/>
    </g>
    <g id="Grupo_132880" data-name="Grupo 132880" transform="translate(528.23 1493.041)">
      <path id="Trazado_193925" data-name="Trazado 193925" d="M853.888,1579.46l-331.657-2.827V1585a4.452,4.452,0,0,0,3.407,4.545l93.782,16.472a13.222,13.222,0,0,0,3.365.155l227.5-18.781a4.247,4.247,0,0,0,3.6-4.437Z" transform="translate(-518.917 -1413.067)" fill="#26264f"/>
      <g id="Grupo_132877" data-name="Grupo 132877">
        <path id="Trazado_193926" data-name="Trazado 193926" d="M734.283,1603.152l-207.871,15.3a6.3,6.3,0,0,1-6.743-6.5V1457.16a6.876,6.876,0,0,1,6.743-7H734.283c3.064,0,5.542,2.831,5.542,6.324V1596.42C739.825,1599.912,737.347,1602.927,734.283,1603.152Z" transform="translate(-519.669 -1450.164)" fill="#26264f"/>
        <path id="Trazado_193927" data-name="Trazado 193927" d="M736.845,1603.152l-207.869,15.3a6.3,6.3,0,0,1-6.745-6.5V1457.16a6.877,6.877,0,0,1,6.745-7H736.845c3.065,0,5.543,2.831,5.543,6.324V1596.42C742.388,1599.912,739.91,1602.927,736.845,1603.152Z" transform="translate(-518.917 -1450.164)" fill="url(#linear-gradient)"/>
        <path id="Trazado_193928" data-name="Trazado 193928" d="M728.318,1591.248,534.709,1604.54a5.164,5.164,0,0,1-5.486-5.334V1463.683a5.633,5.633,0,0,1,5.486-5.734l193.609-.836c2.528-.01,4.573,2.31,4.573,5.182v123.437C732.892,1588.606,730.847,1591.075,728.318,1591.248Z" transform="translate(-516.867 -1448.125)" fill="#fff"/>
        <path id="Trazado_193929" data-name="Trazado 193929" d="M614.57,1454.028a2.4,2.4,0,1,1-2.39-2.6A2.513,2.513,0,0,1,614.57,1454.028Z" transform="translate(-493.236 -1449.794)" fill="#fff"/>
      </g>
      <path id="Trazado_193930" data-name="Trazado 193930" d="M745.13,1567.808l-222.9,16.107,97.189,17.069a13.166,13.166,0,0,0,3.365.154l231.1-19.077-105.211-14.145A17.313,17.313,0,0,0,745.13,1567.808Z" transform="translate(-518.917 -1415.668)" fill="url(#linear-gradient)"/>
      <path id="Trazado_193931" data-name="Trazado 193931" d="M547.379,1583.445l185.57-13.609,57.432,7.659L606.41,1592.042Z" transform="translate(-511.541 -1415.06)" fill="#26264f"/>
      <g id="Grupo_132879" data-name="Grupo 132879" transform="translate(12.699 9.474)">
        <path id="Trazado_193932" data-name="Trazado 193932" d="M612.751,1598.84l-78.981,5.314a4.012,4.012,0,0,1-4.282-4V1461.823a4.012,4.012,0,0,1,4-4.013l79.267-.321Z" transform="translate(-529.488 -1457.489)" fill="#d8dee8"/>
        <path id="Trazado_193933" data-name="Trazado 193933" d="M691.605,1510.293l-83.217,2.924V1504.8l83.217-2.608Z" transform="translate(-506.344 -1444.375)" fill="#d8dee8"/>
        <path id="Trazado_193934" data-name="Trazado 193934" d="M691.605,1520.552l-83.217,3.442v-8.414l83.217-3.126Z" transform="translate(-506.344 -1441.366)" fill="#d8dee8"/>
        <path id="Trazado_193935" data-name="Trazado 193935" d="M598.406,1511.022l-47.784,1.629v-6.289l47.784-1.5Z" transform="translate(-523.289 -1443.592)" fill="#fff"/>
        <path id="Trazado_193936" data-name="Trazado 193936" d="M598.406,1518.822l-47.784,1.844v-6.289l47.784-1.713Z" transform="translate(-523.289 -1441.304)" fill="#fff"/>
        <path id="Trazado_193937" data-name="Trazado 193937" d="M598.406,1526.621l-47.784,2.059v-6.289l47.784-1.927Z" transform="translate(-523.289 -1439.016)" fill="#fff"/>
        <path id="Trazado_193938" data-name="Trazado 193938" d="M598.406,1534.421l-47.784,2.274v-6.289l47.784-2.142Z" transform="translate(-523.289 -1436.729)" fill="#fff"/>
        <path id="Trazado_193939" data-name="Trazado 193939" d="M645.162,1532.558l-36.773,1.75v-8.414l36.773-1.61Z" transform="translate(-506.344 -1437.896)" fill="#d8dee8"/>
        <g id="Grupo_132878" data-name="Grupo 132878" transform="translate(132.896 15.356)">
          <path id="Trazado_193940" data-name="Trazado 193940" d="M632.243,1479.791v12.64a6.536,6.536,0,0,0,6.855,6.438l9.375-.245a6.864,6.864,0,0,0,6.754-6.724v-12.506Zm8.634,13.066,1.742-5.279a2.278,2.278,0,0,1-1.252-2.028,2.446,2.446,0,0,1,2.429-2.4,2.33,2.33,0,0,1,2.422,2.3,2.389,2.389,0,0,1-1.248,2.076l1.736,5.193Z" transform="translate(-632.243 -1466.42)" fill="#d8dee8"/>
          <path id="Trazado_193941" data-name="Trazado 193941" d="M652.362,1481.241a1.74,1.74,0,0,1-1.8-1.719,6.752,6.752,0,0,0-6.965-6.648,7.017,7.017,0,0,0-7.011,6.87,1.831,1.831,0,0,1-1.828,1.791,1.763,1.763,0,0,1-1.83-1.733,10.663,10.663,0,0,1,10.669-10.44,10.261,10.261,0,0,1,10.564,10.1A1.808,1.808,0,0,1,652.362,1481.241Z" transform="translate(-632.042 -1469.362)" fill="#d8dee8"/>
        </g>
      </g>
      <path id="Trazado_193942" data-name="Trazado 193942" d="M528.974,1618.455l206.819-15.225,1.052-.078a5.573,5.573,0,0,0,3.661-1.853c-14.882-.813-24.127-6.1-30.089-11.553-11.975-10.958-9.9-21.767-22.812-28.972-16.107-8.989-28.773,2.4-40.995-8.836-7.41-6.812-3.773-11.892-12.889-22.072-10.1-11.275-16.674-7.486-26.824-17.633-12.832-12.831-6.415-22.814-17.468-32.027-13.411-11.176-27.873-.832-40.638-11.551-5.506-4.622-8.527-11.343-10.1-18.491h-9.712a6.877,6.877,0,0,0-6.745,7v154.795A6.3,6.3,0,0,0,528.974,1618.455Z" transform="translate(-518.917 -1450.164)" fill="#fff" opacity="0.48" style="mix-blend-mode: soft-light;isolation: isolate"/>
    </g>
    <g id="Grupo_132882" data-name="Grupo 132882" transform="translate(565.423 1389.326)">
      <path id="Trazado_193943" data-name="Trazado 193943" d="M610.485,1522.941a16,16,0,0,1-8.7-2.249,168.253,168.253,0,0,1-30.23-22.913c-13.4-13.057-21.092-26.331-22.776-39.365l-.026-.2-.327-55.615c0-10.992,7.17-19.914,20.63-25.776,11.12-4.845,25.859-7.244,41.429-6.794,15.391.446,29.632,3.621,40.171,8.912,12.53,6.289,19.1,15.128,19.1,25.608l-.3,53.14-.025.2c-1.539,12.481-8.62,25.382-21.136,38.429a174.63,174.63,0,0,1-29.172,23.894A16.555,16.555,0,0,1,610.485,1522.941Z" transform="translate(-548.426 -1369.972)" fill="url(#linear-gradient-3)"/>
      <path id="Trazado_193944" data-name="Trazado 193944" d="M612.661,1522.941a15.618,15.618,0,0,1-8.585-2.249,166.185,166.185,0,0,1-29.832-22.913c-13.218-13.057-20.812-26.331-22.474-39.365l-.026-.2-.322-55.615c0-10.992,7.075-19.914,20.356-25.776,10.974-4.845,25.517-7.244,40.884-6.794,15.186.446,29.238,3.621,39.639,8.912,12.364,6.289,18.852,15.128,18.852,25.608l-.294,53.14-.025.2c-1.518,12.481-8.506,25.382-20.856,38.429a172.74,172.74,0,0,1-28.787,23.894A16.187,16.187,0,0,1,612.661,1522.941Z" transform="translate(-547.547 -1369.972)" fill="url(#linear-gradient-4)"/>
      <path id="Trazado_193945" data-name="Trazado 193945" d="M554.261,1401.859l.325,55.335c3.642,28.233,36.822,51.092,51.274,59.777a12.76,12.76,0,0,0,13.542-.365c14.15-9.311,45.514-32.751,48.865-59.9l.3-52.994C668.564,1364.4,554.261,1360.8,554.261,1401.859Z" transform="translate(-546.714 -1369.197)" fill="url(#linear-gradient-5)"/>
      <path id="Trazado_193946" data-name="Trazado 193946" d="M610.163,1506.1a1.971,1.971,0,0,1-1.071-.283,157.088,157.088,0,0,1-27.52-21.008c-10.838-10.647-17.089-21-18.523-30.719l-.317-54.418c.013-5.221,4.146-9.691,12.248-13.266,9.044-3.993,21.89-6.087,35.182-5.771,13.161.312,25.63,2.962,34.269,7.248,7.642,3.792,11.505,8.262,11.517,13.3l-.3,52.534c-1.337,9.408-7.205,19.55-17.506,30.211a163.149,163.149,0,0,1-26.914,21.835A2.049,2.049,0,0,1,610.163,1506.1Z" transform="translate(-544.229 -1366.853)" fill="#ffe4aa"/>
      <path id="Trazado_193947" data-name="Trazado 193947" d="M608.29,1501.6a152.646,152.646,0,0,1-26.017-20.022c-10.186-10.025-16.081-19.644-17.466-28.545l-.316-54.1c.009-3.733,3.442-7.157,10.173-10.138,8.568-3.793,20.845-5.793,33.625-5.506,12.659.285,24.59,2.785,32.79,6.842,6.371,3.152,9.594,6.589,9.6,10.232l-.3,52.341c-1.3,8.636-6.86,18.079-16.582,28.123A158.489,158.489,0,0,1,608.29,1501.6Z" transform="translate(-543.714 -1366.074)" fill="#f4f7fa"/>
      <g id="Grupo_132881" data-name="Grupo 132881" transform="translate(39.968 39.332)">
        <path id="Trazado_193948" data-name="Trazado 193948" d="M625.439,1419.99l-40.465.359a5.576,5.576,0,0,0-5.645,5.415v25.925a5.226,5.226,0,0,0,5.625,5.1l40.321-1.652a5.428,5.428,0,0,0,5.208-5.305l.128-24.766A5.07,5.07,0,0,0,625.439,1419.99Z" transform="translate(-579.329 -1394.631)" fill="#ffb30b"/>
        <path id="Trazado_193949" data-name="Trazado 193949" d="M605.992,1432.607a5.011,5.011,0,0,0-5.449-4.938,5.353,5.353,0,0,0-5.01,4.889,4.874,4.874,0,0,0,2.61,4.606,1.809,1.809,0,0,1,.907,1.928l-1.171,6.549a1.317,1.317,0,0,0,1.384,1.536l2.96-.1a1.424,1.424,0,0,0,1.38-1.626l-1.132-6.486a1.934,1.934,0,0,1,.966-1.965A5.173,5.173,0,0,0,605.992,1432.607Z" transform="translate(-574.578 -1392.382)" fill="#ffe4aa"/>
        <path id="Trazado_193950" data-name="Trazado 193950" d="M623.983,1423.17a2.159,2.159,0,0,1-2.192-2.157l.025-5.648a10.494,10.494,0,0,0-10.508-10.4l-13.208-.13a10.735,10.735,0,0,0-11.027,10.507l-.005,5.827a2.318,2.318,0,0,1-2.355,2.254,2.288,2.288,0,0,1-2.362-2.234l0-5.85c0-8.363,7.125-15.078,15.754-14.959l13.214.184a14.933,14.933,0,0,1,14.893,14.8l-.027,5.626A2.208,2.208,0,0,1,623.983,1423.17Z" transform="translate(-578.442 -1400.383)" fill="#ffb30b"/>
      </g>
    </g>
    <g id="Grupo_132883" data-name="Grupo 132883" transform="translate(695.304 1397.199)">
      <path id="Trazado_193951" data-name="Trazado 193951" d="M709.06,1454.111c11.235-5.488,33.149,14.387,43.814,33.422,4.25,7.587,9.238,16.492,8.015,27.08-2.17,18.771-22.993,35.237-51.654,40.735l-2.421-8.646c3.135-3.263,7.821-7.976,13.81-13.374,9.2-8.293,11.09-8.846,11.531-11.464,1.446-8.576-20.609-15.755-28.453-30.834C696.957,1478.065,700.43,1458.326,709.06,1454.111Z" transform="translate(-633.8 -1353.435)" fill="url(#linear-gradient-6)"/>
      <path id="Trazado_193952" data-name="Trazado 193952" d="M718.721,1570.648s-1.844,4.55-.927,6.332,5.344.656,11.584,1.609,10.547,2.413,10.892,1.12-12.587-8.118-13.62-9.061S718.721,1570.648,718.721,1570.648Z" transform="translate(-628.701 -1319.102)" fill="#00b2ca"/>
      <path id="Trazado_193953" data-name="Trazado 193953" d="M721.061,1565.293l4.364,6.8a6.091,6.091,0,0,1-5.428,1.246l-4.8-6.445Z" transform="translate(-629.388 -1320.55)" fill="url(#linear-gradient-7)"/>
      <path id="Trazado_193954" data-name="Trazado 193954" d="M703.7,1491.027c-6.745-12.964-3.272-32.7,5.358-36.918a11.469,11.469,0,0,1,7.915-.428c-1.553,4.487-1.245,7.73-.479,10.029,3.42,10.248,18.2,9.083,22.822,20.748,2.92,7.375-1.723,11.033,2.421,16.944,4.294,6.125,11.317,5.1,13.486,11.066,1.617,4.447-1.571,6.974-.345,10.719a7.049,7.049,0,0,0,2.144,3.087c-7.594,13.66-25.27,24.753-47.79,29.073l-2.421-8.646c3.135-3.263,7.821-7.976,13.81-13.374,9.2-8.293,11.09-8.846,11.531-11.464C733.6,1513.286,711.546,1506.106,703.7,1491.027Z" transform="translate(-633.8 -1353.433)" opacity="0.3" fill="url(#linear-gradient-8)" style="mix-blend-mode: multiply;isolation: isolate"/>
      <path id="Trazado_193955" data-name="Trazado 193955" d="M722.381,1457.046c-.486,19.648-.214,40.892,1.209,63.508a725.845,725.845,0,0,0,9.382,79.237l-5.544,1.764c-19.009-18.522-24.7-34.814-26.256-46.534-1.1-8.284.565-9-.92-19.365-2.83-19.745-10.211-26.507-15.393-44.993a110.034,110.034,0,0,1-3.973-31.081Z" transform="translate(-639.454 -1352.302)" fill="url(#linear-gradient-9)"/>
      <path id="Trazado_193956" data-name="Trazado 193956" d="M740.86,1442.447c-.345.079-1.844.578-2.437,6.838-1.429,15.094,6.43,21.207,4.5,29.392-1.859,7.858-11.332,11.67-21.083,15.594-6.517,2.623-26.672,10.733-38.393,1.613-4.934-3.837-5.473-8.471-8.992-25.506-8.942-43.277-12.406-47-8.645-56.365,6.458-16.088,23.749-22.751,26.626-23.859,30.677-11.82,66.9,9.9,81.216,34.862,1.886,3.286,13.142,22.914,5.233,32.222-4.785,5.632-15.78,6.542-23.037,2.7C746.149,1454.807,744.089,1441.706,740.86,1442.447Z" transform="translate(-644.316 -1372.896)" fill="#ffb30b"/>
      <path id="Trazado_193957" data-name="Trazado 193957" d="M754.3,1443.348a.682.682,0,0,0,.286-.063.692.692,0,0,0,.343-.916c-.263-.576-6.595-14.166-21.229-19.528a.691.691,0,0,0-.475,1.3c14.075,5.158,20.382,18.668,20.444,18.8A.692.692,0,0,0,754.3,1443.348Z" transform="translate(-624.232 -1362.348)" fill="url(#linear-gradient-10)"/>
      <path id="Trazado_193958" data-name="Trazado 193958" d="M685.862,1405.175c1.936,5.27-3.873,9.837-1.383,15.56,3.568,8.2,17.751,3.993,22.822,12.1,6.009,9.612-7.752,25.379-2.074,30.776,2.587,2.459,5.576-.691,13.14,1.037,10.772,2.46,14.008,10.972,19.018,9.682,1.575-.406,3.486-1.837,5.093-6.24a13.925,13.925,0,0,1,.44,7.278c-1.859,7.858-11.332,11.67-21.083,15.594-6.517,2.623-26.672,10.733-38.393,1.613-4.934-3.837-5.473-8.471-8.992-25.506-8.942-43.277-12.406-47-8.645-56.365a36.666,36.666,0,0,1,8.62-12.594C681.815,1399.744,684.848,1402.415,685.862,1405.175Z" transform="translate(-644.316 -1369.589)" opacity="0.3" fill="url(#linear-gradient-11)" style="mix-blend-mode: multiply;isolation: isolate"/>
      <path id="Trazado_193959" data-name="Trazado 193959" d="M708.94,1439.982c-.828.753-9.22,8.144-19.315,5.621-8.792-2.2-14.19-10.746-15.136-17.939-2.249-17.105,20.037-31.464,17.289-34.925-1.635-2.062-10.41,1.931-16.252,5.532-6.064,3.739-22.452,13.841-25.944,33.664-.3,1.685-4.15,25.32,9.342,35.08,12.474,9.025,36.91,4.115,53.46-17.232Q710.661,1444.882,708.94,1439.982Z" transform="translate(-648.85 -1371.331)" fill="#ffb30b"/>
      <path id="Trazado_193960" data-name="Trazado 193960" d="M752.755,1417.819l-9.992,31.918a2.583,2.583,0,0,1-2.376,1.812l-53.772,1.9a2.584,2.584,0,0,1-2.616-3.131l6.953-32.049a2.582,2.582,0,0,1,2.446-2.036l56.81-1.77A2.585,2.585,0,0,1,752.755,1417.819Z" transform="translate(-638.557 -1364.793)" fill="#d8dee8"/>
      <path id="Trazado_193961" data-name="Trazado 193961" d="M751.925,1418.608l-9.7,30.979a2.509,2.509,0,0,1-2.306,1.758l-52.187,1.844a2.51,2.51,0,0,1-2.54-3.041l6.747-31.1a2.511,2.511,0,0,1,2.375-1.976l55.137-1.716A2.509,2.509,0,0,1,751.925,1418.608Z" transform="translate(-638.206 -1364.533)" fill="url(#linear-gradient-12)"/>
      <path id="Trazado_193962" data-name="Trazado 193962" d="M685.193,1448.99l6.441-29.69a8.338,8.338,0,0,0,3.852,4.556c3.884,1.918,6.908-1.538,15.388-1.211,3.242.125,9.873.383,14,4.669,3.884,4.029,2.232,8.166,4.669,13.832a21.316,21.316,0,0,0,7.91,9.126l-49.723,1.756A2.508,2.508,0,0,1,685.193,1448.99Z" transform="translate(-638.206 -1363.375)" fill="url(#linear-gradient-13)"/>
      <path id="Trazado_193963" data-name="Trazado 193963" d="M714.831,1388.6a3.675,3.675,0,0,0,2.664,4.581,33.5,33.5,0,0,1,6.741,2.151c2.372,1.358-7.225-.21-16.053-.417a73.05,73.05,0,0,1-11.945-1.195.612.612,0,0,1-.067-1.183,52.5,52.5,0,0,1,8.823-2.156c3.752-.471,7.776-8.751,7.776-8.751l3.215,2.92Z" transform="translate(-635.094 -1374.423)" fill="#f9d68f"/>
      <path id="Trazado_193964" data-name="Trazado 193964" d="M737.464,1425.874l-.61-1a4.272,4.272,0,0,0-4.656-3.162l-3.208.394a1.727,1.727,0,0,0-1.476,2.068c.3,1.432,1.067,3.143,3.037,3.011,3.346-.226,5.485,4.651,5.485,4.651l1.284-1.809A3.775,3.775,0,0,0,737.464,1425.874Z" transform="translate(-625.785 -1362.676)" fill="#ffe4aa"/>
      <path id="Trazado_193965" data-name="Trazado 193965" d="M718.4,1386c2.773-.411,5.88-2.742,5.819-4.669-.083-2.647-6.134-4.1-9.19-4.829s-4.366-.468-5.243.2a5,5,0,0,0-1.679,2.958,13.048,13.048,0,0,0-.012,2.939c.088,1.4.062,1.336.1,1.749a18.113,18.113,0,0,0,1.323,5.151,12.572,12.572,0,0,1,1.609-1.487,11.076,11.076,0,0,1,2.448-1.443C715.569,1385.758,716.713,1386.247,718.4,1386Z" transform="translate(-631.493 -1376.059)" fill="url(#linear-gradient-14)"/>
      <path id="Trazado_193966" data-name="Trazado 193966" d="M708.3,1385.55a6.842,6.842,0,0,0,3.82,5.56c3.259,1.519,7.585-5.287,6.4-7.885a4.532,4.532,0,0,0-2.887-2.1c-.744-.173-1.108-.025-2.319-.33-1.116-.282-1.333-.542-1.764-.454-.539.107-1.227.722-1.741,3.122-.266-.936-.86-1.565-1.5-1.6a1.233,1.233,0,0,0-.643.18C706.781,1382.6,706.954,1384.034,708.3,1385.55Z" transform="translate(-631.757 -1374.808)" fill="#ffe4aa"/>
    </g>
  </g>
</svg>
