<svg id="Page-1" xmlns="http://www.w3.org/2000/svg" width="85" height="85" viewBox="0 0 85 85">
  <g id="_069---SQL-Database" data-name="069---SQL-Database">
    <path id="Shape" d="M37.833,45.157V56.491A53.238,53.238,0,0,1,26.5,57.667C12.418,57.667,1,52.595,1,46.333V35c0,6.262,11.418,11.333,25.5,11.333A53.237,53.237,0,0,0,37.833,45.157Z" transform="translate(0.417 14.583)" fill="#00defc"/>
    <path id="Shape-2" data-name="Shape" d="M26.755,42.882V53.507a52.4,52.4,0,0,1-9.366,1.125c.754.03,1.512.051,2.282.051A53.237,53.237,0,0,0,31,53.507V42.174c-1.347.29-2.779.52-4.25.708Z" transform="translate(7.245 17.572)" fill="#009db3"/>
    <path id="Shape-3" data-name="Shape" d="M52,26V41.583H40.667a2.842,2.842,0,0,0-2.833,2.833v4.491A53.237,53.237,0,0,1,26.5,50.083C12.418,50.083,1,45.012,1,38.75V26c0,6.262,11.418,11.333,25.5,11.333S52,32.262,52,26Z" transform="translate(0.417 10.833)" fill="#00defc"/>
    <path id="Shape-4" data-name="Shape" d="M26.755,39.833v4.491a52.4,52.4,0,0,1-9.366,1.125c.754.03,1.512.051,2.282.051A53.237,53.237,0,0,0,31,44.324V39.833A2.842,2.842,0,0,1,33.838,37h-4.25a2.842,2.842,0,0,0-2.833,2.833Z" transform="translate(7.245 15.417)" fill="#009db3"/>
    <path id="Shape-5" data-name="Shape" d="M34,32.26v9.323h4.25V26C38.25,28.316,36.68,30.467,34,32.26Z" transform="translate(14.167 10.833)" fill="#009db3"/>
    <path id="Shape-6" data-name="Shape" d="M52,17V29.75c0,6.262-11.418,11.333-25.5,11.333S1,36.012,1,29.75V17c0,6.262,11.418,11.333,25.5,11.333S52,23.262,52,17Z" transform="translate(0.417 7.083)" fill="#00defc"/>
    <path id="Shape-7" data-name="Shape" d="M40.875,23.26v6.49c0,5.95-10.289,10.8-23.375,11.285.708.027,1.408.048,2.125.048,14.082,0,25.5-5.072,25.5-11.333V17C45.125,19.316,43.555,21.467,40.875,23.26Z" transform="translate(7.292 7.083)" fill="#009db3"/>
    <path id="Shape-8" data-name="Shape" d="M52,12.333V23.667C52,29.928,40.582,35,26.5,35S1,29.928,1,23.667V12.333C1,6.072,12.418,1,26.5,1S52,6.072,52,12.333Z" transform="translate(0.417 0.417)" fill="#00defc"/>
    <path id="Shape-9" data-name="Shape" d="M19.625,1c-.717,0-1.417.021-2.125.048,13.086.48,23.375,5.342,23.375,11.285V23.667c0,5.95-10.289,10.8-23.375,11.285.708.027,1.408.048,2.125.048,14.082,0,25.5-5.072,25.5-11.333V12.333C45.125,6.072,33.707,1,19.625,1Z" transform="translate(7.292 0.417)" fill="#009db3"/>
    <rect id="Rectangle-path" width="45.333" height="31.167" rx="2" transform="translate(38.25 52.417)" fill="#ffcb59"/>
    <path id="Shape-10" data-name="Shape" d="M58.25,37H54a2.842,2.842,0,0,1,2.833,2.833v25.5A2.842,2.842,0,0,1,54,68.167h4.25a2.842,2.842,0,0,0,2.833-2.833v-25.5A2.842,2.842,0,0,0,58.25,37Z" transform="translate(22.5 15.417)" fill="#ffb30b"/>
    <ellipse id="Oval" cx="18.417" cy="7.083" rx="18.417" ry="7.083" transform="translate(8.5 7.083)" fill="#009db3"/>
    <g id="Grupo_148109" data-name="Grupo 148109">
      <path id="Shape-11" data-name="Shape" d="M24.833,21c9.615,0,19.833-2.975,19.833-8.5S34.448,4,24.833,4,5,6.975,5,12.5,15.218,21,24.833,21Zm0-14.167c10.533,0,17,3.3,17,5.667s-6.467,5.667-17,5.667-17-3.3-17-5.667S14.3,6.833,24.833,6.833Z" transform="translate(2.083 1.667)"/>
      <path id="Shape-12" data-name="Shape" d="M80.75,51H53.833V12.75C53.833,5.6,42.01,0,26.917,0S0,5.6,0,12.75V60.917c0,7.15,11.823,12.75,26.917,12.75a55.143,55.143,0,0,0,9.917-.883V80.75A4.25,4.25,0,0,0,41.083,85H80.75A4.25,4.25,0,0,0,85,80.75V55.25A4.25,4.25,0,0,0,80.75,51ZM41.083,51a4.25,4.25,0,0,0-4.25,4.25v3.316a51.951,51.951,0,0,1-9.917.934c-14.406,0-24.083-5.127-24.083-9.917V42.591c4.372,4.178,13.395,6.993,24.083,6.993S46.628,46.768,51,42.591V51ZM51,36.833c0,4.79-9.677,9.917-24.083,9.917S2.833,41.623,2.833,36.833V29.841c4.372,4.178,13.395,6.993,24.083,6.993S46.628,34.018,51,29.841ZM2.833,12.75c0-4.79,9.677-9.917,24.083-9.917S51,7.96,51,12.75V24.083C51,28.873,41.323,34,26.917,34S2.833,28.873,2.833,24.083ZM26.917,70.833c-14.406,0-24.083-5.127-24.083-9.917V55.341c4.372,4.178,13.395,6.993,24.083,6.993a55.118,55.118,0,0,0,9.917-.884V69.9A51.859,51.859,0,0,1,26.917,70.833Zm55.25,9.917a1.417,1.417,0,0,1-1.417,1.417H41.083a1.417,1.417,0,0,1-1.417-1.417V55.25a1.417,1.417,0,0,1,1.417-1.417H80.75a1.417,1.417,0,0,1,1.417,1.417Z"/>
      <path id="Shape-13" data-name="Shape" d="M35.958,44.833H39.5A1.417,1.417,0,1,0,39.5,42H35.958a4.958,4.958,0,1,0,0,9.917,2.125,2.125,0,0,1,0,4.25H32.417a1.417,1.417,0,1,0,0,2.833h3.542a4.958,4.958,0,0,0,0-9.917,2.125,2.125,0,1,1,0-4.25Z" transform="translate(12.917 17.5)"/>
      <path id="Shape-14" data-name="Shape" d="M50.983,55.23a5.626,5.626,0,0,0,.35-1.9V47.667a5.667,5.667,0,0,0-11.333,0v5.667A5.637,5.637,0,0,0,49.35,57.6l.982.98a1.417,1.417,0,0,0,2-2Zm-5.317.936a2.833,2.833,0,0,1-2.833-2.833V47.667a2.833,2.833,0,1,1,5.667,0v5.08l-.415-.415a1.417,1.417,0,0,0-2,2L47.348,55.6A2.812,2.812,0,0,1,45.667,56.167Z" transform="translate(16.667 17.5)"/>
      <path id="Shape-15" data-name="Shape" d="M56.667,56.167H53.833V43.417a1.417,1.417,0,0,0-2.833,0V57.583A1.417,1.417,0,0,0,52.417,59h4.25a1.417,1.417,0,0,0,0-2.833Z" transform="translate(21.25 17.5)"/>
    </g>
  </g>
</svg>
