<svg xmlns="http://www.w3.org/2000/svg" width="140" height="140" viewBox="0 0 140 140">
  <g id="Grupo_148146" data-name="Grupo 148146" transform="translate(4941.534 10783.964)">
    <circle id="Elipse_5269" data-name="Elipse 5269" cx="70" cy="70" r="70" transform="translate(-4941.534 -10783.964)" fill="#ffb30b"/>
    <circle id="Elipse_5270" data-name="Elipse 5270" cx="60" cy="60" r="60" transform="translate(-4931.534 -10773.964)" fill="#fff"/>
    <path id="Trazado_194296" data-name="Trazado 194296" d="M416.613,326.957a2.91,2.91,0,0,0,2.862-2.94v-72.13a2.91,2.91,0,0,0-2.862-2.94h-42a2.91,2.91,0,0,0-2.862,2.94v20.286a4.423,4.423,0,0,1-.6,2.467,23.51,23.51,0,0,1-2.9,3.822c-1.054,1.166-2.026,2.08-2.994,2.982a.452.452,0,0,0-.148.343v7.679a.454.454,0,0,0,.157.351.429.429,0,0,0,.362.106,4.389,4.389,0,0,1,2.136.038,2.351,2.351,0,0,1,1.43,1.911,5.753,5.753,0,0,1-.858,3.463c-.747,1.437-1.987,3.2-2.607,4.426a4.893,4.893,0,0,0-.62,2.6v21.659a2.91,2.91,0,0,0,2.862,2.94Z" transform="translate(-5263.323 -11001.916)" fill="#41403f" fill-rule="evenodd"/>
    <rect id="Rectángulo_296835" data-name="Rectángulo 296835" width="3.958" height="14.504" transform="translate(-4887.303 -10745.423)" fill="#fdf633"/>
    <rect id="Rectángulo_296836" data-name="Rectángulo 296836" width="3.958" height="14.504" transform="translate(-4882.229 -10745.423)" fill="#fdf633"/>
    <rect id="Rectángulo_296837" data-name="Rectángulo 296837" width="3.957" height="14.504" transform="translate(-4877.24 -10745.423)" fill="#fdf633"/>
    <rect id="Rectángulo_296838" data-name="Rectángulo 296838" width="3.958" height="16.122" transform="translate(-4872.167 -10747.041)" fill="#fdf633"/>
    <rect id="Rectángulo_296839" data-name="Rectángulo 296839" width="3.958" height="14.504" transform="translate(-4867.098 -10745.423)" fill="#fdf633"/>
    <rect id="Rectángulo_296840" data-name="Rectángulo 296840" width="3.958" height="16.122" transform="translate(-4862.024 -10747.041)" fill="#fdf633"/>
    <rect id="Rectángulo_296841" data-name="Rectángulo 296841" width="3.958" height="14.504" transform="translate(-4857.035 -10745.423)" fill="#fdf633"/>
  </g>
</svg>
