<svg xmlns="http://www.w3.org/2000/svg" width="140" height="140" viewBox="0 0 140 140">
  <g id="Grupo_148142" data-name="Grupo 148142" transform="translate(-734.034 -916.036)">
    <circle id="Elipse_5263" data-name="Elipse 5263" cx="70" cy="70" r="70" transform="translate(734.034 916.036)" fill="#ffb30b"/>
    <circle id="Elipse_5264" data-name="Elipse 5264" cx="60" cy="60" r="60" transform="translate(744.034 926.036)" fill="#fff"/>
    <path id="Trazado_194281" data-name="Trazado 194281" d="M287.094,164.718a15.16,15.16,0,1,1-14.751,15.155,14.956,14.956,0,0,1,14.751-15.155Zm41.22,15.155c0-23.389-18.455-42.35-41.22-42.35s-41.221,18.961-41.221,42.35,18.455,42.35,41.221,42.35S328.315,203.263,328.315,179.873Z" transform="translate(517.171 805.551)" fill="#eae5e4" fill-rule="evenodd"/>
    <path id="Trazado_194283" data-name="Trazado 194283" d="M295.617,175.344a12.937,12.937,0,1,0-12.931,13.287,13.113,13.113,0,0,0,12.931-13.287Zm-12.931-4.983a4.984,4.984,0,1,1-4.85,4.983A4.917,4.917,0,0,1,282.686,170.361Z" transform="translate(521.58 810.08)" fill="#c0bcbb" fill-rule="evenodd"/>
    <path id="Trazado_194284" data-name="Trazado 194284" d="M273.248,170.823a15.206,15.206,0,0,1,2.6-3.6l-18.717-19.23a42.363,42.363,0,0,0-6.81,9.226Z" transform="translate(517.992 807.483)" fill="#a7a3a2" fill-rule="evenodd"/>
    <path id="Trazado_194285" data-name="Trazado 194285" d="M273.5,169.385l-22.932-13.6q-.876,1.6-1.617,3.283l23.957,11.6C273.087,170.23,273.284,169.8,273.5,169.385Z" transform="translate(517.74 808.922)" fill="#eae5e4" fill-rule="evenodd"/>
    <path id="Trazado_194286" data-name="Trazado 194286" d="M273.476,170.156l-23.957-11.6a43.429,43.429,0,0,0,2.868,40.3l23-13.641a15.529,15.529,0,0,1-1.908-15.052Z" transform="translate(517.171 809.434)" fill="#c0bcbb" fill-rule="evenodd"/>
    <path id="Trazado_194287" data-name="Trazado 194287" d="M274.369,181.054l-23,13.641a42.271,42.271,0,0,0,7,8.494L277.145,183.9A15.022,15.022,0,0,1,274.369,181.054Z" transform="translate(518.187 813.588)" fill="#d5d0cf" fill-rule="evenodd"/>
    <path id="Trazado_194288" data-name="Trazado 194288" d="M291.682,183.384l23.958,11.6a43.479,43.479,0,0,0-.379-38.137l-23,13.641a15.573,15.573,0,0,1-.582,12.891Z" transform="translate(525.629 809.119)" fill="#c0bcbb" fill-rule="evenodd"/>
    <path id="Trazado_194290" data-name="Trazado 194290" d="M314.489,193.655l-22.932-13.6a15.133,15.133,0,0,1-2.083,2.686l18.718,19.23A42.4,42.4,0,0,0,314.489,193.655Z" transform="translate(525.221 813.402)" fill="#d5d0cf" fill-rule="evenodd"/>
    <path id="Trazado_194291" data-name="Trazado 194291" d="M292.467,171.9l23-13.641a42.466,42.466,0,0,0-6.109-9.019l-18.777,19.292A15.246,15.246,0,0,1,292.467,171.9Z" transform="translate(525.425 807.714)" fill="#a7a3a2" fill-rule="evenodd"/>
    <path id="Trazado_194292" data-name="Trazado 194292" d="M315.07,156.852l-22.354,13.26,23.711-10.29Q315.8,158.306,315.07,156.852Z" transform="translate(525.82 809.119)" fill="#eae5e4" fill-rule="evenodd"/>
    <path id="Trazado_194293" data-name="Trazado 194293" d="M274.88,181.571A15.32,15.32,0,0,1,273,178.252l-24.39,10.586a42.727,42.727,0,0,0,3.276,6.374Z" transform="translate(517.676 813.07)" fill="#a7a3a2" fill-rule="evenodd"/>
    <path id="Trazado_194294" data-name="Trazado 194294" d="M246.474,168.117l26.013,5.057a15.361,15.361,0,0,1,.878-3.017l-23.957-11.6A42.85,42.85,0,0,0,246.474,168.117Z" transform="translate(517.282 809.434)" fill="#d5d0cf" fill-rule="evenodd"/>
  </g>
</svg>
