<svg xmlns="http://www.w3.org/2000/svg" xmlns:xlink="http://www.w3.org/1999/xlink" width="194" height="190.001" viewBox="0 0 194 190.001">
  <defs>
    <clipPath id="clip-path">
      <ellipse id="Elipse_5285" data-name="Elipse 5285" cx="90.5" cy="91" rx="90.5" ry="91" transform="translate(0.096 -0.001)" fill="#fff" stroke="#707070" stroke-width="1"/>
    </clipPath>
  </defs>
  <g id="Grupo_148146" data-name="Grupo 148146" transform="translate(-448.034 -896.71)">
    <circle id="Elipse_5287" data-name="Elipse 5287" cx="95" cy="95" r="95" transform="translate(448.034 896.711)" fill="#ffb30b"/>
    <circle id="Elipse_5299" data-name="Elipse 5299" cx="87" cy="87" r="87" transform="translate(456.034 904.711)" fill="#fff"/>
    <g id="Grupo_146983" data-name="Grupo 146983" transform="translate(485.033 911.711)">
      <g id="Grupo_146973" data-name="Grupo 146973" transform="translate(0 0)">
        <g id="Grupo_146971" data-name="Grupo 146971">
          <g id="Grupo_146969" data-name="Grupo 146969">
            <g id="Grupo_146968" data-name="Grupo 146968">
              <path id="Trazado_194967" data-name="Trazado 194967" d="M4116.007,2488.773h0l0-.292Z" transform="translate(-4002.131 -2458.524)" fill="#d9ffff"/>
              <path id="Trazado_194968" data-name="Trazado 194968" d="M4116.007,2488.773h0l0-.292Z" transform="translate(-4002.131 -2458.524)" fill="#d9ffff"/>
              <path id="Trazado_194969" data-name="Trazado 194969" d="M4034.322,2489.673l0-.293,0,.293Z" transform="translate(-4034.319 -2458.17)" fill="#d9ffff"/>
              <path id="Trazado_194970" data-name="Trazado 194970" d="M4034.322,2489.673l0-.293,0,.293Z" transform="translate(-4034.319 -2458.17)" fill="#d9ffff"/>
              <path id="Trazado_194971" data-name="Trazado 194971" d="M4090.8,2466.992c13.363,14.062,34.616,25.52,57.308,30.312.017,1.505.109,9.852.537,48.319.57,51.315-48.328,76.713-55.918,80.611-7.4-3.332-57.25-28.044-57.821-79.359-.428-38.467-.52-46.812-.537-48.319C4056.949,2493.266,4077.753,2481.345,4090.8,2466.992Z" transform="translate(-4034.299 -2466.992)" fill="#fff"/>
            </g>
          </g>
          <g id="Grupo_146970" data-name="Grupo 146970" transform="translate(6.319 9.273)">
            <path id="Trazado_194972" data-name="Trazado 194972" d="M4075.023,2473.644c13.073,11.781,31.139,20.99,50.97,25.943l.483,43.478c.222,19.895-7.6,37.943-23.245,53.65a112.915,112.915,0,0,1-26.621,19.644c-.238-.118-.5-.252-.757-.384l-.942-142.229C4074.948,2473.713,4074.987,2473.679,4075.023,2473.644Z" transform="translate(-4024.644 -2473.644)" fill="#007880"/>
            <path id="Trazado_194973" data-name="Trazado 194973" d="M4089.119,2473.717l.942,142.229a112.912,112.912,0,0,1-26.294-18.67c-15.99-15.357-24.21-33.23-24.431-53.125l-.484-43.478C4058.512,2495.3,4076.32,2485.735,4089.119,2473.717Z" transform="translate(-4038.852 -2473.615)" fill="#008f99"/>
          </g>
        </g>
        <g id="Grupo_146972" data-name="Grupo 146972" transform="translate(33.998 48.486)">
          <path id="Trazado_194974" data-name="Trazado 194974" d="M4058.707,2518.866l.223,33.683c.025,3.75,46.031,3.448,46.006-.3l-.223-33.683Zm17.4,12.6a5.683,5.683,0,1,1,8.043,5.1l.064,9.567a2.327,2.327,0,1,1-4.655.031l-.063-9.547A5.639,5.639,0,0,1,4076.112,2531.467Z" transform="translate(-4058.707 -2495.156)" fill="#fff"/>
          <path id="Trazado_194975" data-name="Trazado 194975" d="M4061.589,2523.055l4.656-.031-.016-2.268a14.318,14.318,0,0,1,28.635-.188l.016,2.269,4.657-.031-.016-2.268a18.975,18.975,0,0,0-37.949.25Z" transform="translate(-4057.577 -2501.772)" fill="#fff"/>
        </g>
      </g>
    </g>
  </g>
</svg>
