<svg xmlns="http://www.w3.org/2000/svg" width="85" height="96.015" viewBox="0 0 85 96.015">
  <g id="programador" transform="translate(-29.371 0)">
    <path id="Trazado_197245" data-name="Trazado 197245" d="M103.234,314.381c-.066-.33-4.069-20.441-4.113-20.648a7.8,7.8,0,0,0-3.7-5.26,8.872,8.872,0,0,0-2.54-1.03l-13.651-4.771a1.993,1.993,0,0,1-1.347-1.886v-4.18a17.15,17.15,0,0,1-15.579.074v4.106a1.993,1.993,0,0,1-1.347,1.886L55.35,284.6h-.005l-8.028,2.845-1.056.312a8.079,8.079,0,0,0-4.494,3.957c-.642,1.3-.452.845-3.569,16.494-1.154,5.977-1.409,6.413-1.265,7.748.4,3.733,4.241,3.343,4.345,3.389H98.924C98.965,319.329,103.987,319.712,103.234,314.381Z" transform="translate(-6.113 -224.734)" fill="#ffb30b"/>
    <path id="Trazado_197246" data-name="Trazado 197246" d="M41.654,358.492l4.113-22.524a7.851,7.851,0,0,1,3.4-5.07c-3.453,1.223-2.383.734-3.444,1.189A7.869,7.869,0,0,0,41.4,336.7c-.307.87-.108.105-3.2,15.62-1.154,5.977-1.409,6.414-1.265,7.748.4,3.733,4.241,3.343,4.345,3.389h4.689C42.656,363.453,41.226,361.519,41.654,358.492Z" transform="translate(-6.112 -268.844)" fill="#df9c06"/>
    <path id="Trazado_197247" data-name="Trazado 197247" d="M49.777,454.8H41.291c-.109-.047-4.485.392-4.376-4.17.024-.973.146-1.014,1.3-6.967l.066-.334h11.5Z" transform="translate(-6.128 -360.194)" fill="#dd9a5e"/>
    <path id="Trazado_197248" data-name="Trazado 197248" d="M42.861,443.332H38.279l-.066.333c-1.154,5.974-1.271,5.993-1.3,6.967-.109,4.547,4.29,4.133,4.376,4.17h4.689c-3.047,0-4.437-1.6-4.376-4.17C41.614,450.335,41.724,449.712,42.861,443.332Z" transform="translate(-6.129 -360.194)" fill="#d18c54"/>
    <path id="Trazado_197249" data-name="Trazado 197249" d="M172.409,276.068c0,11.661,0-1.874,0,7.31h0v.281a4.341,4.341,0,0,0,2.961,4.116,15.8,15.8,0,0,0,9.647,0,4.341,4.341,0,0,0,2.961-4.116v-.281h0c0-1.827,0-6.332,0-7.31A16.331,16.331,0,0,1,172.409,276.068Z" transform="translate(-116.214 -224.297)" fill="#dd9a5e"/>
    <path id="Trazado_197250" data-name="Trazado 197250" d="M177.1,284.936H177.1c0-9.763,0-6.51,0-7.192a17.079,17.079,0,0,1-4.689-1.677c0,11.661,0-1.874,0,7.31h0v.281a4.341,4.341,0,0,0,2.961,4.116,14.451,14.451,0,0,0,2.758.627A5.55,5.55,0,0,1,177.1,284.936Z" transform="translate(-116.214 -224.296)" fill="#d18c54"/>
    <path id="Trazado_197251" data-name="Trazado 197251" d="M99.418,418.8a1.407,1.407,0,0,0-1.407,1.407v14.665h2.814V420.2A1.407,1.407,0,0,0,99.418,418.8Z" transform="translate(-55.768 -340.259)" fill="#566a75"/>
    <path id="Trazado_197252" data-name="Trazado 197252" d="M244.581,481.049H199.039a3.441,3.441,0,0,1-3.441-3.441h0a1.972,1.972,0,0,1,1.972-1.972h48.479a1.972,1.972,0,0,1,1.972,1.972h0A3.441,3.441,0,0,1,244.581,481.049Z" transform="translate(-135.054 -386.44)" fill="#c6c6c6"/>
    <path id="Trazado_197253" data-name="Trazado 197253" d="M204.46,477.61h0a1.972,1.972,0,0,1,1.972-1.972H197.57a1.972,1.972,0,0,0-1.972,1.972h0a3.44,3.44,0,0,0,3.441,3.44H207.9A3.44,3.44,0,0,1,204.46,477.61Z" transform="translate(-135.054 -386.441)" fill="#b7b7b7"/>
    <path id="Trazado_197254" data-name="Trazado 197254" d="M259.676,315.049H220.1a2.257,2.257,0,0,0-2.251,2.251v25.614a2.257,2.257,0,0,0,2.251,2.251h39.576a2.257,2.257,0,0,0,2.251-2.251V317.3A2.257,2.257,0,0,0,259.676,315.049Z" transform="translate(-153.133 -255.968)" fill="#ededed"/>
    <g id="Grupo_148102" data-name="Grupo 148102" transform="translate(64.717 59.081)">
      <path id="Trazado_197255" data-name="Trazado 197255" d="M222.539,342.914V317.3a2.257,2.257,0,0,1,2.251-2.251H220.1a2.257,2.257,0,0,0-2.251,2.251v25.614a2.257,2.257,0,0,0,2.251,2.251h4.689A2.257,2.257,0,0,1,222.539,342.914Z" transform="translate(-217.85 -315.049)" fill="#dadada"/>
      <circle id="Elipse_5366" data-name="Elipse 5366" cx="3.251" cy="3.251" r="3.251" transform="translate(18.787 11.806)" fill="#00defc"/>
    </g>
    <path id="Trazado_197256" data-name="Trazado 197256" d="M321.266,378.02a3.249,3.249,0,1,0,2.812,4.871A3.247,3.247,0,0,1,321.266,378.02Z" transform="translate(-234.51 -307.13)" fill="#00defc"/>
    <path id="Trazado_197257" data-name="Trazado 197257" d="M114.871,7.558a22.511,22.511,0,0,0-22.346,22.5v8.529H137.54V25.832c0-8.715-5.362-10.722-5.362-10.722-6.668-8.221-17.3-7.551-17.3-7.551" transform="translate(-51.311 -6.13)" fill="#1a385e"/>
    <path id="Trazado_197258" data-name="Trazado 197258" d="M117.907,7.654A22.581,22.581,0,0,0,92.54,29.137c-.035.912-.012.571-.019,9.416h5.362V30.024A22.508,22.508,0,0,1,117.907,7.654Z" transform="translate(-51.306 -6.091)" fill="#12263f"/>
    <g id="Grupo_148103" data-name="Grupo 148103" transform="translate(40.688 29.507)">
      <path id="Trazado_197259" data-name="Trazado 197259" d="M95.608,157.621c-2.823-1.006-5.888.865-5.888,3.594s3.064,4.6,5.888,3.594Z" transform="translate(-89.72 -157.345)" fill="#dd9a5e"/>
      <path id="Trazado_197260" data-name="Trazado 197260" d="M303.974,157.621c2.823-1.006,5.888.865,5.888,3.594s-3.064,4.6-5.888,3.594Z" transform="translate(-263.795 -157.345)" fill="#dd9a5e"/>
    </g>
    <g id="Grupo_148104" data-name="Grupo 148104" transform="translate(40.679 31.725)">
      <path id="Trazado_197261" data-name="Trazado 197261" d="M90.091,169.17c-1.649,3.131,1.823,6.549,5.476,5.247v-3.306A4.5,4.5,0,0,1,90.091,169.17Z" transform="translate(-89.669 -169.17)" fill="#d18c54"/>
      <path id="Trazado_197262" data-name="Trazado 197262" d="M303.974,171.112v3.306c3.652,1.3,7.124-2.117,5.475-5.247A5.055,5.055,0,0,1,303.974,171.112Z" transform="translate(-263.785 -169.17)" fill="#d18c54"/>
    </g>
    <path id="Trazado_197263" data-name="Trazado 197263" d="M154.625,101.461a.851.851,0,0,1,.774.844c0,14.436.009,13.346-.024,14.017a17.1,17.1,0,0,1-5.154,11.4c-10.7,10.435-28.561,3.035-29.1-11.6-.025-.645-.015-8.122-.015-8.1a5.511,5.511,0,0,1,6.311-5.446c5.241.757,12.89.462,19.564-5.243a1.416,1.416,0,0,1,2.165.392A6.928,6.928,0,0,0,154.625,101.461Z" transform="translate(-74.531 -78.801)" fill="#edae6b"/>
    <path id="Trazado_197264" data-name="Trazado 197264" d="M125.811,140.341c-.022-.554-.017-10.682-.015-13.543a5.5,5.5,0,0,0-4.691,5.442c0-.021-.01,7.456.015,8.1a17.223,17.223,0,0,0,19.626,16.324A17.11,17.11,0,0,1,125.811,140.341Z" transform="translate(-74.53 -103.019)" fill="#dd9a5e"/>
    <path id="Trazado_197265" data-name="Trazado 197265" d="M310.522,375.163a4.658,4.658,0,1,0,4.658-4.658A4.663,4.663,0,0,0,310.522,375.163Zm6.5,0a1.844,1.844,0,1,1-1.845-1.844A1.847,1.847,0,0,1,317.024,375.163Z" transform="translate(-228.426 -301.024)"/>
    <path id="Trazado_197266" data-name="Trazado 197266" d="M110.993,87.79h-.9c.192-.81.064-.217.1-14.549a1.407,1.407,0,1,0-2.813,0V86.946a.855.855,0,0,1-.844.844H66.965a.855.855,0,0,1-.844-.844V61.332a.855.855,0,0,1,.844-.844h39.576a.855.855,0,0,1,.844.844v5.344a1.407,1.407,0,1,0,2.813,0V61.332a3.662,3.662,0,0,0-3.657-3.657H76.712l-3.137-1.067a.587.587,0,0,1-.4-.555V52.605a18.534,18.534,0,0,0,8.986-13.96c4.3.2,7.256-3.911,5.47-7.476V19.7c0-8.293-4.51-11.178-5.888-11.866C73.8-1.651,57.418-3.031,47.353,6.5a1.409,1.409,0,0,0,.963,2.432c1.036,0,.878-.725,4.08-2.807.237-.154.7-.425.678-.414C61.369.735,73.6,2.26,79.773,9.866a1.351,1.351,0,0,0,.585.426c.182.073,4.463,1.875,4.463,9.41v8.878a6.056,6.056,0,0,0-2.548-.474v-4.6a2.25,2.25,0,0,0-2.045-2.244,5.556,5.556,0,0,1-4.384-3.02,2.823,2.823,0,0,0-4.309-.778,22.756,22.756,0,0,1-18.449,4.92,6.921,6.921,0,0,0-7.828,5.727,6.082,6.082,0,0,0-2.638.472c.088-4.381-.656-9.123,2.814-15.174a1.407,1.407,0,0,0-2.44-1.4,24.073,24.073,0,0,0-3.167,10.984c-.035.907-.014.575-.02,8.179-1.789,3.569,1.174,7.675,5.47,7.476a18.563,18.563,0,0,0,9.511,14.262v3.145a.587.587,0,0,1-.4.555c-5.576,1.949,1-.421-13.624,4.763a9.639,9.639,0,0,0-1.5.485,9.322,9.322,0,0,0-5.7,6.932c-4.388,22.04-4.221,20.791-4.191,21.989h0c.136,3.475,2.359,5.239,5.782,5.239h33.43a1.407,1.407,0,0,0,0-2.813h-4.61c-1.966,0-2.617-2.6-1.469-2.6h48.479c1.151,0,.492,2.6-1.469,2.6H75.157a1.407,1.407,0,0,0,0,2.813h34.367a4.853,4.853,0,0,0,4.847-4.847A3.382,3.382,0,0,0,110.993,87.79ZM57.6,54.161a18.456,18.456,0,0,0,10.939.4l0-.011.019-.005,0,.011a17.328,17.328,0,0,0,1.807-.591v3.707h-3.4a3.662,3.662,0,0,0-3.657,3.657V62.81a13.158,13.158,0,0,1-3.7-.667,2.93,2.93,0,0,1-2-2.782C57.6,55.949,57.61,58.033,57.6,54.161ZM85.347,33.377a2.743,2.743,0,0,1-3.074,2.457V30.921A2.743,2.743,0,0,1,85.347,33.377Zm-5.39-9.317ZM42.093,33.377a2.743,2.743,0,0,1,3.074-2.457v4.914A2.743,2.743,0,0,1,42.093,33.377ZM48,37.449c-.036-.651-.018-.416-.022-7.666a4.341,4.341,0,0,1,1.412-3.655,4.124,4.124,0,0,1,3.291-.962c5.529.8,13.606.481,20.679-5.566l.021.005h0A8.347,8.347,0,0,0,79.459,24c0,12.715.165,13.955-.467,16.472a16.04,16.04,0,0,1-1.877,4.444C68.86,57.961,48.772,52.832,48,37.449ZM35.162,93.2c-2.408,0-2.84-1.14-2.947-2.133-.111-1.035.118-1.5,1.087-6.525h8.939V93.2ZM62.514,87.79c-2.286,0-4.079,2.214-3.1,4.985.04.115.109.289.173.428H45.055V79.944a1.407,1.407,0,1,0-2.813,0v1.788H33.862c2.654-13.318,2.5-12.761,2.791-13.529a6.31,6.31,0,0,1,2.679-3.227,7.335,7.335,0,0,1,2.259-.915c.074-.021-.423.152,8.108-2.871h0l5.1-1.747a5.738,5.738,0,0,0,3.918,5.369,15.992,15.992,0,0,0,4.6.812c.089,21.4-.128,21.212.1,22.166h-.893Z"/>
  </g>
</svg>
