<svg xmlns="http://www.w3.org/2000/svg" width="190" height="190" viewBox="0 0 190 190">
  <g id="Grupo_148147" data-name="Grupo 148147" transform="translate(-962.034 -896.711)">
    <g id="Grupo_147296" data-name="Grupo 147296" transform="translate(0 11.711)">
      <path id="Trazado_195623" data-name="Trazado 195623" d="M95,0A95,95,0,1,1,0,95,95,95,0,0,1,95,0Z" transform="translate(962.034 885)" fill="#ffb30b"/>
      <path id="Trazado_195624" data-name="Trazado 195624" d="M86.346,0A86.346,86.346,0,1,1,0,86.346,86.346,86.346,0,0,1,86.346,0Z" transform="translate(970.688 893.654)" fill="#084a93"/>
    </g>
    <g id="Grupo_146984" data-name="Grupo 146984" transform="translate(1000.034 923.195)">
      <g id="Grupo_146978" data-name="Grupo 146978" transform="translate(0 45.315)">
        <g id="Grupo_146975" data-name="Grupo 146975" transform="translate(0 29.757)">
          <rect id="Rectángulo_296965" data-name="Rectángulo 296965" width="113.48" height="22.429" fill="#fff"/>
          <g id="Grupo_146974" data-name="Grupo 146974" transform="translate(17.786 7.087)">
            <circle id="Elipse_5288" data-name="Elipse 5288" cx="4.898" cy="4.898" r="4.898" transform="translate(0 0)" fill="#296acc"/>
            <circle id="Elipse_5289" data-name="Elipse 5289" cx="4.898" cy="4.898" r="4.898" transform="translate(16.795 0)" fill="#296acc"/>
            <circle id="Elipse_5290" data-name="Elipse 5290" cx="4.898" cy="4.898" r="4.898" transform="translate(33.589 0)" fill="#296acc"/>
            <path id="Trazado_194976" data-name="Trazado 194976" d="M4227.531,2539.662a4.9,4.9,0,1,1-4.9-4.9A4.9,4.9,0,0,1,4227.531,2539.662Z" transform="translate(-4167.351 -2534.763)" fill="#296acc"/>
            <circle id="Elipse_5291" data-name="Elipse 5291" cx="4.898" cy="4.898" r="4.898" transform="translate(67.178 0)" fill="#296acc"/>
          </g>
        </g>
        <g id="Grupo_146977" data-name="Grupo 146977">
          <rect id="Rectángulo_296966" data-name="Rectángulo 296966" width="113.48" height="22.429" fill="#fff"/>
          <g id="Grupo_146976" data-name="Grupo 146976" transform="translate(17.786 7.087)">
            <circle id="Elipse_5292" data-name="Elipse 5292" cx="4.898" cy="4.898" r="4.898" fill="#296acc"/>
            <circle id="Elipse_5293" data-name="Elipse 5293" cx="4.898" cy="4.898" r="4.898" transform="translate(16.795)" fill="#296acc"/>
            <circle id="Elipse_5294" data-name="Elipse 5294" cx="4.898" cy="4.898" r="4.898" transform="translate(33.589)" fill="#296acc"/>
            <path id="Trazado_194977" data-name="Trazado 194977" d="M4227.531,2518.317a4.9,4.9,0,1,1-4.9-4.9A4.9,4.9,0,0,1,4227.531,2518.317Z" transform="translate(-4167.351 -2513.418)" fill="#296acc"/>
            <circle id="Elipse_5295" data-name="Elipse 5295" cx="4.898" cy="4.898" r="4.898" transform="translate(67.178)" fill="#296acc"/>
          </g>
        </g>
        <rect id="Rectángulo_296967" data-name="Rectángulo 296967" width="45.965" height="15.592" rx="5.592" transform="translate(33.294 68.123)" fill="#ffb30b"/>
      </g>
      <g id="Grupo_146981" data-name="Grupo 146981" transform="translate(38.784 0)">
        <circle id="Elipse_5296" data-name="Elipse 5296" cx="18.254" cy="18.254" r="18.254" fill="#fff"/>
        <g id="Grupo_146980" data-name="Grupo 146980" transform="translate(8.106 6.003)">
          <g id="Grupo_146979" data-name="Grupo 146979" transform="translate(4.415)">
            <path id="Trazado_194978" data-name="Trazado 194978" d="M4211.4,2491.65a5.768,5.768,0,0,0,4.478-2.193,5.622,5.622,0,0,0,1.234-3.565,5.735,5.735,0,1,0-11.47,0,5.618,5.618,0,0,0,1.235,3.565A5.788,5.788,0,0,0,4211.4,2491.65Z" transform="translate(-4205.637 -2480.134)" fill="#005cea"/>
          </g>
          <path id="Trazado_194979" data-name="Trazado 194979" d="M4222.76,2498.205c0,3.633-20.29,3.633-20.29,0l.007-4.235c.8-5.789,18.634-6.031,20.288,0Z" transform="translate(-4202.47 -2476.429)" fill="#005cea"/>
        </g>
      </g>
    </g>
  </g>
</svg>
