<svg xmlns="http://www.w3.org/2000/svg" width="140" height="140" viewBox="0 0 140 140">
  <g id="Grupo_148145" data-name="Grupo 148145" transform="translate(-381.034 -6157)">
    <circle id="Elipse_5374" data-name="Elipse 5374" cx="70" cy="70" r="70" transform="translate(381.034 6157)" fill="#ffb30b"/>
    <circle id="Elipse_5375" data-name="Elipse 5375" cx="60" cy="60" r="60" transform="translate(391.034 6167)" fill="#fff"/>
    <g id="database_2_" data-name="database (2)" transform="translate(411.034 6179.467)">
      <g id="Grupo_148138" data-name="Grupo 148138" transform="translate(0 8.533)">
        <g id="Grupo_148137" data-name="Grupo 148137">
          <path id="Trazado_197319" data-name="Trazado 197319" d="M58.05,8.533c-11.125,0-22.95,3.312-22.95,9.45v22.95H4.05A4.05,4.05,0,0,0,0,44.983v37.8a4.05,4.05,0,0,0,4.05,4.05h37.8a4.05,4.05,0,0,0,4.05-4.05V58.467a51.169,51.169,0,0,0,12.15,1.366c11.125,0,22.95-3.312,22.95-9.45v-32.4C81,11.845,69.175,8.533,58.05,8.533Zm-14.85,54H40.5a1.35,1.35,0,1,0,0,2.7h2.7v17.55a1.35,1.35,0,0,1-1.35,1.35H24.3v-2.7a1.35,1.35,0,0,0-2.7,0v2.7H4.05a1.35,1.35,0,0,1-1.35-1.35V65.233H5.4a1.35,1.35,0,1,0,0-2.7H2.7V44.983a1.35,1.35,0,0,1,1.35-1.35H21.6v2.7a1.35,1.35,0,0,0,2.7,0v-2.7H41.85a1.35,1.35,0,0,1,1.35,1.35v17.55Zm35.1-12.15c0,3.186-8.66,6.75-20.25,6.75A48.25,48.25,0,0,1,45.9,55.675V47.667a51.169,51.169,0,0,0,12.15,1.366,45.135,45.135,0,0,0,16.6-2.8A15.734,15.734,0,0,0,78.3,44.184v6.2Zm0-10.8c0,1.39-1.747,2.943-4.68,4.155a42.427,42.427,0,0,1-15.57,2.595,48.182,48.182,0,0,1-12.161-1.462,4.05,4.05,0,0,0-4.039-3.938H37.8V33.385a15.733,15.733,0,0,0,3.636,2.043A45.136,45.136,0,0,0,58.05,38.233a45.135,45.135,0,0,0,16.6-2.8A15.734,15.734,0,0,0,78.3,33.384v6.2Zm0-10.8c0,1.39-1.747,2.943-4.68,4.155a42.427,42.427,0,0,1-15.57,2.595,42.434,42.434,0,0,1-15.576-2.6c-2.927-1.21-4.674-2.762-4.674-4.153V22.591c4.122,3.164,12.351,4.842,20.25,4.842s16.128-1.678,20.25-4.842Zm-20.25-4.05c-11.59,0-20.25-3.564-20.25-6.75s8.66-6.75,20.25-6.75S78.3,14.8,78.3,17.983,69.64,24.733,58.05,24.733Z" transform="translate(0 -8.533)" fill="#084a93"/>
          <path id="Trazado_197320" data-name="Trazado 197320" d="M145.984,285.217h-6.75v-10.8a1.35,1.35,0,0,0-2.7,0v12.15a1.35,1.35,0,0,0,1.35,1.35h8.1a1.35,1.35,0,1,0,0-2.7Z" transform="translate(-114.934 -231.217)" fill="#084a93"/>
          <path id="Trazado_197321" data-name="Trazado 197321" d="M258.309,128.4a1.394,1.394,0,0,0-.445-.283,1.35,1.35,0,0,0-1.471.283,1.559,1.559,0,0,0-.283.446,1.353,1.353,0,0,0-.108.513,1.844,1.844,0,0,0,.027.27.864.864,0,0,0,.081.243,1.029,1.029,0,0,0,.122.243l.162.2a1.42,1.42,0,0,0,.959.392,1.347,1.347,0,0,0,.513-.108,1.559,1.559,0,0,0,.445-.283l.162-.2a1.029,1.029,0,0,0,.122-.243.862.862,0,0,0,.081-.243,1.837,1.837,0,0,0,.027-.27,1.347,1.347,0,0,0-.108-.513A1.564,1.564,0,0,0,258.309,128.4Z" transform="translate(-215.5 -109.113)" fill="#084a93"/>
          <path id="Trazado_197322" data-name="Trazado 197322" d="M282.489,44.2a1.351,1.351,0,0,0-1.839-1.446l-6.75,2.7a1.35,1.35,0,0,0,.5,2.6,1.37,1.37,0,0,0,.5-.1l6.75-2.7A1.351,1.351,0,0,0,282.489,44.2Z" transform="translate(-229.852 -37.262)" fill="#084a93"/>
          <path id="Trazado_197323" data-name="Trazado 197323" d="M322.878,42.949a1.351,1.351,0,0,0-1.337-.192l-13.5,5.4a1.35,1.35,0,0,0,.5,2.6,1.37,1.37,0,0,0,.5-.1l13.5-5.4a1.351,1.351,0,0,0,.333-2.316Z" transform="translate(-258.593 -37.261)" fill="#084a93"/>
        </g>
      </g>
    </g>
  </g>
</svg>
